<?xml version="1.0" encoding="UTF-8"?>
<!DOCTYPE svg PUBLIC "-//W3C//DTD SVG 1.1//EN" "http://www.w3.org/Graphics/SVG/1.1/DTD/svg11.dtd">
<!-- Creator: CorelDRAW -->
<svg xmlns="http://www.w3.org/2000/svg" xml:space="preserve" width="61.0732mm" height="86.8145mm" version="1.1" style="shape-rendering:geometricPrecision; text-rendering:geometricPrecision; image-rendering:optimizeQuality; fill-rule:evenodd; clip-rule:evenodd"
viewBox="0 0 595.02 845.81"
 xmlns:xlink="http://www.w3.org/1999/xlink"
 xmlns:xodm="http://www.corel.com/coreldraw/odm/2003">
 <defs>
  <style type="text/css">
   <![CDATA[
    .str0 {stroke:white;stroke-width:1.95;stroke-miterlimit:22.9256}
    .fil0 {fill:white}
   ]]>
  </style>
 </defs>
 <g id="Camada_x0020_1">
  <metadata id="CorelCorpID_0Corel-Layer"/>
  <path class="fil0 str0" d="M428.36 234.79c-20.92,-20.98 -190.27,-190.91 -210.58,-212.3 -39.67,-41.77 -80.36,-15.49 -79.64,17.52 0.49,22.89 21.59,37.65 36.61,52.85 63.41,64.2 212.95,215.61 226.82,229.88 9.7,9.97 22.9,11.53 33.74,9.46 16.61,-3.17 27.48,-18.41 39.22,-30.03 29.04,-28.75 80.17,-79.39 94.26,-93.31 20,-19.78 39.53,-48.61 10.74,-72.69 -28.78,-24.08 -55.82,5.72 -55.82,5.72l-95.34 92.9 0 -0.01z"/>
  <path class="fil0 str0" d="M335.01 426.59c-0.49,-3.22 -1.39,-6.44 -2.6,-9.62 -9.49,-24.93 -96.35,-106.98 -115.66,-126.8 -55.07,-56.53 -121.12,-124.31 -132.98,-137.57 -38.46,-42.97 -80.55,-18.51 -81.09,14.26 -0.19,11.64 4.49,21.94 12.37,30.21 73.3,76.81 151.71,152.03 224.34,229.22 -50.63,49.41 -152.91,148.84 -201.8,197.45 -15.01,14.93 -36.11,29.43 -36.61,51.91 -0.72,32.42 39.96,58.22 79.64,17.2 14.77,-15.28 109.4,-107.3 167.96,-164.28 21.95,-21.36 38.84,-37.8 44.54,-43.42 0,0 -0.91,-1.03 17.61,-17.9 14.95,-13.62 26.27,-27.74 24.29,-40.67l0 0.01z"/>
  <path class="fil0 str0" d="M434.08 519.7c-10.84,-2.03 -24.04,-0.5 -33.74,9.29 -13.87,14.01 -167.09,162.54 -230.5,225.6 -15.01,14.93 -36.11,29.43 -36.61,51.91 -0.72,32.42 39.96,58.22 79.64,17.2 20.31,-21.01 191.58,-187.09 212.5,-207.7l88.46 82.79c0,0 23.07,26.91 51.86,3.25 28.78,-23.65 19.21,-46.06 -0.79,-65.48 -17.3,-16.8 -113.22,-113.58 -130.82,-116.87l0 0z"/>
 </g>
</svg>
