<?xml version="1.0" encoding="UTF-8"?>
<!DOCTYPE svg PUBLIC "-//W3C//DTD SVG 1.1//EN" "http://www.w3.org/Graphics/SVG/1.1/DTD/svg11.dtd">
<!-- Creator: CorelDRAW -->
<svg xmlns="http://www.w3.org/2000/svg" xml:space="preserve" width="168.446mm" height="167.366mm" version="1.1" style="shape-rendering:geometricPrecision; text-rendering:geometricPrecision; image-rendering:optimizeQuality; fill-rule:evenodd; clip-rule:evenodd"
viewBox="0 0 5014.31 4982.17"
 xmlns:xlink="http://www.w3.org/1999/xlink"
 xmlns:xodm="http://www.corel.com/coreldraw/odm/2003">
 <defs>
  <style type="text/css">
   <![CDATA[
    .fil0 {fill:white}
   ]]>
  </style>
 </defs>
 <g id="Camada_x0020_1">
  <metadata id="CorelCorpID_0Corel-Layer"/>
  <g id="_2607603946480">
   <g>
    <g>
     <path class="fil0" d="M1903.54 1765.42c-37.31,-326.07 63.97,-712.07 372.96,-830.24 89.13,-34.08 178.42,-58.29 320.11,-38.24 474.33,68.79 656.82,780.49 481.09,1142.48 -30.27,62.36 -58.01,123.58 -97.76,174.01 -198.04,251.27 -499.35,278.77 -733.48,134.12 -163.47,-100.99 -272.01,-272.26 -319.63,-456.04 -10.17,-39.26 -18.16,-81.25 -23.29,-126.09zm1431 164.08c87.49,-310.44 54.79,-453.42 41.8,-538.78 -12.99,-85.36 -111.34,-556.68 -606.78,-658.74 -495.45,-102.06 -797.91,220.82 -797.91,220.82 0,0 -315.3,278.87 -320.21,732.87 -4.91,454 225.77,890.83 782.85,898.19 139.88,90.8 763.34,578.86 1024.99,569.59 105.77,5.57 138.59,-13.39 168.05,-30.23 29.46,-16.84 195.03,-155.75 195.03,-155.75l-18.24 -53.32c0,0 -0.6,-6.64 -61.58,4.59 -60.97,11.23 -229.44,16.05 -282.39,5.62 -52.95,-10.43 -296.44,-23.41 -766.65,-373.42 0,0 480.17,-121.93 641.03,-621.44z"/>
     <path class="fil0" d="M1785.18 4528.8c-8.22,-23.88 -16.49,-47.84 -24.66,-71.5 -32.11,-92.97 -62.87,-181.49 -84.9,-243.64 -9.37,-26.44 -17.16,-48.11 -22.79,-63.33 -1.1,-2.98 -2.13,-5.71 -3.06,-8.18l-75.27 0c-0.93,2.47 -1.96,5.2 -3.06,8.17 -5.64,15.21 -13.43,36.89 -22.8,63.33 -22.03,62.15 -52.79,150.67 -84.9,243.64 -8.17,23.67 -16.43,47.62 -24.66,71.5 -31.64,91.86 -62.77,182.66 -86.44,251.85 -9.95,29.08 -18.59,54.35 -25.4,74.27l81.39 0c6.8,-19.92 15.44,-45.18 25.4,-74.27 10.35,-30.24 22.12,-64.61 34.74,-101.39l286.73 0c12.62,36.78 24.39,71.15 34.74,101.39 9.95,29.08 18.59,54.35 25.4,74.27l81.39 0c-6.8,-19.92 -15.44,-45.18 -25.4,-74.27 -10.35,-30.24 -22.12,-64.61 -34.74,-101.39 -16.25,-47.37 -33.9,-98.74 -51.71,-150.45zm-106.04 -71.5c8.17,23.67 16.43,47.62 24.66,71.5 8.47,24.6 16.91,49.12 25.17,73.18 -67,0 -173.73,0 -233.66,0 8.27,-24.05 16.7,-48.58 25.17,-73.18 8.22,-23.88 16.49,-47.84 24.66,-71.5 24.14,-69.9 47.52,-137.28 67,-192.84 19.48,55.55 42.86,122.93 67,192.84z"/>
     <polygon class="fil0" points="2069.02,4457.3 2069.02,4528.8 2069.02,4780.65 2069.02,4854.92 2148.55,4854.92 2445.02,4854.92 2445.02,4780.65 2148.55,4780.65 2148.55,4528.8 2148.55,4457.3 2148.55,4213.66 2148.55,4142.16 2069.02,4142.16 2069.02,4213.66 "/>
     <polygon class="fil0" points="2654.71,4213.66 2654.71,4457.3 2654.71,4528.8 2654.71,4780.65 2654.71,4854.92 2736.05,4854.92 2736.05,4780.65 2736.05,4528.8 2736.05,4457.3 2736.05,4213.66 2736.05,4142.16 2654.71,4142.16 "/>
     <polygon class="fil0" points="3142.78,4213.66 3142.78,4457.3 3142.78,4528.8 3142.78,4780.65 3142.78,4854.92 3224.12,4854.92 3224.12,4780.65 3224.12,4528.8 3224.12,4457.3 3224.12,4213.66 3426.1,4213.66 3426.1,4142.16 3224.12,4142.16 3142.78,4142.16 2938.49,4142.16 2938.49,4213.66 "/>
     <polygon class="fil0" points="3620.45,4213.66 3620.45,4457.3 3620.45,4528.8 3620.45,4780.65 3620.45,4854.92 3701.8,4854.92 3701.8,4780.65 3701.8,4528.8 3701.8,4457.3 3701.8,4213.66 3701.8,4142.16 3620.45,4142.16 "/>
    </g>
    <g>
     <path class="fil0" d="M988.57 172.13l3197.78 -56.53 -96.25 3415.91 -3160.61 42.58 59.08 -3401.96zm3237.14 -96.08l-3412.85 -76.05 80.9 3609.59 3398.51 101.65 -66.57 -3635.19z"/>
     <polygon class="fil0" points="3930.68,4213.66 4007.07,4457.3 4029.49,4528.8 4108.45,4780.65 4130.01,4849.42 4131.73,4854.92 4201.8,4854.92 4203.52,4849.42 4225.08,4780.65 4304.05,4528.8 4326.46,4457.3 4402.85,4213.66 4425.27,4142.16 4351.76,4142.16 4329.34,4213.66 4252.95,4457.3 4230.53,4528.8 4166.77,4732.18 4103,4528.8 4080.58,4457.3 4004.19,4213.66 3981.77,4142.16 3908.26,4142.16 "/>
     <polygon class="fil0" points="4608.45,4142.16 4608.45,4213.66 4608.45,4457.3 4608.45,4528.8 4608.45,4780.65 4608.45,4854.92 4689.8,4854.92 4966.78,4854.92 5014.31,4854.92 5014.31,4780.65 4966.78,4780.65 4689.8,4780.65 4689.8,4528.8 4966.78,4528.8 4966.78,4457.3 4689.8,4457.3 4689.8,4213.66 4966.78,4213.66 5014.31,4213.66 5014.31,4142.16 4966.78,4142.16 4689.8,4142.16 "/>
    </g>
   </g>
   <path class="fil0" d="M216.22 4780.65c-92.74,-18.5 -125.95,-94.92 -135.45,-251.85 -0.65,-10.7 -1.19,-21.76 -1.63,-33.21 -0.51,-13.25 -0.61,-26.01 -0.32,-38.29 3.34,-143.26 59.15,-220.57 129.54,-243.64 15.33,-5.02 31.36,-7.48 47.69,-7.48 18.87,0 37.33,2.23 54.79,7.48 67.71,20.36 120.3,86.16 122.53,243.64 0.17,12.2 0.04,24.96 -0.4,38.29 0.5,11.47 0.72,22.53 0.68,33.21 -0.67,161.93 -62.51,234.33 -138.29,251.85 -12.78,2.96 -25.96,4.35 -39.3,4.35 -14.37,-0.48 -27.62,-1.91 -39.84,-4.35zm303.59 147l-70.72 -72.73 -38.91 -40.01c12.11,-9.83 23.44,-21.21 33.83,-34.25 42.54,-53.45 69.2,-134.86 68.28,-251.85 -0.08,-10.77 -0.4,-21.83 -0.96,-33.21 0.5,-13.2 0.73,-25.96 0.69,-38.29 -0.37,-114.54 -23.59,-192.34 -60.86,-243.64 -25.6,-35.23 -57.83,-57.96 -93.83,-71.5 -31.52,-11.85 -65.92,-16.67 -101.31,-16.67 -31.03,0 -61.3,5.44 -89.54,16.67 -35.85,14.26 -68.4,37.85 -95.02,71.5 -42.84,54.16 -70.31,134.36 -71.42,243.64 -0.13,12.39 0.09,25.15 0.66,38.29 0.49,11.36 1.07,22.43 1.74,33.21 7.17,115.28 25.04,197.49 62.95,251.85 26.02,37.31 61.48,61.5 109.42,74.27 23.86,6.35 50.81,9.87 81.21,10.77 26.61,0 52.76,-3.41 77.57,-10.77l3.02 0 128.2 127.25 55.01 -54.52z"/>
   <path class="fil0" d="M1101.08 4213.66l0.45 243.64 0.13 71.5 0.24 126.47c0.76,63.81 -28.96,104.52 -69.97,125.38 -86.28,43.9 -222.53,-0.03 -230.08,-101.44 -2.74,-36.8 -1.27,-111.18 -0.22,-150.41 0.42,-15.53 0.77,-25.54 0.77,-25.54l0 -45.96 0 -243.64 0 -71.5 -82.87 0 0.26 71.5 0.88 243.64 0.26 71.5 0.17 47.69c0.17,46.81 -3.16,88.4 9.2,134.02 5.72,21.14 15.1,46.11 30.46,70.14 15.61,24.41 37.38,47.85 67.76,65.3 5.7,3.27 11.69,6.26 17.92,8.97 60.54,26.26 143.81,25.6 207.44,0 16.87,-6.78 32.35,-15.32 45.67,-25.57 16.6,-12.78 32.46,-29.69 45.59,-48.7 16.44,-23.81 28.6,-50.9 32.56,-77.29 5.84,-38.87 9.33,-103.13 11.34,-174.56 0.66,-23.28 1.16,-47.33 1.53,-71.5 1.4,-90.33 1.03,-182.51 0.48,-243.64 -0.39,-43.67 -0.88,-71.5 -0.88,-71.5l-89.22 0 0.13 71.5z"/>
  </g>
 </g>
</svg>
