<?xml version="1.0" encoding="UTF-8"?>
<!DOCTYPE svg PUBLIC "-//W3C//DTD SVG 1.1//EN" "http://www.w3.org/Graphics/SVG/1.1/DTD/svg11.dtd">
<!-- Creator: CorelDRAW -->
<svg xmlns="http://www.w3.org/2000/svg" xml:space="preserve" width="415.233mm" height="204.771mm" version="1.1" style="shape-rendering:geometricPrecision; text-rendering:geometricPrecision; image-rendering:optimizeQuality; fill-rule:evenodd; clip-rule:evenodd"
viewBox="0 0 1789.36 882.42"
 xmlns:xlink="http://www.w3.org/1999/xlink"
 xmlns:xodm="http://www.corel.com/coreldraw/odm/2003">
 <defs>
  <style type="text/css">
   <![CDATA[
    .str0 {stroke:white;stroke-width:0.86;stroke-miterlimit:22.9256}
    .fil0 {fill:white}
    .fil1 {fill:white}
   ]]>
  </style>
 </defs>
 <g id="Camada_x0020_1">
  <metadata id="CorelCorpID_0Corel-Layer"/>
  <path class="fil0" d="M657.84 745.21l31.95 0 0 -95.86c0,-7.19 0.58,-0.68 -1.88,-5.64 6.44,2.33 31.4,45.27 35.33,51.13 40.2,59.9 23.03,50.37 64.28,50.37l0 -159.76 -31.95 0 0 103.38 -60.22 -92.02c-8.39,-14.52 -6.38,-11.35 -37.52,-11.35l0 159.76z"/>
  <path class="fil0" d="M494.32 668.15c0,-76 103.38,-74.63 103.38,0 0,67.32 -103.38,67.67 -103.38,0zm-31.95 -7.52c0,49.96 35.18,88.34 75.18,88.34 29.31,0 46.09,-1.43 69.13,-24.85 38.51,-39.15 28.58,-110.29 -26.47,-136.22 -32.27,-15.2 -68.13,-5.25 -92.01,15.86 -11.54,10.2 -25.83,35.73 -25.83,56.87z"/>
  <path class="fil0" d="M1343.87 611.77c74.12,0 75.67,107.13 0,107.13 -14.07,0 -26.99,-8.75 -34.39,-16.36 -29.67,-30.53 -8.83,-90.77 34.39,-90.77zm-3.76 137.21l16.92 0c39.55,0 79.07,-45.08 74.2,-87.23 -9.89,-85.58 -97.51,-101.12 -141.42,-57.04 -15.17,15.22 -23.14,28.91 -25.73,56.99 -3.96,42.85 34.7,87.29 76.03,87.29z"/>
  <path class="fil0" d="M1501.75 647.48l-9.4 0 0 -31.95c16.57,0 33.83,-2.39 33.83,16.92 0,12.88 -11.66,15.04 -24.43,15.04zm-41.35 97.74l31.95 0 0 -67.66c4.45,3.26 24.15,40.85 28.85,50.09 3.28,6.47 5.65,11.72 8.74,17.57l33.83 0 -27.57 -53.25c-3.71,-7.49 -5.85,-11.93 -10.02,-18.17 28.19,-6.57 30.07,-28.57 30.07,-48.87 0,-23.39 -21.05,-39.47 -48.87,-39.47l-46.99 0 0 159.76z"/>
  <path class="fil0" d="M1714.14 630.56c5.36,3.92 7.96,16.17 11.26,24.45 2.56,6.44 8.84,19.3 9.42,26.29l-39.47 0c2.57,-11.03 15.05,-34.68 18.8,-50.75zm75.22 106.23l0 8.42 -30.11 0 -11.28 -31.95 -65.78 0c-2.75,11.82 -8.52,20.13 -11.28,31.95l-33.83 0 31.73 -81.04c4.94,-13.73 10.39,-26.67 15.82,-40.57 4.38,-11.23 11.7,-38.15 18.23,-38.15 35.33,0 26.65,-3.97 35.19,17.44 2.88,7.23 5.21,14.08 7.77,20.42 9.6,23.72 32.1,86.22 43.54,113.48z"/>
  <path class="fil0" d="M289.45 656.87l0 15.04c0,41.42 35.64,77.06 77.06,77.06 20.67,0 33,0.91 50.69,-9.45 6.36,-3.72 22.43,-15.24 26.37,-20.62 -5.31,-7.94 -16.13,-12.56 -18.79,-22.55 -16.03,4.28 -11.43,22.55 -56.39,22.55 -14.07,0 -26.99,-8.75 -34.39,-16.36 -17.6,-18.11 -18.93,-52.19 -0.84,-73.37 16.7,-19.56 47.93,-22.25 69.71,-10.54 10.05,5.4 12.36,10.56 20.02,15.69l21.12 -20.23c-15.51,-22.93 -57.3,-41.69 -94.07,-30.17 -19.62,6.15 -26.86,12.09 -40.33,25.46 -10.25,10.18 -20.18,27.94 -20.18,47.49z"/>
  <path class="fil0" d="M936.01 670.03c0,17.47 1.41,43.38 7.81,54.21 19.61,33.14 73.95,33.53 93.66,2.15 14.43,-22.98 9.42,-106.59 9.42,-140.95l-31.95 0c0,19.36 2.5,110.07 -3.37,122.56 -5.09,10.83 -43.62,26.21 -43.62,-21.07l0 -101.5 -31.95 0 0 84.58z"/>
  <path class="fil0" d="M5.64 624.92l31.95 0c4.83,-20.74 33.83,-14.8 33.83,0 0,16.08 -14.93,17.59 -28.19,20.68l0 26.31c48.59,0 46.57,48.87 11.28,48.87 -12.52,0 -22.26,-11.36 -22.55,-24.43l-31.95 0c0,27.41 21.36,52.63 46.99,52.63 21.01,0 30.97,0.5 48.14,-13.89 28.62,-23.99 14.7,-74.07 -12.43,-76.33l0 -3.76c33.14,-8.85 26.21,-76.27 -27.71,-74.17 -15.83,0.61 -24.5,5.27 -33.59,12.88 -4.04,3.38 -7.1,8.09 -9.55,13.01 -3.33,6.68 -3.51,12.58 -6.22,18.22z"/>
  <path class="fil0" d="M815.72 619.28c0,14.97 5.12,22.38 12.04,31.19 7.15,9.11 14.3,14.63 23.09,22.02 9.27,7.79 31.17,23 27.6,35.87 -3,10.8 -26.94,21.96 -43.93,-10.14 -5.11,3.43 -20.65,13.52 -26.31,15.04 3.42,12.83 23.85,35.71 45.11,35.71l15.04 0c31.31,0 68.15,-48.91 13.95,-91.01 -4.2,-3.26 -5.09,-4.83 -8.88,-8.04 -4.09,-3.46 -5.19,-3.58 -9.34,-7.57 -10.11,-9.73 -16.41,-12.5 -16.41,-23.06 0,-12.25 29.23,-9.7 33.83,7.52 7.36,-1.72 20.38,-13.26 24.43,-18.8 -1.49,-5.58 -3.73,-7.07 -7.93,-10.86 -11.24,-10.13 -25.25,-18.15 -41.81,-16.36 -11.18,1.21 -21.44,6.31 -27.64,11.86 -4.83,4.32 -12.83,18.02 -12.83,26.64z"/>
  <polygon class="fil0" points="1163.44,615.52 1191.63,615.52 1191.63,745.21 1223.58,745.21 1223.58,615.52 1251.77,615.52 1251.77,585.45 1163.44,585.45 "/>
  <polygon class="fil0" points="135.33,745.21 212.39,745.21 212.39,715.14 167.28,715.14 167.28,585.45 135.33,585.45 "/>
  <polygon class="fil0" points="1080.74,745.21 1155.92,745.21 1155.92,715.14 1112.69,715.14 1112.69,585.45 1080.74,585.45 "/>
  <polygon class="fil0" points="1586.33,745.21 1616.4,745.21 1616.4,585.45 1586.33,585.45 "/>
  <path class="fil0" d="M1204.79 841.07l0 7.52c0,30.44 65.79,44.09 65.79,-5.64 -28.01,0 -27.38,-2.26 -28.19,7.52l20.67 0c-5.89,25.27 -50.75,26.42 -50.75,-11.28 0,-16.6 25.49,-27.83 42.45,-16 7.33,5.11 2.76,5.01 12.06,2.85 -5.86,-21.95 -62.03,-22.79 -62.03,15.04z"/>
  <path class="fil0" d="M1475.44 842.95c0,-33.71 50.75,-30.24 50.75,-3.76 0,16.28 -6.82,30.14 -26.1,29.47 -13.46,-0.47 -24.65,-10.29 -24.65,-25.71zm-7.52 0c0,42.05 65.78,46.34 65.78,-1.88 0,-40.32 -65.78,-40.83 -65.78,1.88z"/>
  <path class="fil0" d="M285.69 874.9l7.52 0 0 -45.11c11.5,7.7 33.47,41.58 43.23,45.11l0.22 -52.84c-0.08,-9.56 1.27,-10.31 -7.73,-11.06l0 46.99c-6.57,-7.56 -36.5,-44.55 -43.23,-46.99l0 63.91z"/>
  <path class="fil0" d="M712.35 874.9l7.52 0c1.09,-13.08 5.64,-30.17 5.64,-43.23l2.8 4.71c4.99,8.49 17.22,30.69 17.87,38.52l23.66 -41.73c2.81,9.16 6.41,31.84 6.41,41.73l7.52 0c-0.34,-15.43 -7.52,-40.58 -7.52,-62.02 -7.58,2.02 -8.12,8.73 -15.04,22.55 -3.39,6.78 -10.59,18.02 -11.28,26.31 -5.88,-4.31 -9.71,-15.66 -13.16,-22.55 -3.39,-6.78 -10.59,-18.02 -11.28,-26.31l-13.16 62.02z"/>
  <path class="fil0" d="M811.96 867.38l-9.4 0 0 -22.55c13.4,0 22.55,-1.22 22.55,13.16 0,6.08 -6.82,9.4 -13.16,9.4zm-3.76 -30.07l-5.64 0 0 -18.8c13.24,0 16.92,0.02 16.92,11.28 0,5.78 -5.51,7.52 -11.28,7.52zm-13.16 37.59c13.7,0 37.59,2.42 37.59,-18.8 0,-8.48 -4.48,-13.22 -11.28,-15.04 17.35,-25.9 -3.2,-30.07 -26.31,-30.07l0 63.91z"/>
  <path class="fil0" d="M484.92 839.19l-7.52 0 0 -20.67c10.78,0 24.44,-1.87 24.44,11.28 0,7.37 -9.3,9.4 -16.92,9.4zm-15.04 35.71l7.52 0 0 -28.19c6.87,1.84 4.36,1.1 8.43,6.61 11.55,15.62 12.94,21.35 23.52,21.59 -2.16,-8.07 -14.96,-19.26 -20.68,-30.07 15.33,0 20.68,-3.5 20.68,-16.92 0,-19.15 -24.48,-16.92 -39.47,-16.92l0 63.91z"/>
  <path class="fil0" d="M909.7 874.9l7.52 0 0 -45.11 30.35 33.55c4.58,5.75 4.63,7.29 11,11.55l0 -63.91c-10.09,0.84 -5.64,-4.72 -5.64,37.59 0,8.57 -2.3,-1.44 0,9.4 -6.38,-4.28 -6.41,-5.81 -11,-11.55l-32.22 -35.44 0 63.91z"/>
  <path class="fil0" d="M862.71 816.63l0 52.63c0,9.12 13.67,5.64 37.59,5.64l0 -7.52 -30.07 0 0 -22.55 30.07 0 0 -7.52 -30.07 0 0 -18.8 30.07 0c-0.84,-10.11 -0.67,-7.52 -31.95,-7.52 -4.33,0 -5.64,1.31 -5.64,5.64z"/>
  <polygon class="fil0" points="1137.12,874.9 1172.83,874.9 1172.83,867.38 1144.64,867.38 1144.64,844.83 1172.83,844.83 1172.83,837.31 1144.64,837.31 1144.64,818.51 1172.83,818.51 1172.83,811 1137.12,811 "/>
  <polygon class="fil0" points="1281.85,874.9 1317.56,874.9 1317.56,867.38 1289.36,867.38 1289.36,844.83 1317.56,844.83 1317.56,837.31 1289.36,837.31 1289.36,818.51 1317.56,818.51 1317.56,811 1281.85,811 "/>
  <path class="fil0" d="M678.52 827.91c1.91,8.19 5.61,10.6 7.52,18.8l-18.79 0c3.33,-6.3 5.67,-14.68 11.28,-18.8zm-31.95 46.99c9.09,-0.2 8.34,-1.15 11.44,-7.35 2.05,-4.11 4.3,-8.27 5.47,-13.32l26.32 0c11.32,21.4 5.72,20.43 16.92,20.67 -1.3,-5.59 -3.86,-9.95 -6.43,-16.13 -2.53,-6.08 -4.47,-9.45 -7.37,-15.19l-14.4 -32.59c-7.27,5.33 -11.69,21.2 -16.27,30.72 -4.42,9.21 -13.62,24.31 -15.69,33.18z"/>
  <path class="fil0" d="M246.22 827.91l3.76 0c0.61,7.36 4.62,13.32 7.52,18.8l-18.79 0c1.91,-8.19 5.61,-10.6 7.52,-18.8zm-28.19 46.99c16.64,-0.37 8.71,-20.67 20.68,-20.67 28.25,0 21.53,-1.84 27.47,12 3.02,7.04 2.73,8.47 12,8.67 -1.51,-5.67 -1.25,-3.17 -3.37,-7.91 -5.27,-11.81 -23.22,-52.06 -28.59,-56 -2.67,11.49 -25.04,50.38 -28.19,63.91z"/>
  <path class="fil0" d="M432.29 827.91c1.91,8.19 5.61,10.6 7.52,18.8l-18.8 0c3.33,-6.3 5.67,-14.68 11.28,-18.8zm-31.95 46.99c11.49,-0.26 14.58,-10.67 16.92,-20.67l26.31 0c2.29,4.32 3.79,7.68 6.14,12.66 4.05,8.59 1.53,7.81 10.78,8.02l-20.7 -46.96c-2.59,-5.79 -5.9,-10.1 -7.49,-16.94 -5.33,3.91 -31.13,60.4 -31.95,63.91z"/>
  <path class="fil0" d="M1430.33 827.91l3.76 0c0.61,7.36 4.62,13.32 7.52,18.8l-18.79 0c1.91,-8.19 5.61,-10.6 7.52,-18.8zm-28.19 46.99c9.53,-0.21 8.29,-2.46 11.32,-9.35 5.99,-13.6 3.04,-11.32 28.15,-11.32 11.83,0 1.99,20.26 20.68,20.67l-6.88 -15.68c-2.92,-6.09 -5.65,-10.72 -8.13,-16.3 -4,-9 -9.93,-26.79 -16.94,-31.93 -2.67,11.49 -25.04,50.38 -28.19,63.91z"/>
  <path class="fil0" d="M1033.75 827.91c7.53,5.52 4.13,8.13 11.28,18.8l-20.68 0c4.83,-7.21 5.48,-11.39 9.4,-18.8zm-28.19 46.99c9.32,-0.77 13.06,-12.2 15.04,-20.67l28.19 0c1.22,5.23 2.48,7.04 4.89,12.03 2.98,6.17 2.19,7.99 10.15,8.65 -0.62,-7.5 -24.88,-60.1 -30.07,-63.91l-14.43 30.68c-3.12,6.24 -13.3,27.7 -13.76,33.23z"/>
  <path class="fil0" d="M563.86 827.91l3.76 0c1.91,8.19 5.61,10.6 7.52,18.8l-18.8 0c2.9,-5.48 6.91,-11.43 7.52,-18.8zm-28.19 46.99c18.71,-0.42 7.68,-20.67 20.67,-20.67 25.11,0 22.16,-2.28 28.15,11.32 3.04,6.89 1.8,9.14 11.32,9.35l-21.22 -46.45c-2.43,-5.66 -5.77,-12.28 -6.98,-17.46 -7.82,5.73 -18.89,36.08 -24.43,47 -2.84,5.59 -5.95,10.17 -7.53,16.91z"/>
  <path class="fil0" d="M1325.08 824.15c0,19.1 24.7,18.2 26.31,37.59 -4.99,5.26 -4.86,4.12 -11.28,7.52 -18.16,-9.61 -6.74,-11.95 -18.79,-9.4 5.65,24.25 37.59,17.33 37.59,0 0,-19.06 -26.31,-21.98 -26.31,-35.71 0,-6.38 3.3,-5.64 9.4,-5.64 9.44,0 3.04,9.51 15.04,3.76 -4.73,-17.71 -31.95,-13.04 -31.95,1.88z"/>
  <path class="fil0" d="M202.99 857.99c0,9.3 -9.99,15.18 -19.19,6.13 -6.42,-6.31 -0.11,-3.59 -7.12,-6.13 -8.63,17.99 33.83,27.92 33.83,0 0,-9.95 -9.07,-15.92 -15.31,-20.4 -15.51,-11.14 -13.98,-19.07 0.27,-19.07 5.87,0 11.59,12.32 12.27,2.14 1.1,-16.26 -44.74,-11.75 -26.64,14.05 4.82,6.87 21.89,15.99 21.89,23.28z"/>
  <path class="fil0" d="M966.09 818.51l15.04 0 0 56.39 7.52 0 0 -56.39 13.16 0 0 -7.52c-31.15,0 -35.71,-3.23 -35.71,7.52z"/>
  <path class="fil0" d="M1364.55 818.51l13.16 0 0 56.39 7.52 0 0 -56.39c16.44,0 11.83,0.61 15.04,-3.76 -4.71,-6.77 -11.45,-3.76 -35.71,-3.76l0 7.52z"/>
  <path class="fil0" d="M362.75 818.51l13.16 0 0 50.75c0,5.51 0.18,4.08 4.27,5.18 6.37,1.7 3.84,-2.38 3.96,-3.96 0.28,-3.5 -0.72,-16.76 -0.71,-21.89 0.01,-5.97 -0.74,-17.54 -0.19,-22.75 1.08,-10.18 4.09,-7.33 15.23,-7.33 -0.83,-9.95 -0.4,-7.52 -30.07,-7.52 -5.35,0 -5.64,2.18 -5.64,7.52z"/>
  <path class="fil0" d="M1073.22 874.9c31.29,0 31.11,2.6 31.95,-7.52l-24.44 0 0 -50.75c0,-5.68 -2.21,-5.2 -7.52,-5.64l0 63.91z"/>
  <path class="fil0" d="M520.63 874.9l7.52 0 0 -58.27c0,-5.68 -2.21,-5.2 -7.52,-5.64l0 63.91z"/>
  <path class="fil0" d="M349.6 874.9c5.31,-0.44 7.52,0.04 7.52,-5.64l0 -52.63c0,-5.68 -2.21,-5.2 -7.52,-5.64l0 63.91z"/>
  <path class="fil0" d="M842.04 816.63l0 52.63c0,5.68 2.21,5.2 7.52,5.64l0 -63.91c-5.31,0.44 -7.52,-0.04 -7.52,5.64z"/>
  <path class="fil0" d="M1417.18 805.36c7.47,-0.62 4.53,-1.88 9.4,-1.88 5.7,0 17.03,9.88 20.67,-3.76 -10.19,-4.71 -1.87,0 -7.52,0 -7.81,0 -21.21,-10.53 -22.55,5.64z"/>
  <path class="fil0" d="M603.33 878.66c0,3.42 -0.12,0.2 1.88,3.76 2.58,-1.9 16,-18.8 7.52,-18.8 -5.3,0 -4.17,1.32 -6.07,5.2 -0.37,0.75 -3.33,8.34 -3.33,9.83z"/>
  <path class="fil0" d="M424.78 807.24c7.24,-0.6 5.57,-0.75 9.96,-5.08 4.37,-4.3 5.38,-4.06 6.96,-9.96 -7.61,0.17 -6.77,-0.43 -10.65,4.39 -0.06,0.08 -2.96,4.17 -3.12,4.4 -3.39,5.03 -1.49,0 -3.15,6.24z"/>
  <path class="fil1 str0" d="M770.95 92.94l189.96 109.49c14.68,6.9 30.32,21.42 34.98,36.61 4.93,16.06 -8.03,37.2 -29.65,48.13 -0.03,0.02 -0.06,0.03 -0.08,0.04l-190.14 110.96c-3.59,2.57 -7.52,4.88 -11.66,6.81 -11.17,5.2 -23.86,7.64 -35.34,5 -13.02,-2.99 -22.24,-16.69 -25.52,-32.21 0,0 -5.22,-8.07 -3.9,-78.45 1.08,-57.62 1.05,-133.56 1,-159.21 -0.19,-2.92 -0.2,-5.89 -0.02,-8.87 0,-0.02 0,-0.03 0,-0.03 0.38,-6.37 1.62,-12.76 3.8,-18.65 3.53,-9.5 10.34,-19.37 19.84,-23.6 13.69,-6.1 33.4,-3.79 46.73,3.98zm8.29 -80.4c-26.04,-15.18 -61.23,-17.46 -78.23,1.04 -12.07,13.13 -18.1,31.84 -19.21,50.48 0,0 0.02,4.8 0.03,13.28 0.07,38.2 0.12,151.08 -1.48,236.73 -1.96,104.67 5.81,116.68 5.81,116.68 4.87,23.08 18.59,43.45 37.95,47.9 17.07,3.92 35.94,0.29 52.53,-7.43l17.36 -10.13 282.79 -165.03c0.04,-0.02 0.08,-0.05 0.12,-0.07 25.63,-14.96 44.58,-43.7 37.24,-67.57 -7.09,-23.11 -28.35,-42.01 -50.63,-51.96l-284.28 -163.92z"/>
 </g>
</svg>
