<?xml version="1.0" encoding="UTF-8"?>
<!DOCTYPE svg PUBLIC "-//W3C//DTD SVG 1.1//EN" "http://www.w3.org/Graphics/SVG/1.1/DTD/svg11.dtd">
<!-- Creator: CorelDRAW -->
<svg xmlns="http://www.w3.org/2000/svg" xml:space="preserve" width="203.064mm" height="113.413mm" version="1.1" style="shape-rendering:geometricPrecision; text-rendering:geometricPrecision; image-rendering:optimizeQuality; fill-rule:evenodd; clip-rule:evenodd"
viewBox="0 0 4319.51 2412.48"
 xmlns:xlink="http://www.w3.org/1999/xlink"
 xmlns:xodm="http://www.corel.com/coreldraw/odm/2003">
 <defs>
  <style type="text/css">
   <![CDATA[
    .str0 {stroke:white;stroke-width:4.25;stroke-miterlimit:22.9256}
    .fil0 {fill:white;fill-rule:nonzero}
   ]]>
  </style>
 </defs>
 <g id="Camada_x0020_1">
  <metadata id="CorelCorpID_0Corel-Layer"/>
  <g id="_2643861052672">
   <path class="fil0 str0" d="M2680.23 1288.65l-1110.05 0 0 -1199.25 1110.05 0 0 1199.25zm-1197.32 87.27l1284.6 0 0 -1373.8 -1284.6 0 0 1373.8z"/>
   <polygon class="fil0 str0" points="2577.32,182.44 2577.32,1179.65 2479.57,1179.65 1988.74,688.81 2050.44,627.11 2490.05,1066.62 2490.05,182.44 "/>
   <polygon class="fil0 str0" points="2432.28,89.4 2308.88,89.4 1752.93,645.35 1570.18,645.35 1570.18,732.62 1752.85,732.62 2308.88,1288.65 2432.28,1288.65 1832.7,689.07 "/>
   <path class="fil0 str0" d="M161.5 1827.66l-105.07 106.53 0 135.03 -54.3 0 0 -513.7 54.3 0 0 310.43 301.69 -310.43 62.42 0 -222.41 232.61 237.81 281.09 -64.5 0 -209.93 -241.56zm667.17 -144.6l0 386.16 -49.94 0 0 -76.36c-15.6,26.01 -36.41,45.77 -62.21,59.51 -25.59,13.73 -54.51,20.6 -86.76,20.6 -36.2,0 -69.08,-8.32 -98.41,-24.97 -29.34,-16.64 -52.43,-39.95 -69.08,-69.7 -16.65,-29.96 -24.97,-64.08 -24.97,-102.16 0,-38.07 8.32,-72.2 24.97,-101.95 16.65,-29.75 39.74,-52.85 69.08,-69.28 29.34,-16.44 62.21,-24.76 98.41,-24.76 31.21,0 59.51,6.45 84.68,19.56 25.18,12.9 45.98,31.83 62,56.8l0 -73.44 52.22 0zm-51.39 193.08c0,-29.34 -6.24,-55.34 -18.73,-78.44 -12.48,-23.1 -29.54,-40.78 -51.39,-53.26 -21.85,-12.48 -46.19,-18.73 -73.03,-18.73 -27.46,0 -52.01,6.24 -73.86,18.73 -21.85,12.48 -38.91,30.17 -51.39,53.26 -12.48,23.09 -18.73,49.1 -18.73,78.44 0,29.34 6.24,55.55 18.73,78.65 12.48,22.89 29.54,40.57 51.39,53.05 21.85,12.48 46.4,18.73 73.86,18.73 26.84,0 51.18,-6.24 73.03,-18.73 21.85,-12.48 38.91,-30.17 51.39,-53.05 12.48,-23.1 18.73,-49.31 18.73,-78.65z"/>
   <path class="fil0 str0" d="M1227.18 2025.95l0 43.28 -314.17 0 0 -34.54 243.01 -307.51 -238.65 0 0 -44.11 305.43 0 0 34.54 -243.01 308.35 247.38 0zm356.05 0l0 43.28 -314.17 0 0 -34.54 243.01 -307.51 -238.65 0 0 -44.11 305.43 0 0 34.54 -243.01 308.35 247.38 0z"/>
   <path class="fil0 str0" d="M2019.38 1683.06l0 386.16 -49.93 0 0 -76.36c-15.6,26.01 -36.41,45.77 -62.21,59.51 -25.59,13.73 -54.51,20.6 -86.76,20.6 -36.2,0 -69.08,-8.32 -98.41,-24.97 -29.34,-16.64 -52.43,-39.95 -69.08,-69.7 -16.65,-29.96 -24.97,-64.08 -24.97,-102.16 0,-38.07 8.32,-72.2 24.97,-101.95 16.65,-29.75 39.74,-52.85 69.08,-69.28 29.34,-16.44 62.21,-24.76 98.41,-24.76 31.21,0 59.5,6.45 84.68,19.56 25.18,12.9 45.98,31.83 62,56.8l0 -73.44 52.22 0zm-51.39 193.08c0,-29.34 -6.24,-55.34 -18.73,-78.44 -12.48,-23.1 -29.54,-40.78 -51.39,-53.26 -21.85,-12.48 -46.19,-18.73 -73.03,-18.73 -27.46,0 -52.02,6.24 -73.86,18.73 -21.85,12.48 -38.91,30.17 -51.39,53.26 -12.48,23.09 -18.72,49.1 -18.72,78.44 0,29.34 6.24,55.55 18.72,78.65 12.48,22.89 29.55,40.57 51.39,53.05 21.85,12.48 46.4,18.73 73.86,18.73 26.84,0 51.18,-6.24 73.03,-18.73 21.85,-12.48 38.91,-30.17 51.39,-53.05 12.48,-23.1 18.73,-49.31 18.73,-78.65zm788.87 -320.62l-227.41 513.7 -53.68 0 -227.41 -513.7 58.67 0 196.62 446.08 198.28 -446.08 54.93 0z"/>
   <path class="fil0 str0" d="M3148.07 1892.37l-322.91 0c2.91,40.16 18.31,72.4 46.19,97.16 27.88,24.76 63.04,37.03 105.69,37.03 23.93,0 45.98,-4.16 65.96,-12.69 20.18,-8.53 37.45,-21.22 52.22,-37.87l29.34 33.71c-17.06,20.6 -38.49,36.2 -64.29,47.02 -25.59,10.82 -53.89,16.23 -84.68,16.23 -39.74,0 -74.9,-8.53 -105.49,-25.38 -30.58,-16.85 -54.3,-40.36 -71.57,-70.12 -17.06,-29.75 -25.59,-63.67 -25.59,-101.33 0,-37.66 8.12,-71.36 24.55,-101.12 16.44,-29.96 39.11,-53.26 67.62,-69.91 28.5,-16.65 60.75,-24.97 96.54,-24.97 35.58,0 67.62,8.32 96.12,24.97 28.5,16.65 50.76,39.74 66.79,69.49 16.23,29.55 24.34,63.46 24.34,101.53l-0.83 16.23zm-322.91 -38.91l273.81 0c-3.54,-38.08 -17.89,-69.08 -43.07,-92.8 -25.18,-23.93 -56.59,-35.79 -94.25,-35.79 -37.24,0 -68.45,11.86 -93.63,35.79 -25.18,23.72 -39.53,54.72 -42.86,92.8z"/>
   <path class="fil0 str0" d="M3430.6 1680.15l0 50.76 -12.48 -0.83c-40.57,0 -72.4,12.48 -95.5,37.45 -22.89,24.97 -34.33,59.92 -34.33,105.07l0 196.62 -52.22 0 0 -386.16 49.93 0 0 75.73c12.27,-26.01 30.38,-45.57 54.72,-58.67 24.34,-13.32 54.3,-19.97 89.88,-19.97zm423.7 -155.63l0 544.7 -49.93 0 0 -76.36c-15.6,26.01 -36.41,45.77 -62.21,59.51 -25.59,13.73 -54.51,20.6 -86.76,20.6 -36.2,0 -69.08,-8.32 -98.41,-24.97 -29.34,-16.64 -52.43,-39.95 -69.08,-69.7 -16.65,-29.96 -24.97,-64.08 -24.97,-102.16 0,-38.07 8.32,-72.2 24.97,-101.95 16.65,-29.75 39.74,-52.85 69.08,-69.28 29.34,-16.44 62.21,-24.76 98.41,-24.76 31.21,0 59.51,6.45 84.68,19.56 25.18,12.9 45.98,31.83 62,56.8l0 -231.99 52.22 0zm-51.39 351.62c0,-29.34 -6.24,-55.34 -18.73,-78.44 -12.48,-23.1 -29.54,-40.78 -51.39,-53.26 -21.85,-12.48 -46.19,-18.73 -73.03,-18.73 -27.46,0 -52.01,6.24 -73.86,18.73 -21.84,12.48 -38.91,30.17 -51.39,53.26 -12.48,23.09 -18.73,49.1 -18.73,78.44 0,29.34 6.24,55.55 18.73,78.65 12.48,22.89 29.54,40.57 51.39,53.05 21.85,12.48 46.4,18.73 73.86,18.73 26.84,0 51.18,-6.24 73.03,-18.73 21.85,-12.48 38.91,-30.17 51.39,-53.05 12.48,-23.1 18.73,-49.31 18.73,-78.65z"/>
   <path class="fil0 str0" d="M4316.55 1892.37l-322.91 0c2.91,40.16 18.31,72.4 46.19,97.16 27.88,24.76 63.04,37.03 105.69,37.03 23.93,0 45.98,-4.16 65.96,-12.69 20.18,-8.53 37.45,-21.22 52.22,-37.87l29.34 33.71c-17.06,20.6 -38.49,36.2 -64.29,47.02 -25.59,10.82 -53.89,16.23 -84.68,16.23 -39.74,0 -74.9,-8.53 -105.49,-25.38 -30.58,-16.85 -54.3,-40.36 -71.57,-70.12 -17.06,-29.75 -25.59,-63.67 -25.59,-101.33 0,-37.66 8.12,-71.36 24.55,-101.12 16.44,-29.96 39.12,-53.26 67.62,-69.91 28.5,-16.65 60.75,-24.97 96.54,-24.97 35.58,0 67.62,8.32 96.12,24.97 28.5,16.65 50.76,39.74 66.78,69.49 16.23,29.55 24.34,63.46 24.34,101.53l-0.83 16.23zm-322.91 -38.91l273.81 0c-3.54,-38.08 -17.89,-69.08 -43.07,-92.8 -25.18,-23.93 -56.59,-35.79 -94.25,-35.79 -37.24,0 -68.45,11.86 -93.63,35.79 -25.18,23.72 -39.53,54.72 -42.86,92.8z"/>
   <path class="fil0 str0" d="M870.57 2309.93l-104.29 0 -22.87 50.62 -14.13 0 82.73 -179.81 13.11 0 82.66 179.81 -14.13 0 -23.09 -50.62zm-4.88 -11.07l-47.27 -103.78 -47.05 103.78 94.31 0zm127.65 -73.48l0 12.6 -3.06 -0.22c-14.93,0 -26.58,4.66 -34.96,13.98 -8.37,9.32 -12.6,22.28 -12.6,38.89l0 69.92 -12.82 0 0 -134.15 12.31 0 0 29.35c4.15,-9.76 10.56,-17.26 19.3,-22.5 8.74,-5.24 19.37,-7.87 31.82,-7.87z"/>
   <path class="fil0 str0" d="M1140.34 2226.39l0 183.96 -12.89 0 0 -80.91c-5.46,10.12 -12.89,17.99 -22.43,23.67 -9.54,5.61 -20.24,8.45 -32.26,8.45 -12.45,0 -23.81,-2.84 -33.94,-8.59 -10.12,-5.75 -17.99,-13.76 -23.74,-24.11 -5.75,-10.41 -8.59,-22.21 -8.59,-35.39 0,-13.18 2.84,-24.91 8.59,-35.18 5.75,-10.27 13.62,-18.35 23.74,-24.18 10.13,-5.83 21.48,-8.74 33.94,-8.74 12.16,0 23.09,2.84 32.63,8.52 9.61,5.61 17.04,13.69 22.36,24.11l0 -31.61 12.6 0zm-12.89 67.07c0,-11 -2.33,-20.76 -7.06,-29.28 -4.74,-8.52 -11.14,-15.22 -19.3,-20.03 -8.09,-4.81 -17.26,-7.21 -27.53,-7.21 -10.27,0 -19.52,2.4 -27.67,7.21 -8.08,4.81 -14.49,11.51 -19.23,20.03 -4.73,8.52 -7.06,18.28 -7.06,29.28 0,11 2.33,20.75 7.06,29.35 4.73,8.52 11.14,15.22 19.23,20.03 8.16,4.74 17.41,7.14 27.67,7.14 10.27,0 19.44,-2.4 27.53,-7.14 8.16,-4.81 14.56,-11.51 19.3,-20.03 4.73,-8.59 7.06,-18.35 7.06,-29.35zm178.05 -67.07l0 134.15 -12.31 0 0 -28.77c-4.44,9.4 -11.07,16.75 -19.81,21.99 -8.74,5.17 -19.01,7.79 -30.81,7.79 -17.48,0 -31.17,-4.88 -41.15,-14.64 -9.9,-9.76 -14.86,-23.82 -14.86,-42.17l0 -78.36 12.82 0 0 77.34c0,15.08 3.86,26.58 11.58,34.45 7.72,7.87 18.57,11.8 32.63,11.8 15.08,0 27.02,-4.73 35.83,-14.13 8.81,-9.39 13.25,-22.07 13.25,-38.01l0 -71.44 12.82 0zm48.05 0l12.82 0 0 134.15 -12.82 0 0 -134.15zm-4.08 -42.9c0,-2.91 1.02,-5.39 3.06,-7.43 2.04,-2.04 4.52,-3.06 7.43,-3.06 2.91,0 5.39,1.02 7.43,2.99 2.11,1.97 3.13,4.37 3.13,7.28 0,2.91 -1.02,5.39 -3.13,7.43 -2.04,2.04 -4.52,3.06 -7.43,3.06 -2.91,0 -5.39,-0.95 -7.43,-2.91 -2.04,-1.97 -3.06,-4.44 -3.06,-7.36zm131.3 168.6c-3.28,3.06 -7.36,5.39 -12.24,7.06 -4.88,1.6 -9.98,2.4 -15.29,2.4 -11.65,0 -20.68,-3.2 -27.02,-9.61 -6.33,-6.41 -9.47,-15.37 -9.47,-26.87l0 -87.61 -24.62 0 0 -11.07 24.62 0 0 -29.28 12.89 0 0 29.28 42.61 0 0 11.07 -42.61 0 0 86.37c0,8.67 2.11,15.29 6.26,19.88 4.15,4.52 10.41,6.77 18.64,6.77 8.37,0 15.36,-2.48 20.83,-7.43l5.39 9.03z"/>
   <path class="fil0 str0" d="M1618.46 2296.6l-115.36 0c0.36,10.41 2.98,19.74 7.94,27.89 4.95,8.09 11.65,14.42 20.17,18.86 8.52,4.44 18.06,6.63 28.62,6.63 8.74,0 16.82,-1.6 24.25,-4.73 7.5,-3.13 13.69,-7.79 18.72,-13.98l7.43 8.45c-5.83,7.06 -13.18,12.45 -21.99,16.24 -8.81,3.71 -18.35,5.61 -28.62,5.61 -13.33,0 -25.27,-2.91 -35.76,-8.74 -10.41,-5.83 -18.64,-13.84 -24.54,-24.1 -5.9,-10.27 -8.81,-22.07 -8.81,-35.25 0,-13.04 2.77,-24.69 8.3,-35.03 5.61,-10.41 13.26,-18.5 23.01,-24.32 9.76,-5.83 20.76,-8.74 32.92,-8.74 12.16,0 23.01,2.91 32.7,8.67 9.69,5.75 17.33,13.76 22.87,24.03 5.61,10.27 8.38,21.85 8.38,34.88l-0.22 3.64zm-115.14 -10.05l102.76 0c-0.51,-9.61 -3.06,-18.21 -7.72,-25.71 -4.59,-7.5 -10.71,-13.4 -18.21,-17.7 -7.5,-4.3 -16.02,-6.41 -25.42,-6.41 -9.4,0 -17.92,2.11 -25.49,6.26 -7.5,4.15 -13.55,10.05 -18.13,17.7 -4.52,7.65 -7.14,16.24 -7.79,25.85zm215.34 65.54c-3.28,3.06 -7.36,5.39 -12.24,7.06 -4.88,1.6 -9.98,2.4 -15.29,2.4 -11.65,0 -20.68,-3.2 -27.02,-9.61 -6.34,-6.41 -9.47,-15.37 -9.47,-26.87l0 -87.61 -24.62 0 0 -11.07 24.62 0 0 -29.28 12.89 0 0 29.28 42.6 0 0 11.07 -42.6 0 0 86.37c0,8.67 2.11,15.29 6.26,19.88 4.15,4.52 10.41,6.77 18.64,6.77 8.37,0 15.36,-2.48 20.83,-7.43l5.39 9.03zm146.66 -125.7l0 134.15 -12.31 0 0 -28.77c-4.44,9.4 -11.07,16.75 -19.81,21.99 -8.74,5.17 -19.01,7.79 -30.81,7.79 -17.48,0 -31.17,-4.88 -41.15,-14.64 -9.9,-9.76 -14.86,-23.82 -14.86,-42.17l0 -78.36 12.82 0 0 77.34c0,15.08 3.86,26.58 11.58,34.45 7.72,7.87 18.57,11.8 32.63,11.8 15.08,0 27.02,-4.73 35.83,-14.13 8.81,-9.39 13.25,-22.07 13.25,-38.01l0 -71.44 12.82 0zm111.48 -1.02l0 12.6 -3.06 -0.22c-14.93,0 -26.58,4.66 -34.96,13.98 -8.37,9.32 -12.6,22.28 -12.6,38.89l0 69.92 -12.82 0 0 -134.15 12.31 0 0 29.35c4.15,-9.76 10.56,-17.26 19.3,-22.5 8.74,-5.24 19.37,-7.87 31.82,-7.87z"/>
   <path class="fil0 str0" d="M2102.73 2275.48l0 85.06 -12.31 0 0 -23.89c-4.29,7.87 -10.56,13.98 -18.79,18.35 -8.23,4.37 -18.06,6.55 -29.57,6.55 -14.93,0 -26.66,-3.49 -35.32,-10.49 -8.67,-7.06 -12.96,-16.31 -12.96,-27.82 0,-11.14 4.01,-20.17 11.94,-27.09 7.94,-6.92 20.68,-10.41 38.16,-10.41l46.03 0 0 -10.78c0,-12.45 -3.42,-21.99 -10.2,-28.47 -6.77,-6.48 -16.6,-9.76 -29.64,-9.76 -8.96,0 -17.48,1.53 -25.63,4.66 -8.08,3.06 -15,7.14 -20.61,12.24l-6.41 -9.25c6.63,-5.97 14.71,-10.63 24.11,-13.98 9.4,-3.35 19.3,-5.03 29.57,-5.03 16.6,0 29.35,4.22 38.23,12.75 8.96,8.52 13.4,20.97 13.4,37.36zm-12.82 45.52l0 -25.2 -45.74 0c-13.18,0 -22.79,2.4 -28.69,7.21 -5.9,4.81 -8.81,11.36 -8.81,19.74 0,8.74 3.28,15.66 9.76,20.68 6.48,5.02 15.66,7.57 27.46,7.57 11.14,0 20.54,-2.55 28.33,-7.65 7.79,-5.17 13.69,-12.6 17.7,-22.36zm232.29 -24.4l-115.36 0c0.37,10.41 2.99,19.74 7.94,27.89 4.95,8.09 11.65,14.42 20.17,18.86 8.52,4.44 18.06,6.63 28.62,6.63 8.74,0 16.82,-1.6 24.25,-4.73 7.5,-3.13 13.69,-7.79 18.72,-13.98l7.43 8.45c-5.83,7.06 -13.18,12.45 -21.99,16.24 -8.81,3.71 -18.35,5.61 -28.62,5.61 -13.33,0 -25.27,-2.91 -35.76,-8.74 -10.41,-5.83 -18.64,-13.84 -24.54,-24.1 -5.9,-10.27 -8.81,-22.07 -8.81,-35.25 0,-13.04 2.77,-24.69 8.3,-35.03 5.61,-10.41 13.25,-18.5 23.01,-24.32 9.76,-5.83 20.75,-8.74 32.92,-8.74 12.16,0 23.01,2.91 32.7,8.67 9.69,5.75 17.33,13.76 22.87,24.03 5.61,10.27 8.37,21.85 8.37,34.88l-0.22 3.64zm-115.14 -10.05l102.76 0c-0.51,-9.61 -3.06,-18.21 -7.72,-25.71 -4.59,-7.5 -10.7,-13.4 -18.21,-17.7 -7.5,-4.3 -16.02,-6.41 -25.42,-6.41 -9.39,0 -17.91,2.11 -25.49,6.26 -7.5,4.15 -13.54,10.05 -18.13,17.7 -4.52,7.65 -7.14,16.24 -7.79,25.85zm212.48 -105.82l13.11 0 0 179.81 -13.11 0 0 -179.81zm185.26 101.45l0 78.36 -12.82 0 0 -77.34c0,-15.08 -3.79,-26.51 -11.43,-34.38 -7.65,-7.94 -18.28,-11.87 -31.97,-11.87 -15.8,0 -28.18,4.73 -37.29,14.13 -9.1,9.39 -13.62,22.07 -13.62,38.02l0 71.44 -12.82 0 0 -134.15 12.31 0 0 29.06c4.66,-9.39 11.58,-16.75 20.68,-22.07 9.18,-5.32 20.03,-8.01 32.55,-8.01 16.75,0 30.01,4.88 39.76,14.71 9.76,9.76 14.64,23.82 14.64,42.09zm113.09 69.91c-3.28,3.06 -7.36,5.39 -12.24,7.06 -4.88,1.6 -9.98,2.4 -15.29,2.4 -11.65,0 -20.68,-3.2 -27.02,-9.61 -6.33,-6.41 -9.47,-15.37 -9.47,-26.87l0 -87.61 -24.61 0 0 -11.07 24.61 0 0 -29.28 12.89 0 0 29.28 42.6 0 0 11.07 -42.6 0 0 86.37c0,8.67 2.11,15.29 6.26,19.88 4.15,4.52 10.41,6.77 18.64,6.77 8.38,0 15.37,-2.48 20.83,-7.43l5.39 9.03z"/>
   <path class="fil0 str0" d="M2855.59 2296.6l-115.36 0c0.36,10.41 2.99,19.74 7.94,27.89 4.95,8.09 11.65,14.42 20.17,18.86 8.52,4.44 18.06,6.63 28.62,6.63 8.74,0 16.82,-1.6 24.25,-4.73 7.5,-3.13 13.69,-7.79 18.71,-13.98l7.43 8.45c-5.83,7.06 -13.18,12.45 -21.99,16.24 -8.81,3.71 -18.35,5.61 -28.62,5.61 -13.33,0 -25.27,-2.91 -35.76,-8.74 -10.41,-5.83 -18.64,-13.84 -24.54,-24.1 -5.9,-10.27 -8.81,-22.07 -8.81,-35.25 0,-13.04 2.77,-24.69 8.3,-35.03 5.61,-10.41 13.25,-18.5 23.01,-24.32 9.76,-5.83 20.75,-8.74 32.92,-8.74 12.16,0 23.01,2.91 32.7,8.67 9.69,5.75 17.33,13.76 22.87,24.03 5.61,10.27 8.37,21.85 8.37,34.88l-0.22 3.64zm-115.14 -10.05l102.76 0c-0.51,-9.61 -3.06,-18.21 -7.72,-25.71 -4.59,-7.5 -10.7,-13.4 -18.21,-17.7 -7.5,-4.3 -16.02,-6.41 -25.42,-6.41 -9.4,0 -17.92,2.11 -25.49,6.26 -7.5,4.15 -13.55,10.05 -18.13,17.7 -4.51,7.65 -7.14,16.24 -7.79,25.85zm212.2 -61.18l0 12.6 -3.06 -0.22c-14.93,0 -26.58,4.66 -34.96,13.98 -8.37,9.32 -12.6,22.28 -12.6,38.89l0 69.92 -12.82 0 0 -134.15 12.31 0 0 29.35c4.15,-9.76 10.56,-17.26 19.3,-22.5 8.74,-5.24 19.37,-7.87 31.82,-7.87z"/>
   <path class="fil0 str0" d="M2981.72 2226.39l12.82 0 0 134.15 -12.82 0 0 -134.15zm-4.08 -42.9c0,-2.91 1.02,-5.39 3.06,-7.43 2.04,-2.04 4.52,-3.06 7.43,-3.06 2.91,0 5.39,1.02 7.43,2.99 2.11,1.97 3.13,4.37 3.13,7.28 0,2.91 -1.02,5.39 -3.13,7.43 -2.04,2.04 -4.52,3.06 -7.43,3.06 -2.91,0 -5.39,-0.95 -7.43,-2.91 -2.04,-1.97 -3.06,-4.44 -3.06,-7.36zm50.09 109.97c0,-13.04 2.91,-24.69 8.74,-35.03 5.83,-10.41 13.84,-18.5 24.03,-24.32 10.2,-5.83 21.63,-8.74 34.3,-8.74 12.67,0 24.11,2.91 34.23,8.74 10.2,5.83 18.21,13.91 24.03,24.32 5.83,10.34 8.74,21.99 8.74,35.03 0,13.04 -2.91,24.69 -8.74,35.1 -5.83,10.34 -13.84,18.42 -24.03,24.25 -10.12,5.83 -21.56,8.74 -34.23,8.74 -12.67,0 -24.11,-2.91 -34.3,-8.74 -10.2,-5.83 -18.21,-13.91 -24.03,-24.25 -5.83,-10.41 -8.74,-22.07 -8.74,-35.1zm120.97 0c0,-11 -2.33,-20.76 -7.06,-29.28 -4.74,-8.52 -11.14,-15.22 -19.3,-20.03 -8.08,-4.81 -17.26,-7.21 -27.53,-7.21 -10.27,0 -19.52,2.4 -27.67,7.21 -8.09,4.81 -14.49,11.51 -19.23,20.03 -4.73,8.52 -7.06,18.28 -7.06,29.28 0,11 2.33,20.75 7.06,29.35 4.74,8.52 11.14,15.22 19.23,20.03 8.16,4.74 17.4,7.14 27.67,7.14 10.27,0 19.44,-2.4 27.53,-7.14 8.16,-4.81 14.56,-11.51 19.3,-20.03 4.73,-8.59 7.06,-18.35 7.06,-29.35zm109.96 -68.09l0 12.6 -3.06 -0.22c-14.93,0 -26.58,4.66 -34.96,13.98 -8.37,9.32 -12.6,22.28 -12.6,38.89l0 69.92 -12.82 0 0 -134.15 12.31 0 0 29.35c4.15,-9.76 10.56,-17.26 19.3,-22.5 8.74,-5.24 19.37,-7.87 31.83,-7.87z"/>
   <path class="fil0 str0" d="M3399.75 2296.6l-115.36 0c0.36,10.41 2.98,19.74 7.94,27.89 4.95,8.09 11.65,14.42 20.17,18.86 8.52,4.44 18.06,6.63 28.62,6.63 8.74,0 16.82,-1.6 24.25,-4.73 7.5,-3.13 13.69,-7.79 18.72,-13.98l7.43 8.45c-5.83,7.06 -13.18,12.45 -21.99,16.24 -8.81,3.71 -18.35,5.61 -28.62,5.61 -13.33,0 -25.27,-2.91 -35.76,-8.74 -10.41,-5.83 -18.64,-13.84 -24.54,-24.1 -5.9,-10.27 -8.81,-22.07 -8.81,-35.25 0,-13.04 2.77,-24.69 8.3,-35.03 5.61,-10.41 13.25,-18.5 23.01,-24.32 9.76,-5.83 20.75,-8.74 32.92,-8.74 12.16,0 23.02,2.91 32.7,8.67 9.69,5.75 17.33,13.76 22.87,24.03 5.61,10.27 8.37,21.85 8.37,34.88l-0.22 3.64zm-115.14 -10.05l102.76 0c-0.51,-9.61 -3.06,-18.21 -7.72,-25.71 -4.59,-7.5 -10.71,-13.4 -18.21,-17.7 -7.5,-4.3 -16.02,-6.41 -25.42,-6.41 -9.39,0 -17.92,2.11 -25.49,6.26 -7.5,4.15 -13.55,10.05 -18.13,17.7 -4.52,7.65 -7.14,16.24 -7.79,25.85zm128.96 57.82l5.9 -10.27c5.46,4.59 12.53,8.45 21.19,11.58 8.67,3.06 17.77,4.59 27.16,4.59 13.47,0 23.45,-2.26 29.86,-6.7 6.48,-4.44 9.69,-10.63 9.69,-18.5 0,-5.61 -1.75,-10.05 -5.32,-13.33 -3.5,-3.28 -7.79,-5.68 -12.96,-7.21 -5.1,-1.53 -12.16,-3.21 -21.27,-4.88 -10.63,-1.89 -19.23,-3.93 -25.71,-6.19 -6.48,-2.26 -12.09,-5.83 -16.75,-10.78 -4.59,-4.95 -6.92,-11.8 -6.92,-20.54 0,-10.63 4.44,-19.45 13.25,-26.36 8.81,-6.92 21.41,-10.41 37.65,-10.41 8.52,0 17.04,1.24 25.42,3.64 8.37,2.4 15.22,5.53 20.54,9.47l-5.9 10.27c-5.46,-3.94 -11.73,-6.92 -18.79,-8.96 -6.99,-2.04 -14.2,-3.06 -21.56,-3.06 -12.45,0 -21.92,2.33 -28.26,6.92 -6.34,4.59 -9.47,10.7 -9.47,18.21 0,6.05 1.82,10.71 5.39,14.06 3.57,3.28 8.01,5.75 13.18,7.43 5.24,1.6 12.6,3.35 21.99,5.25 10.41,1.89 18.86,3.93 25.27,6.04 6.48,2.11 11.87,5.61 16.31,10.41 4.44,4.81 6.7,11.43 6.7,19.81 0,11.14 -4.66,20.03 -13.91,26.73 -9.25,6.63 -22.21,9.98 -38.96,9.98 -10.85,0 -21.12,-1.6 -30.88,-4.88 -9.76,-3.28 -17.41,-7.36 -22.87,-12.31z"/>
  </g>
 </g>
</svg>
