<?xml version="1.0" encoding="UTF-8"?>
<!DOCTYPE svg PUBLIC "-//W3C//DTD SVG 1.1//EN" "http://www.w3.org/Graphics/SVG/1.1/DTD/svg11.dtd">
<!-- Creator: CorelDRAW -->
<svg xmlns="http://www.w3.org/2000/svg" xml:space="preserve" width="1083.73mm" height="585.787mm" version="1.1" style="shape-rendering:geometricPrecision; text-rendering:geometricPrecision; image-rendering:optimizeQuality; fill-rule:evenodd; clip-rule:evenodd"
viewBox="0 0 27122.55 14660.48"
 xmlns:xlink="http://www.w3.org/1999/xlink"
 xmlns:xodm="http://www.corel.com/coreldraw/odm/2003">
 <defs>
  <style type="text/css">
   <![CDATA[
    .fil1 {fill:white;fill-opacity:0.992157}
    .fil0 {fill:white;fill-opacity:0.996078}
   ]]>
  </style>
 </defs>
 <g id="Camada_x0020_1">
  <metadata id="CorelCorpID_0Corel-Layer"/>
  <g id="_2643974165424">
   <g>
    <path class="fil0" d="M10422.58 0c2858.4,0 5716.73,0 8575.12,0 -104.22,527.86 -210.17,1055.39 -317.84,1582.59 -2858.4,6.62 -5716.73,8.83 -8575.12,6.62 105.09,-529.91 211.03,-1059.65 317.84,-1589.21z"/>
   </g>
   <g>
    <path class="fil0" d="M9899.47 2456.66c2858.4,0 5716.73,0 8575.12,0 -102.57,528.21 -208.52,1055.74 -317.84,1582.59 -2858.39,6.62 -5716.73,8.83 -8575.12,6.62 105.09,-529.92 211.03,-1059.65 317.84,-1589.21z"/>
   </g>
   <g>
    <path class="fil0" d="M9389.59 4986.15c874.07,-1.11 1748.13,0 2622.2,3.31 255.27,18.88 489.28,98.34 701.9,238.38 278.84,216.09 390.35,499.71 334.4,850.89 -63.24,386.14 -260.76,680.78 -592.64,884 -208.19,119.45 -428.95,207.72 -662.17,264.87 235,37.01 449.08,123.1 642.3,258.25 150.11,122.44 239.51,280.3 268.18,473.45 40.19,446.7 -94.43,830.76 -403.93,1152.18 -307.91,305.13 -679.78,473.98 -1115.76,506.56 -149.65,17.22 -299.7,28.21 -450.28,33.11 -779.18,3.31 -1558.29,4.43 -2337.47,3.31 327.71,-1556.83 658.79,-3112.94 993.26,-4668.31zm1099.2 834.34c269.31,-1.11 538.55,0 807.85,3.31 296.19,17.99 429.75,173.6 400.61,466.83 -76.55,393.33 -316.06,579.86 -718.46,559.54 -236.2,5.5 -472.39,4.44 -708.52,-3.31 75.36,-341.6 148.19,-683.72 218.52,-1026.37zm-397.3 1867.32c256.06,-1.13 512.06,0 768.12,3.31 484.05,31.78 635.22,273.48 453.59,725.08 -101.84,198.72 -264.07,316.85 -486.7,354.26 -54.76,10.33 -109.92,16.95 -165.54,19.86 -267.05,3.31 -534.17,4.44 -801.23,3.31 78.07,-368.43 155.35,-737.06 231.76,-1105.83z"/>
   </g>
   <g>
    <path class="fil1" d="M-0 8654.58c0,-88.27 0,-176.6 0,-264.87 13.13,-85.22 26.37,-171.3 39.73,-258.25 434.83,0 869.65,0 1304.48,0 -97.03,412.07 64.1,640.52 483.38,685.35 199.46,21.39 393.7,-0.66 582.71,-66.22 234.1,-102.57 359.92,-282.41 377.44,-539.67 -6.87,-120.85 -64.26,-208.05 -172.16,-261.56 -44.8,-21.59 -91.16,-39.2 -139.06,-52.97 -399.8,-104.89 -799.31,-210.83 -1198.53,-317.84 -733.4,-231.89 -966.26,-709.71 -698.59,-1433.6 104.7,-254.68 264.72,-467.67 480.07,-639 323.97,-251.23 690.37,-406.84 1099.2,-466.83 343.08,-49.61 687.41,-59.54 1032.99,-29.8 209.1,17.1 412.16,61.24 609.2,132.43 478.44,194.04 678.19,548.3 599.27,1062.78 -10.01,71.09 -22.15,141.72 -36.42,211.9 -437.03,0 -874.07,0 -1311.1,0 6.42,-46.49 14.15,-92.84 23.17,-139.05 32.26,-263.53 -81.42,-419.14 -341.02,-466.83 -250.47,-41.66 -477.82,11.32 -682.04,158.92 -143.08,120.14 -205.98,273.54 -188.72,460.21 17.55,68.35 53.97,124.63 109.26,168.85 44.53,33.31 93.09,59.79 145.68,79.46 350.08,98 701.04,192.89 1052.85,284.73 217.51,57.01 424.99,138.72 622.44,245 246.54,161.9 370.15,391.48 370.82,688.66 -30.93,636.22 -322.29,1108.54 -874.07,1417.05 -421.71,215.21 -869.78,327.78 -1344.21,337.71 -322.78,15.96 -642.82,-6.16 -960.15,-66.22 -242.78,-45.29 -461.3,-142.43 -655.55,-291.35 -193.66,-169.91 -304.02,-382.94 -331.09,-639z"/>
   </g>
   <g>
    <path class="fil0" d="M5290.75 4999.4c1183.08,0 2366.14,0 3549.24,0 -60.79,298.2 -122.57,596.18 -185.41,893.93 -750.44,0 -1500.94,0 -2251.38,0 -70.12,321.9 -138.54,644.15 -205.27,966.77 704.09,0 1408.24,0 2112.33,0 -63.17,298.17 -127.2,596.15 -192.03,893.93 -706.34,-2.18 -1412.67,0 -2118.95,6.62 -70.24,328.04 -140.87,655.82 -211.89,983.33 768.13,1.12 1536.24,4.43 2304.36,9.93 -66.22,297.98 -132.44,595.95 -198.65,893.93 -1200.71,8.81 -2401.48,8.81 -3602.21,0 334.99,-1549.15 668.28,-3098.62 999.88,-4648.44z"/>
   </g>
   <g>
    <path class="fil0" d="M13859.25 4999.4c871.88,-1.11 1743.7,0 2615.58,3.31 235.73,-6.69 463.12,33.04 682.04,119.19 274.73,138.32 423.72,362.35 446.96,672.1 17.15,832.55 -381.28,1334.74 -1195.22,1506.44 -72.38,15.82 -145.21,29.07 -218.52,39.73 -9.34,2.45 -15.96,7.95 -19.87,16.55 145.68,6.75 289.11,27.68 430.41,62.91 249.9,65.89 385.65,228.12 407.23,486.7 6.75,66.02 10.07,132.23 9.93,198.65 -14.9,322.34 -31.45,644.56 -49.66,966.77 -6.29,187.86 -4.1,375.45 6.62,562.85 951.87,-1535.11 1902.09,-3071.36 2850.65,-4608.71 536.36,-6.62 1072.72,-8.83 1609.08,-6.62 284.4,1545.54 571.32,3090.62 860.82,4635.2 -494.44,2.18 -988.89,0 -1483.26,-6.62 -43.57,-306.52 -85.49,-613.3 -125.81,-920.42 -629.06,-2.18 -1258.13,0 -1887.19,6.62 -173.02,305.19 -345.19,610.85 -516.49,917.11 -911.61,3.31 -1823.16,4.43 -2734.77,3.31 -1.32,-121.51 1.99,-242.95 9.93,-364.19 31.12,-353.07 60.92,-706.21 89.39,-1059.48 3.77,-92.5 -17.15,-178.59 -62.91,-258.25 -42.97,-51.85 -97.07,-86.08 -162.23,-102.64 -56.75,-13.11 -114.09,-21.99 -172.16,-26.49 -112.57,-1.13 -225.14,-2.18 -337.71,-3.31 -115.15,0.07 -228.78,4.44 -341.02,13.24 -130.38,600.19 -259.51,1200.58 -387.37,1801.11 -441.47,2.18 -882.94,0 -1324.34,-6.62 335.39,-1549.08 668.66,-3098.54 999.88,-4648.44zm1138.93 860.82c253.94,-2.49 507.75,0.82 761.5,9.93 95.22,4.83 187.92,22.49 278.11,52.97 152.36,65.06 229.57,180.94 231.76,347.64 -31.39,471.8 -283.01,711.24 -754.88,718.46 -251.63,3.31 -503.25,4.43 -754.88,3.31 79.46,-377.44 158.92,-754.88 238.38,-1132.31zm5363.59 72.84c6.62,0 13.24,0 19.86,0 60.92,644.6 122.7,1289.11 185.41,1933.54 -423.79,1.12 -847.58,0 -1271.37,-3.31 359.76,-641.12 715.08,-1284.52 1066.1,-1930.23z"/>
   </g>
   <g>
    <path class="fil0" d="M27122.55 4999.4c0,11.04 0,22.07 0,33.11 -63.7,285.75 -125.48,572.68 -185.41,860.82 -750.44,0 -1500.94,0 -2251.38,0 -68.4,322.25 -136.87,644.51 -205.27,966.77 704.09,0 1408.24,0 2112.33,0 -60.59,296.45 -124.62,592.24 -192.03,887.31 -706.27,6.62 -1412.61,8.81 -2118.95,6.62 -70.12,330.76 -138.53,661.84 -205.27,993.26 765.94,0 1531.8,0 2297.74,0 -64.1,301.89 -130.32,603.17 -198.65,903.87 -1200.72,4.43 -2401.5,4.43 -3602.22,0 336.25,-1549.81 669.52,-3100.39 999.88,-4651.75 1183.1,0 2366.14,0 3549.24,0z"/>
   </g>
   <g>
    <path class="fil0" d="M8184.44 10614.61c2858.4,0 5716.73,0 8575.13,0 -104.23,527.88 -210.17,1055.37 -317.84,1582.59 -2858.4,6.62 -5716.73,8.81 -8575.13,6.62 105.09,-529.94 211.03,-1059.67 317.84,-1589.21z"/>
   </g>
   <g>
    <path class="fil0" d="M15918.61 14660.48c-2858.4,0 -5716.73,0 -8575.12,0 105.09,-529.94 211.03,-1059.67 317.84,-1589.21 2858.39,0 5716.73,0 8575.12,0 -103.43,530.27 -209.38,1060 -317.84,1589.21z"/>
   </g>
  </g>
 </g>
</svg>
