<?xml version="1.0" encoding="UTF-8"?>
<!DOCTYPE svg PUBLIC "-//W3C//DTD SVG 1.1//EN" "http://www.w3.org/Graphics/SVG/1.1/DTD/svg11.dtd">
<!-- Creator: CorelDRAW -->
<svg xmlns="http://www.w3.org/2000/svg" xml:space="preserve" width="300.266mm" height="84.3146mm" version="1.1" style="shape-rendering:geometricPrecision; text-rendering:geometricPrecision; image-rendering:optimizeQuality; fill-rule:evenodd; clip-rule:evenodd"
viewBox="0 0 874.2 245.47"
 xmlns:xlink="http://www.w3.org/1999/xlink"
 xmlns:xodm="http://www.corel.com/coreldraw/odm/2003">
 <defs>
  <style type="text/css">
   <![CDATA[
    .fil1 {fill:white}
    .fil0 {fill:white;fill-rule:nonzero}
   ]]>
  </style>
 </defs>
 <g id="Camada_x0020_1">
  <metadata id="CorelCorpID_0Corel-Layer"/>
  <g id="_2643869611296">
   <path class="fil0" d="M776.17 73.91l0 29.34 -2.21 0c-0.71,-5.64 -2,-10.12 -3.86,-13.45 -1.86,-3.33 -4.51,-5.98 -7.96,-7.94 -3.43,-1.96 -6.98,-2.95 -10.66,-2.95 -4.17,0 -7.6,1.32 -10.31,3.97 -2.72,2.65 -4.08,5.68 -4.08,9.05 0,2.58 0.86,4.95 2.57,7.09 2.49,3.12 8.37,7.3 17.69,12.51 7.6,4.27 12.78,7.54 15.56,9.8 2.78,2.28 4.92,4.95 6.41,8.05 1.49,3.1 2.25,6.32 2.25,9.72 0,6.43 -2.39,11.96 -7.15,16.61 -4.78,4.65 -10.93,6.98 -18.42,6.98 -2.37,0 -4.57,-0.19 -6.66,-0.58 -1.25,-0.21 -3.8,-0.98 -7.7,-2.31 -3.88,-1.32 -6.35,-1.99 -7.39,-1.99 -1,0 -1.8,0.32 -2.37,0.94 -0.57,0.64 -1,1.94 -1.29,3.93l-2.21 0 0 -29.08 2.21 0c1.04,6.09 2.43,10.65 4.19,13.67 1.76,3.03 4.45,5.55 8.07,7.54 3.61,2.01 7.58,3.01 11.89,3.01 4.98,0 8.94,-1.39 11.82,-4.14 2.9,-2.78 4.35,-6.04 4.35,-9.8 0,-2.09 -0.55,-4.21 -1.63,-6.34 -1.1,-2.14 -2.8,-4.12 -5.11,-5.98 -1.55,-1.26 -5.82,-3.91 -12.78,-7.96 -6.96,-4.04 -11.93,-7.28 -14.87,-9.69 -2.94,-2.41 -5.19,-5.1 -6.7,-8.01 -1.53,-2.93 -2.29,-6.15 -2.29,-9.65 0,-6.09 2.25,-11.34 6.72,-15.74 4.47,-4.4 10.19,-6.6 17.09,-6.6 4.33,0 8.9,1.11 13.74,3.31 2.25,1.05 3.82,1.56 4.74,1.56 1.04,0 1.9,-0.32 2.55,-0.96 0.65,-0.66 1.18,-1.94 1.59,-3.91l2.21 0z"/>
   <path class="fil1" d="M444.2 181.92l345.25 0c0.96,0 1.74,0.78 1.74,1.74l0 0c0,0.96 -0.78,1.74 -1.74,1.74l-345.25 0c-0.96,0 -1.74,-0.78 -1.74,-1.74l0 0c0,-0.96 0.78,-1.74 1.74,-1.74z"/>
   <path class="fil1" d="M487.22 245.47c12.75,0 23.19,-9.87 24.04,-22.36l-23.94 0c0,1.12 0,2.35 0,3.56l19.62 0c-2.31,8.7 -10.26,15.11 -19.71,15.11 -11.26,0 -20.39,-9.09 -20.39,-20.31 0,-11.22 9.13,-20.31 20.39,-20.31 8.57,0 15.9,5.26 18.92,12.72l3.95 0c-3.19,-9.53 -12.22,-16.41 -22.87,-16.41 -13.31,0 -24.1,10.75 -24.1,24 0,13.26 10.79,24 24.1,24z"/>
   <path class="fil1" d="M541.89 202.11l0 42.38c1.07,0 2.32,0 3.71,0l0 -18.78 6.64 0 13.76 18.78c1.85,0 3.71,0 5.55,0l-14.17 -18.72 -0.04 -0.06 0.57 0c14.59,-1.75 16.13,-16.24 8.43,-23.6 -1.88,-1.79 -4.31,-3.16 -7.24,-3.82l-0.61 0 -12.88 0 -3.71 0 0 3.82zm3.71 19.78l0 -19.78 13.28 0c8.16,1.17 9.44,9.26 7.11,14.33 -1.18,2.57 -2.74,4.19 -5.47,5.06 -0.79,0.25 -1.62,0.35 -2.27,0.39 -0.71,0.04 -1.21,0 -1.21,0l-11.43 0z"/>
   <path class="fil1" d="M622.9 197.47c-13.31,0 -24.1,10.75 -24.1,24 0,13.26 10.79,24 24.1,24 13.31,0 24.1,-10.75 24.1,-24 0,-13.26 -10.79,-24 -24.1,-24zm-20.39 24c0,-11.22 9.13,-20.31 20.39,-20.31 11.26,0 20.39,9.09 20.39,20.31 0,11.22 -9.13,20.31 -20.39,20.31 -11.26,0 -20.39,-9.09 -20.39,-20.31z"/>
   <path class="fil1" d="M706.29 213.47l0 13.34c-0.32,4.47 0.84,6.15 -2.22,9.8 -4.06,4.84 -11.73,5.34 -17.33,2.42 -3.55,-1.85 -5.53,-4.93 -5.65,-8.15l0 -17.73 0 -4.12 0 -10.71 -4.83 0 0 31.33c0,4.74 1.75,8.15 5.33,11.25 8.63,7.47 23.95,5.68 28.37,-5.48 1.62,-4.08 1.17,-8.4 1.17,-12.7l0 -24.4 -4.83 0 0 11.16 0 3.97z"/>
   <path class="fil1" d="M742.45 197.7l0 46.86 4.54 0 0 -18.44c8.71,0.19 13.58,0.08 16.94,-1.33 4.64,-1.94 7.97,-7.38 7.93,-12.31 -0.13,-14.87 -13.4,-14.78 -13.4,-14.78l-11.46 0 -4.54 0zm4.54 23.86l0 -19.43 13.05 0c9.67,1.48 12.32,19.43 -4.3,19.43 -3.91,0 -8.75,0 -8.75,0z"/>
   <polygon class="fil1" points="0.26,0.24 171.61,0.24 85.75,118.11 "/>
   <polygon class="fil1" points="-0,243.22 171.35,243.22 85.49,125.35 "/>
   <polygon class="fil1" points="89.61,121.6 176.5,0.78 176.48,242.34 "/>
   <path class="fil0" d="M426.12 83.01l-0.05 30.06 17.4 0c9.59,0 11.15,-3.46 12.75,-3.46l-0.94 19.31 -2.15 0c-1.46,-9.33 -3.51,-9.69 -9.49,-9.69l-17.4 0 0.18 31.06c0,0.87 1.63,3.22 2.4,3.7 4.26,2.64 10.92,2.64 16.01,2.39 14.05,-0.67 12.67,-5.89 14.48,-11.33l1.59 -0.32 -0.79 12.86c-0.11,2.76 -1.17,4.41 -3.13,4.97l-56.46 0 0 -2.31 2.8 0c6.13,0 7.19,-6.47 7.24,-11.95 0.08,-8.42 0.21,-61.09 -0.97,-67.84 -1.4,-1.68 -3.73,-2.5 -7.01,-2.5l-2.8 0 0 -2.31 51.13 0.95 6.81 -1.65 -0.64 17.23 -2.26 0c-0.81,-4.51 -2.61,-9.01 -5.06,-9.03l-23.64 -0.16z"/>
   <path class="fil0" d="M514.09 160.16l0 2.31 -38.15 0 0 -2.31 2.88 0c6.81,0 7.24,-8.61 7.19,-13.49l-0.66 -63.78c-0.03,-2.86 -2.41,-4.66 -6.53,-4.66l-2.88 0 0 -2.31 34.8 0 0 2.31 -1.51 0.03c-3.31,0.07 -5.99,2.26 -7.23,4.66 -0.77,1.49 -1.03,4.51 -0.99,9.59l0.44 55.2c0.05,6.46 0.09,12.53 7.78,12.48l4.86 -0.03z"/>
   <path class="fil0" d="M602.97 75.83l0.99 20.23 -2.63 0c-0.52,-3.55 -1.21,-6.1 -2.08,-7.62 -1.44,-2.45 -3.34,-4.26 -5.73,-5.41 -2.39,-1.17 -5.51,-1.75 -9.39,-1.75l-13.25 0 0 65.7c0,5.3 0.62,8.61 1.87,9.93 1.75,1.77 4.45,2.66 8.09,2.66l3.24 0 0 2.34 -40.04 0 0 -2.34 3.38 0c4.02,0 6.86,-1.1 8.57,-3.31 1.02,-1.36 1.54,-4.46 1.54,-9.28l0 -65.7 -11.29 0c-4.4,0 -7.52,0.3 -9.37,0.89 -2.41,0.8 -4.45,2.34 -6.18,4.63 -1.7,2.27 -2.72,5.37 -3.05,9.26l-2.63 0 0.99 -20.23 76.95 0z"/>
   <path class="fil0" d="M661.99 73.91c12.84,0 23.99,4.18 33.39,12.56 9.43,8.37 14.14,18.81 14.14,31.34 0,12.9 -4.74,23.59 -14.24,32.11 -9.48,8.52 -20.97,12.77 -34.46,12.77 -13.62,0 -25.06,-4.16 -34.34,-12.47 -9.28,-8.31 -13.92,-19.05 -13.92,-32.24 0,-13.47 5.36,-24.47 16.06,-32.99 9.3,-7.39 20.42,-11.08 33.37,-11.08zm-1.4 4.48c-8.83,0 -15.94,2.82 -21.27,8.46 -6.66,7.02 -10,17.3 -10,30.83 0,13.86 3.44,24.53 10.35,32.01 5.31,5.68 12.29,8.52 21,8.52 9.3,0 16.96,-3.12 23.02,-9.33 6.06,-6.23 9.08,-16.04 9.08,-29.44 0,-14.54 -3.34,-25.39 -10,-32.52 -5.34,-5.68 -12.72,-8.52 -22.17,-8.52z"/>
   <path class="fil0" d="M843.22 132.46l-31.45 0 -5.43 13.3c-1.35,3.29 -2.04,5.77 -2.04,7.39 0,1.28 0.59,2.43 1.78,3.42 1.16,0.96 3.72,1.6 7.62,1.9l0 2.31 -25.61 0 0 -2.31c3.39,-0.62 5.58,-1.43 6.58,-2.43 2.04,-2.01 4.29,-6.09 6.76,-12.21l28.57 -69.91 2.02 0 28.24 70.65c2.27,5.68 4.33,9.35 6.19,11.06 1.86,1.69 4.43,2.63 7.76,2.84l0 2.31 -32.02 0 0 -2.31c3.23,-0.17 5.41,-0.73 6.56,-1.69 1.14,-0.96 1.69,-2.14 1.69,-3.52 0,-1.84 -0.8,-4.74 -2.39,-8.71l-4.82 -12.09zm-1.82 -4.61l-13.68 -34.27 -14.05 34.27 27.73 0z"/>
   <path class="fil1" d="M278.35 108.53c36.69,-28.29 28.69,-77.33 -13.89,-95.83 9.92,2.28 40.1,9.25 45.81,40.29l61.66 0 0.24 9.71c0,0 -6.84,-7.19 -17.2,-7.4 -10.36,-0.21 -29.27,-0.13 -29.27,-0.13l0 82.77 25.76 0c0,0 6.86,-0.66 8.41,-3.57 -0.03,10.58 -0.03,10.58 -0.03,10.58 0,0 -3.14,-3.99 -14.29,-3.49 -11.15,0.5 -19.86,0.44 -19.86,0.44l0.91 82.54c0,0 6.03,5.88 13.65,9.21 -0.11,1.22 -0.11,1.22 -0.11,1.22 0,0 -19.61,-4.18 -26.75,-11.08 -7.14,-6.9 -23.58,-35.61 -28.12,-43.86 -11.81,-21.47 -23.12,-47.89 -49.38,-53.85 0.23,-3.67 0.23,-3.67 0.23,-3.67 0,0 28.86,-3.6 42.2,-13.88zm57.85 21.59l-0.32 -66.8c0,0 7.58,-0.23 21.25,0 11.86,2.48 13.26,31.18 13.26,31.18l12.43 0 -0.99 -49.95c0,0 -58.98,0.47 -62.85,0.47 -23.65,-52.58 -91.53,-46.2 -140.21,-42.88 81.04,7.47 96.98,24.65 107.61,44.21 10.63,19.56 1.01,37.19 1.01,37.19 0,0 -3.05,8.75 -15.8,19.32 -12.75,10.58 -45.92,12.65 -45.92,12.65 0,0 0,0 0.14,17.86 37.25,-3.85 51.23,73.76 85.37,99.94 5.1,3.91 13.52,6.62 22.61,8.04 16.61,2.61 34.8,1.8 34.8,1.8 0,0 -0.06,0 -0.06,-13.02 -20.55,2.15 -31.82,-10.04 -31.82,-10.04l-0.77 -70.54c0,0 5.67,-0.12 14.01,-0.12 8.34,0 7.22,26.66 7.22,26.66l13.14 0 -0.25 -72.87c0,0 -0.44,-0.13 -12.56,0.19 0.06,18.49 -6.94,26.66 -6.94,26.66l-14.35 0.04z"/>
   <path class="fil1" d="M309.67 70.17c3.71,29.66 -30.14,51.39 -56.29,55.38 0,0 12.85,10.87 21.81,23.41 8.96,12.54 18.97,33.62 23.18,42.47 4.22,8.85 21.72,33.11 21.72,33.11l-0.53 -154.6c0,0 0,0.2 -9.9,0.23zm0.07 34.04l0.21 87.41c0,0 -23.37,-50.13 -38.6,-62.56 0.93,-1.55 28.61,-9.02 38.39,-24.84z"/>
  </g>
 </g>
</svg>
