<?xml version="1.0" encoding="UTF-8"?>
<!DOCTYPE svg PUBLIC "-//W3C//DTD SVG 1.1//EN" "http://www.w3.org/Graphics/SVG/1.1/DTD/svg11.dtd">
<!-- Creator: CorelDRAW -->
<svg xmlns="http://www.w3.org/2000/svg" xml:space="preserve" width="475.695mm" height="101.233mm" version="1.1" style="shape-rendering:geometricPrecision; text-rendering:geometricPrecision; image-rendering:optimizeQuality; fill-rule:evenodd; clip-rule:evenodd"
viewBox="0 0 2064.86 439.43"
 xmlns:xlink="http://www.w3.org/1999/xlink"
 xmlns:xodm="http://www.corel.com/coreldraw/odm/2003">
 <defs>
  <style type="text/css">
   <![CDATA[
    .str0 {stroke:white;stroke-width:0.87;stroke-miterlimit:22.9256}
    .fil0 {fill:#FEFEFE}
    .fil1 {fill:white}
   ]]>
  </style>
 </defs>
 <g id="Camada_x0020_1">
  <metadata id="CorelCorpID_0Corel-Layer"/>
  <path class="fil0" d="M763.23 334.66c18.69,-7.41 24.5,-40.46 32.02,-60.45 8.56,-22.76 16.49,-44.63 25.04,-67.39 8.03,-21.37 19.5,-47.7 25.56,-68.81 8.12,-28.29 -17.65,-51.17 -43.51,-37.74 -14.29,7.42 -23.11,43.65 -30.16,62.39 -7.7,20.48 -18.3,45.23 -24.44,65.8 -5.18,-6.59 -17.82,-44.33 -22.12,-56.24 -7.68,-21.31 -10.28,-41.61 -35.79,-40.88 -24.66,0.7 -28.2,22.64 -35.58,43.18 -3.49,9.7 -6.91,18.75 -10.57,28.8 -2.78,7.64 -6.58,21.12 -11.75,26.88 -8.15,-22.06 -16.87,-45.83 -25.21,-68.89 -7.96,-22.03 -16.36,-55.1 -30.88,-61.66 -27.16,-12.29 -50.51,11.7 -41.67,39.84l50.63 136.17c7.69,20.46 13.07,52.62 33.1,59.47 51.55,17.64 49.76,-79.8 71.58,-111.39 6.92,23.49 16.46,47.01 24.37,70.37 7.21,21.29 16.07,53.76 49.37,40.56z"/>
  <path class="fil0" d="M1190.42 149.89c39.69,-10.36 67.97,19.38 73.13,52.62 14.67,94.57 -103,113.43 -116.71,28.59 -6.41,-39.62 12.84,-73.18 43.59,-81.2zm71.67 -36.08c-19.34,-11.4 -31.82,-20.36 -60.93,-21.5 -24.06,-0.94 -46.33,6.13 -62.4,17.97 -35.43,26.11 -51.91,62.88 -51.15,109.56 2,121.7 127.6,146.99 173.9,96.33l4.16 4.38c27.16,33.52 53,8.84 56.37,-7.39 2.35,-11.32 1.79,-192.83 -0.97,-201.3 -7.69,-23.6 -36.93,-23.47 -49.21,-12.01 -5.26,4.91 -4.9,9.18 -9.77,13.97z"/>
  <path class="fil0" d="M922.59 120.9c-0.05,-17.35 2.08,-80.75 -1.63,-92.88 -7.95,-25.95 -45.98,-26.93 -56.1,-2.84 -3.82,9.08 -3.93,241.73 -2.55,279.36 1.3,35.43 39.53,40.89 53.74,21.65 20.26,-27.41 -10.28,-139.82 20.22,-166.6 17.23,-15.13 56.1,-18.07 66.88,6.51 17.75,40.47 -13.32,151.01 21.12,167.61 13.35,6.43 28.91,1.47 36.29,-6.58 9.17,-10.01 7.93,-20.97 7.89,-36.44 -0.22,-85.17 19.08,-203.3 -83.69,-198.38 -19.76,0.95 -36.18,8.75 -50.88,19.65 -4.08,3.02 -6.23,6.77 -11.28,8.94z"/>
  <path class="fil0" d="M1942.77 187.2l-103.93 0c13.2,-55.82 95.69,-49.35 103.93,0zm-104.13 51.82c109.34,-5.97 193.15,27.9 162.07,-65.48 -7.71,-23.18 -19.35,-36.84 -32.57,-50.06 -62.05,-62.08 -176.13,-28.21 -189.42,74.49 -14.77,114.15 87.69,165.34 168.72,134.95 77.64,-29.12 37.94,-85.22 -2.97,-60.01 -41.98,25.88 -96.24,8.9 -105.84,-33.88z"/>
  <path class="fil0" d="M1666.62 280.89c12.98,-20 98.41,-125.72 103.19,-135.46 8.33,-17 4.12,-43.97 -27.77,-44.61 -25.98,-0.52 -52.67,0.06 -78.74,0.06 -21.82,0 -57.8,-5.61 -71.43,8.24 -16.43,16.69 -6.08,44.29 16.66,47.25 20.03,2.61 57.18,0.38 79.04,0.4 -14.24,23.19 -98.9,123.8 -104.11,138.68 -9.9,28.29 7.89,41.44 34.59,41.36 26.88,-0.07 53.77,-0.05 80.65,-0.05 22.89,0 59.74,5.07 71.76,-9.71 16.19,-19.9 1.95,-45.49 -24.46,-46.2 -26.05,-0.7 -53.21,0.05 -79.39,0.03z"/>
  <path class="fil0" d="M1374.77 99.29c-7.85,3.27 -44.33,-2.81 -43.56,30.04 0.74,31.76 36.15,26.72 44.14,28.41 0,33.17 0.03,66.33 -0,99.5 -0.04,33.21 3.81,60.47 28.75,72.33 25.06,11.91 64.64,8.68 78.97,-8.72 9.28,-11.28 6.91,-29.56 -3.43,-37.35 -15.15,-11.42 -42.6,13.3 -44.1,-14.43l0.07 -111.68c27.17,-3.42 54.6,3.6 55,-27.99 0.46,-36.04 -41.73,-27.57 -54.02,-28.97 -2.63,-10.62 6.37,-53.93 -30.95,-53.66 -37.59,0.28 -28.86,43.53 -30.87,52.52z"/>
  <path class="fil0" d="M1510 314.27c4.21,19.18 29.75,29.51 47.78,16.44 15.89,-11.52 11.51,-39.76 11.51,-63.64 0,-21.32 1.51,-135.7 -0.91,-147.07 -4.15,-19.52 -29.78,-32.5 -47.74,-17.19 -16.33,13.92 -11.61,38.19 -11.61,63.96 0,21.34 -1.51,136.18 0.97,147.51z"/>
  <path class="fil0" d="M1524.42 18.92c-23,7.06 -17.93,35.84 -14.79,44.02 9.04,23.56 78.07,21.21 59.27,-31.75 -5.33,-15.02 -27.79,-17.4 -44.48,-12.27z"/>
  <path class="fil0" d="M2013.47 22.47c45.98,-9.48 53.44,63.71 13.17,71 -45.9,8.32 -57.71,-61.82 -13.17,-71zm-7.31 -7.46c-58.47,19.8 -30.01,102.33 26.69,86.65 57.04,-15.77 31.47,-106.35 -26.69,-86.65z"/>
  <path class="fil0" d="M2013.07 42.01l14.31 2.7 0.19 9.2 -14.15 2.04 -0.36 -13.94zm8.88 22.35c6.44,4.48 4.95,9.01 8.41,16.6l9.77 0.53c-1.28,-10.65 -4.15,-17.56 -9.11,-23.21 16.93,-8.48 8.32,-29.21 -25.5,-22.5 -4.68,11.02 -1.98,31.9 -1.98,44.61l7.9 -0.02 1.95 -17.6 8.56 1.59z"/>
  <path class="fil1 str0" d="M192.18 343.46c-4.67,-10.82 38.3,-106.6 35.55,-127.9 -15.15,-4.6 -57.89,0.32 -78.48,-2.06 -0.55,-7.35 7.54,-15.4 15.34,-23.21l120.81 -134.86c4.1,-4.97 3.46,-7.45 9.87,-7.45 0.77,8.12 -24.3,78.8 -28.9,92.68 -10.19,30.78 -6.4,24.59 26.11,24.61 16.27,0.01 47.27,-1.74 61.76,0.76 2.11,8.52 -29.06,38.66 -36.29,45.89l-81.76 89.34c-6.12,7.11 -34.33,41.38 -44.01,42.2zm-4.99 20.53l164.04 0c0,0 83.88,2.17 123.65,-72.21 0,0 9.24,-15.85 16.03,-40.98 6.79,-25.13 3.74,-98.16 3.74,-98.16 0,0 3.51,-32.96 -9.89,-64.44 -13.4,-31.49 -48.24,-80.39 -115.23,-87.09 -69.9,0 -235.6,-0.67 -235.6,-0.67 0,0 -101.89,2.85 -128.76,105.33 -4.43,30.72 -3.84,36.92 -3.84,62.61 0,25.69 -3.54,57.3 3.54,81.51 7.09,24.22 12.91,66.65 76.01,98.89 0.19,34.01 1.08,81.27 1.08,81.27 0,0 1.34,12.16 17.1,8.13 20.89,-17.35 88.15,-74.19 88.15,-74.19z"/>
 </g>
</svg>
