<?xml version="1.0" encoding="UTF-8"?>
<!DOCTYPE svg PUBLIC "-//W3C//DTD SVG 1.1//EN" "http://www.w3.org/Graphics/SVG/1.1/DTD/svg11.dtd">
<!-- Creator: CorelDRAW -->
<svg xmlns="http://www.w3.org/2000/svg" xml:space="preserve" width="271.854mm" height="97.8526mm" version="1.1" style="shape-rendering:geometricPrecision; text-rendering:geometricPrecision; image-rendering:optimizeQuality; fill-rule:evenodd; clip-rule:evenodd"
viewBox="0 0 7340.38 2642.13"
 xmlns:xlink="http://www.w3.org/1999/xlink"
 xmlns:xodm="http://www.corel.com/coreldraw/odm/2003">
 <defs>
  <style type="text/css">
   <![CDATA[
    .str0 {stroke:white;stroke-width:2.06;stroke-miterlimit:22.9256}
    .fil1 {fill:white}
    .fil0 {fill:white;fill-rule:nonzero}
   ]]>
  </style>
 </defs>
 <g id="Camada_x0020_1">
  <metadata id="CorelCorpID_0Corel-Layer"/>
  <path class="fil0" d="M3194.41 2109.57c6.3,0.2 15.22,0.62 26.75,1.34 11.53,0.72 21.08,1.13 28.73,1.13 11.89,0 25.94,-0.31 42.25,-0.83 16.21,-0.51 28.65,-0.82 37.29,-1.03 -0.36,6.59 -0.54,16.49 -0.54,29.67 0.36,1.24 0.54,2.89 0.54,4.95 -34.32,-3.29 -60.98,-4.95 -80.08,-4.95 -0.36,9.48 -0.54,23.49 -0.54,42.14 0,4.95 -0.09,12.26 -0.27,22.15 -0.18,9.89 -0.27,17.21 -0.27,22.15l79.99 -2.99c-1.44,8.24 -2.16,14.43 -2.16,18.55 0,3.61 0.72,8.76 2.16,15.46 -23.33,-2.07 -44.23,-3.09 -62.69,-3.09 -1.8,0 -4.6,-0.1 -8.47,-0.31 -3.87,-0.21 -6.85,-0.31 -8.83,-0.31l0 51.42 0 50.48c21.62,0 48.73,-1.75 81.16,-5.36 -0.36,6.49 -0.54,16.38 -0.54,29.57 0.36,1.24 0.54,2.89 0.54,4.95 -7.03,-0.2 -17.57,-0.62 -31.71,-1.34 -14.05,-0.72 -24.59,-1.03 -31.62,-1.03 -4.68,0 -11.62,0.1 -20.99,0.52 -9.28,0.41 -16.13,0.62 -20.54,0.62 -6.49,0 -16.93,0.42 -31.35,1.24 0.27,-2.47 0.45,-6.39 0.63,-11.64 0.18,-5.15 0.36,-8.86 0.54,-11.33 0.18,-7.63 0.45,-19.88 0.9,-36.89 0.45,-17 0.63,-29.77 0.63,-38.33 0,-6.6 0.09,-16.69 0.27,-30.19 0.18,-13.6 0.27,-23.8 0.27,-30.5l0 -46.98c0,-6.9 -0.27,-17.52 -0.9,-31.84 -0.63,-14.22 -0.99,-24.83 -1.17,-31.84l0 -5.56zm167.81 82.83c12.34,0.83 21.17,1.24 26.57,1.24 4.41,0 11.98,-0.41 22.7,-1.24l-1.08 29.06c16.22,-22.25 34.05,-33.38 53.42,-33.38 17.3,0 31.89,7.42 43.87,22.36 5.13,7.21 8.29,15.35 9.55,24.32 1.17,9.07 1.71,20.5 1.71,34.31l0 48.94 0 66.66c-3.06,-0.2 -7.66,-0.51 -13.78,-1.03 -6.22,-0.51 -10.9,-0.82 -14.32,-0.82 -2.61,0 -6.58,0.31 -11.98,0.82 -5.31,0.52 -9.28,0.83 -11.71,1.03 0.18,-1.85 0.27,-3.4 0.36,-4.84 0.09,-1.44 0.27,-3.2 0.45,-5.25 0.18,-2.17 0.27,-3.92 0.36,-5.36 0.09,-1.44 0.18,-3.3 0.36,-5.56 0.36,-5.15 0.72,-12.98 0.99,-23.18 0.27,-10.3 0.45,-18.03 0.63,-23.08 0,-3.4 0.09,-8.04 0.36,-14.11 0.18,-5.87 0.27,-11.33 0.27,-16.28 0,-18.96 -1.62,-34.52 -4.95,-46.67 -3.33,-12.16 -11.44,-18.24 -24.32,-18.24 -12.97,0 -21.26,6.39 -24.86,19.27 -3.51,12.78 -5.31,30.5 -5.31,53.06 0,6.7 0.09,15.97 0.27,27.61 0.18,11.64 0.45,23.39 0.81,35.03 0.27,11.64 0.45,20.92 0.54,27.61 -2.88,-0.2 -7.11,-0.51 -12.7,-1.03 -5.68,-0.51 -9.91,-0.82 -12.7,-0.82 -2.7,0 -6.85,0.31 -12.43,0.82 -5.49,0.52 -9.91,0.83 -13.06,1.03 0,-2.27 0.18,-5.66 0.54,-10.4 0.36,-4.74 0.54,-8.24 0.54,-10.61 0,-5.56 0.18,-13.5 0.63,-23.69 0.36,-10.1 0.54,-18.96 0.54,-26.38l0 -45.75 0 -16.07c0,-7.62 -0.27,-16.49 -0.72,-26.79 -0.45,-10.3 -0.81,-18.55 -0.99,-24.52l-0.54 -8.04zm218.44 236.15c0,14.84 4.6,25.96 13.69,33.69 9.1,7.62 20.27,11.44 33.42,11.44 13.51,0 23.87,-4.54 31.26,-13.6 3.15,-3.82 5.85,-8.76 8.29,-14.73 2.43,-6.08 3.6,-11.44 3.6,-16.18 0,-17.21 -4.33,-28.02 -13.06,-32.35 -8.65,-4.43 -21.62,-6.59 -38.73,-6.59 -10.45,0 -18.65,1.44 -24.68,4.43 -6.13,2.99 -10.09,9.37 -12.07,19.06 -1.08,3.29 -1.71,8.24 -1.71,14.83zm95.12 -222.55c12.7,12.67 19.01,27.72 19.01,45.13 0,10.82 -2.16,21.12 -6.57,30.7 -4.41,9.59 -10.54,17.31 -18.38,23.19 -10.99,7.21 -27.38,11.33 -49.18,12.26 -8.29,0 -13.42,0.82 -15.59,2.37 -2.88,4.02 -4.32,7.52 -4.32,10.61 0,6.39 2.16,11.75 6.48,16.07 3.06,1.75 5.23,2.89 6.4,3.19 3.33,1.54 8.56,2.37 15.76,2.37l30.18 1.23c16.94,0 29.37,4.33 37.38,12.98 9.37,10.1 14.05,22.87 14.05,38.33 0,18.96 -4.32,34.82 -12.97,47.7 -8.65,12.88 -20,22.46 -34.05,28.75 -14.05,6.29 -29.19,9.48 -45.4,9.48 -18.02,0 -34.14,-4.23 -48.37,-12.78 -14.23,-8.45 -21.26,-22.15 -21.26,-41.01 0,-10.2 2.52,-19.37 7.66,-27.4 5.13,-7.94 12.16,-13.7 20.9,-17.1 2.16,-1.65 3.97,-3.3 5.41,-4.95l-2.7 -1.86c-11.53,-4.43 -17.3,-14.32 -17.3,-29.77 0,-8.45 3.06,-16.28 9.19,-23.39 6.22,-7.21 13.06,-12.15 20.63,-14.83 0.27,0 0.72,-0.11 1.26,-0.42 0.54,-0.2 0.99,-0.31 1.35,-0.31l0.54 -2.99c-29.91,-8.04 -44.86,-29.37 -44.86,-64.29 0,-10 2.52,-19.78 7.48,-29.26 5.04,-9.58 11.53,-16.89 19.55,-22.05 12.07,-7.01 29.19,-10.51 51.35,-10.51l36.12 1.23 42.7 0 -0.45 6.19 0 12.36 -31.98 -1.24zm-52.87 95.82c15.49,0 23.24,-17.72 23.24,-53.16 0,-11.34 -1.62,-21.84 -4.77,-31.43 -3.24,-9.58 -9.01,-14.32 -17.38,-14.32 -15.86,0 -23.78,17.72 -23.78,53.17 0,11.43 1.71,21.94 5.14,31.42 3.42,9.58 9.28,14.32 17.57,14.32zm209.79 -32.14c-0.18,-1.03 -0.27,-2.58 -0.27,-4.64 0,-2.07 -0.09,-3.61 -0.27,-4.54 -1.17,-37.6 -9.28,-56.35 -24.32,-56.35 -11.08,0 -18.46,6.39 -22.07,19.06 -3.69,12.77 -6.03,28.23 -7.21,46.47l54.14 0zm-54.14 19.16c0,6.39 0.36,14.12 1.17,22.88 0.63,6.29 2.61,13.5 6.03,21.64 3.33,8.14 6.94,14.11 10.63,17.93 8.2,8.24 18.64,12.36 31.35,12.36 15.13,0 28.83,-5.98 41.08,-17.93l4.32 3.71 -7.48 22.25c-15.13,11.95 -31.89,17.93 -50.26,17.93 -15.13,0 -28.01,-2.17 -38.46,-6.39 -10.54,-4.33 -20.45,-12.26 -29.64,-23.9 -13.42,-17.31 -20.09,-42.25 -20.09,-74.9 0,-18.75 3.15,-35.55 9.46,-50.38 6.39,-14.74 15.67,-26.27 27.92,-34.62 12.16,-8.35 26.66,-12.57 43.24,-12.57 16.31,0 29.82,3.81 40.72,11.34 10.9,7.52 18.83,17.93 23.96,31.32 5.13,13.29 7.65,28.74 7.65,46.36 0,5.77 -0.18,10.1 -0.54,12.98l-101.07 0zm130.16 -96.44c12.34,0.83 21.17,1.24 26.57,1.24 4.41,0 11.98,-0.41 22.7,-1.24l-1.08 29.06c16.22,-22.25 34.05,-33.38 53.42,-33.38 17.29,0 31.89,7.42 43.87,22.36 5.13,7.21 8.29,15.35 9.55,24.32 1.17,9.07 1.71,20.5 1.71,34.31l0 48.94 0 66.66c-3.06,-0.2 -7.66,-0.51 -13.78,-1.03 -6.22,-0.51 -10.9,-0.82 -14.32,-0.82 -2.61,0 -6.58,0.31 -11.98,0.82 -5.31,0.52 -9.28,0.83 -11.71,1.03 0.18,-1.85 0.27,-3.4 0.36,-4.84 0.09,-1.44 0.27,-3.2 0.45,-5.25 0.18,-2.17 0.27,-3.92 0.36,-5.36 0.09,-1.44 0.18,-3.3 0.36,-5.56 0.36,-5.15 0.72,-12.98 0.99,-23.18 0.27,-10.3 0.45,-18.03 0.63,-23.08 0,-3.4 0.09,-8.04 0.36,-14.11 0.18,-5.87 0.27,-11.33 0.27,-16.28 0,-18.96 -1.62,-34.52 -4.95,-46.67 -3.33,-12.16 -11.44,-18.24 -24.32,-18.24 -12.97,0 -21.26,6.39 -24.86,19.27 -3.51,12.78 -5.31,30.5 -5.31,53.06 0,6.7 0.09,15.97 0.27,27.61 0.18,11.64 0.45,23.39 0.81,35.03 0.27,11.64 0.45,20.92 0.54,27.61 -2.88,-0.2 -7.11,-0.51 -12.7,-1.03 -5.67,-0.51 -9.91,-0.82 -12.7,-0.82 -2.7,0 -6.85,0.31 -12.43,0.82 -5.49,0.52 -9.91,0.83 -13.06,1.03 0,-2.27 0.18,-5.66 0.54,-10.4 0.36,-4.74 0.54,-8.24 0.54,-10.61 0,-5.56 0.18,-13.5 0.63,-23.69 0.36,-10.1 0.54,-18.96 0.54,-26.38l0 -45.75 0 -16.07c0,-7.62 -0.27,-16.49 -0.72,-26.79 -0.45,-10.3 -0.81,-18.55 -0.99,-24.52l-0.54 -8.04zm245.01 -16.07l-0.54 43.17c6.76,-8.35 14.95,-15.77 24.59,-22.05 9.55,-6.29 18.64,-9.38 27.29,-9.38 16.48,0 30.27,6.18 41.17,18.55 9.64,10.82 14.5,27.82 14.5,51.31l0 55.02 0 50.69 0 21.02c-2.79,-0.2 -7.12,-0.51 -12.97,-1.03 -5.76,-0.51 -10.09,-0.82 -12.97,-0.82 -2.88,0 -7.21,0.31 -13.06,0.82 -5.95,0.52 -10.18,0.83 -12.88,1.03 0.18,-2.58 0.54,-6.9 0.99,-12.88 0.45,-5.87 0.63,-10.3 0.63,-13.08l1.08 -36.47c0.81,-7.93 1.17,-19.78 1.17,-35.85 0,-15.87 -0.9,-29.26 -2.79,-40.29 -1.62,-7 -4.95,-12.78 -9.82,-17.21 -4.86,-4.53 -10.45,-6.8 -16.67,-6.8 -13.06,0 -21.35,6.39 -24.95,19.16 -3.51,12.67 -5.31,30.4 -5.31,53.17 0,6.7 0.09,15.97 0.27,27.61 0.18,11.64 0.45,23.39 0.81,35.03 0.27,11.64 0.45,20.92 0.54,27.61 -2.88,-0.2 -7.03,-0.51 -12.7,-1.03 -5.68,-0.51 -9.82,-0.82 -12.7,-0.82 -2.7,0 -6.85,0.31 -12.43,0.82 -5.49,0.52 -9.82,0.83 -13.06,1.03 0.72,-11.43 1.08,-20.09 1.08,-25.96l1.71 -99.43c0,-5.25 0.09,-13.08 0.27,-23.39 0.18,-10.4 0.27,-18.34 0.27,-23.7 0,-44.3 -1.08,-87.99 -3.33,-131.06 7.75,1.65 16.66,2.47 26.57,2.47 11.89,0 20.72,-0.82 26.57,-2.47l-3.33 95.2zm184.93 155.16c0,20.61 6.3,30.91 19.01,30.91 17.2,0 25.85,-14.22 25.85,-42.65 0,-16.9 0.36,-29.67 1.08,-38.33 -7.03,3.61 -11.71,5.88 -13.96,6.8 -1.98,0.83 -4.59,1.96 -7.93,3.2 -3.24,1.24 -5.85,2.37 -7.65,3.3 -1.89,1.03 -3.69,2.27 -5.59,4.02 -7.21,6.8 -10.81,17.72 -10.81,32.76zm-33.06 -92.21l-4.23 -24.01c8.02,-8.55 17.93,-15.14 29.64,-19.68 11.8,-4.64 23.51,-6.9 35.22,-6.9 17.12,0 32.16,4.43 44.95,13.19 12.79,8.86 19.46,22.35 20,40.59l0 26.48c0,8.86 -0.18,19.26 -0.54,31.32 -0.45,11.95 -0.63,21.12 -0.63,27.4 0,10.41 0.18,18.03 0.63,22.98 0.81,8.97 3.42,14.63 8.02,17.21 3.96,0.51 7.57,0.72 10.81,0.72 1.08,0 1.62,2.06 1.62,6.08l0 3.71c-2.25,1.55 -8.02,4.23 -17.29,8.14 -6.94,1.65 -11.8,2.47 -14.5,2.47 -7.93,0 -15.05,-2.58 -21.26,-7.63 -6.12,-5.05 -10.63,-12.05 -13.51,-20.92 -4.59,9.07 -10.9,16.18 -19.1,21.33 -8.2,5.25 -16.75,7.83 -25.76,7.83 -14.95,0 -27.11,-4.53 -36.3,-13.7 -9.28,-9.17 -13.87,-22.15 -13.87,-38.85 0,-9.27 1.89,-17.93 5.59,-26.06 3.69,-8.14 8.83,-14.32 15.4,-18.44 8.19,-5.46 22.7,-11.02 43.33,-16.79 11.98,-3.3 20.45,-6.8 25.4,-10.51 2.88,-2.78 4.32,-7.93 4.32,-15.35 0,-9.38 -3.24,-17.31 -9.82,-23.7 -6.57,-6.49 -14.14,-9.68 -22.7,-9.68 -13.96,0 -26.93,6.18 -38.82,18.54 -0.72,0.82 -2.07,2.27 -3.79,4.22l-2.79 0zm275.19 6.8c-4.33,-3.6 -10.27,-5.46 -17.84,-5.46 -17.11,0 -28.01,8.86 -32.51,26.58 -1.35,7.83 -2.07,23.49 -2.07,46.98 0,26.07 0.72,49.56 2.07,70.47 -2.61,-0.2 -6.85,-0.51 -12.61,-1.03 -5.86,-0.51 -10.09,-0.82 -12.7,-0.82 -2.97,0 -7.21,0.31 -12.7,0.82 -5.4,0.52 -9.55,0.83 -12.25,1.03 1.17,-22.67 1.71,-56.46 1.71,-101.38 0,-28.43 -0.54,-58.72 -1.71,-90.87 10.18,0.83 17.75,1.24 22.7,1.24 5.41,0 13.51,-0.41 24.41,-1.24l-1.17 49.46c12.07,-35.44 31.89,-53.17 59.54,-53.17 -1.35,12.26 -2.07,21.95 -2.07,28.95 0,2.58 0.09,6.7 0.27,12.36 0.18,5.77 0.27,10.1 0.27,12.98l-3.33 3.09zm35.67 112c0.18,-4.33 0.36,-10.72 0.54,-19.16 0.18,-8.45 0.36,-14.84 0.54,-19.17 0.81,-30.6 1.17,-51 1.17,-61.2 0,-9.89 -0.18,-21.53 -0.63,-35.03 -0.54,-13.5 -0.9,-23.91 -1.08,-31.12l2.79 0c5.68,0.83 14.14,1.24 25.31,1.24 5.67,0 13.96,-0.41 24.86,-1.24l-2.16 51.93c-1.08,16.89 -1.62,42.86 -1.62,77.89 0,24.11 0.9,44.92 2.61,62.43 -2.61,-0.2 -7.21,-0.51 -13.78,-1.03 -6.49,-0.51 -11.44,-0.82 -14.78,-0.82 -2.79,0 -7.03,0.31 -12.52,0.82 -5.59,0.52 -9.64,0.83 -12.25,1.03l0.99 -26.58zm26.48 -271.38c7.65,0 14.32,3.09 19.82,9.27 5.49,6.08 8.28,13.6 8.28,22.25 0,8.65 -2.79,16.08 -8.38,22.36 -5.58,6.18 -12.16,9.27 -19.73,9.27 -7.39,0 -13.78,-3.2 -19.1,-9.58 -5.23,-6.39 -7.93,-13.7 -7.93,-22.05 0,-8.45 2.7,-15.76 7.93,-22.05 5.22,-6.28 11.62,-9.47 19.1,-9.47zm105.84 244.8c0,20.61 6.3,30.91 19,30.91 17.21,0 25.85,-14.22 25.85,-42.65 0,-16.9 0.36,-29.67 1.08,-38.33 -7.03,3.61 -11.71,5.88 -13.96,6.8 -1.98,0.83 -4.6,1.96 -7.93,3.2 -3.24,1.24 -5.85,2.37 -7.65,3.3 -1.9,1.03 -3.7,2.27 -5.59,4.02 -7.21,6.8 -10.81,17.72 -10.81,32.76zm-33.06 -92.21l-4.23 -24.01c8.01,-8.55 17.92,-15.14 29.63,-19.68 11.8,-4.64 23.51,-6.9 35.22,-6.9 17.11,0 32.16,4.43 44.95,13.19 12.79,8.86 19.46,22.35 20,40.59l0 26.48c0,8.86 -0.18,19.26 -0.54,31.32 -0.45,11.95 -0.63,21.12 -0.63,27.4 0,10.41 0.18,18.03 0.63,22.98 0.81,8.97 3.42,14.63 8.02,17.21 3.96,0.51 7.57,0.72 10.81,0.72 1.08,0 1.62,2.06 1.62,6.08l0 3.71c-2.25,1.55 -8.02,4.23 -17.3,8.14 -6.93,1.65 -11.8,2.47 -14.5,2.47 -7.92,0 -15.04,-2.58 -21.26,-7.63 -6.12,-5.05 -10.63,-12.05 -13.51,-20.92 -4.59,9.07 -10.9,16.18 -19.1,21.33 -8.19,5.25 -16.75,7.83 -25.76,7.83 -14.96,0 -27.11,-4.53 -36.3,-13.7 -9.28,-9.17 -13.87,-22.15 -13.87,-38.85 0,-9.27 1.89,-17.93 5.58,-26.06 3.69,-8.14 8.83,-14.32 15.4,-18.44 8.2,-5.46 22.7,-11.02 43.33,-16.79 11.98,-3.3 20.45,-6.8 25.4,-10.51 2.88,-2.78 4.32,-7.93 4.32,-15.35 0,-9.38 -3.24,-17.31 -9.82,-23.7 -6.57,-6.49 -14.14,-9.68 -22.7,-9.68 -13.96,0 -26.93,6.18 -38.82,18.54 -0.72,0.82 -2.07,2.27 -3.79,4.22l-2.79 0zm387.69 30.4c-0.18,-1.03 -0.27,-2.58 -0.27,-4.64 0,-2.07 -0.09,-3.61 -0.27,-4.54 -1.17,-37.6 -9.28,-56.35 -24.32,-56.35 -11.08,0 -18.47,6.39 -22.07,19.06 -3.69,12.77 -6.03,28.23 -7.2,46.47l54.13 0zm-54.13 19.16c0,6.39 0.36,14.12 1.17,22.88 0.63,6.29 2.61,13.5 6.03,21.64 3.33,8.14 6.94,14.11 10.63,17.93 8.2,8.24 18.65,12.36 31.35,12.36 15.13,0 28.83,-5.98 41.08,-17.93l4.32 3.71 -7.48 22.25c-15.13,11.95 -31.89,17.93 -50.26,17.93 -15.13,0 -28.01,-2.17 -38.46,-6.39 -10.54,-4.33 -20.45,-12.26 -29.64,-23.9 -13.42,-17.31 -20.09,-42.25 -20.09,-74.9 0,-18.75 3.15,-35.55 9.46,-50.38 6.39,-14.74 15.67,-26.27 27.92,-34.62 12.16,-8.35 26.66,-12.57 43.24,-12.57 16.3,0 29.81,3.81 40.72,11.34 10.9,7.52 18.83,17.93 23.96,31.32 5.13,13.29 7.65,28.74 7.65,46.36 0,5.77 -0.18,10.1 -0.54,12.98l-101.07 0zm449.13 49.56l-7.66 34.52c-18.92,11.12 -42.16,16.69 -69.63,16.69 -12.88,0 -28.19,-1.85 -45.94,-5.56 -10.81,-2.68 -23.6,-9.27 -38.37,-19.78 -9.55,-7.53 -18.02,-17 -25.4,-28.44 -14.77,-22.56 -22.16,-49.14 -22.16,-79.74 0,-24.53 3.06,-45.95 9.19,-64.5 6.12,-18.55 16.57,-35.13 31.35,-49.97 24.68,-24.21 57.83,-36.37 99.36,-36.37 26.48,0 50.27,6.39 71.34,19.27 -0.99,4.53 -2.34,10.72 -3.78,18.65 -1.53,7.93 -2.88,15.25 -4.23,22.15l-4.87 0c-6.57,-10.71 -15.04,-19.27 -25.67,-25.65 -10.63,-6.49 -21.53,-9.69 -32.79,-9.69 -18.37,0 -33.78,5.77 -46.12,17.31 -12.34,11.64 -21.44,26.58 -27.2,44.92 -5.86,18.34 -8.74,37.81 -8.74,58.31 0,33.07 6.84,60.27 20.54,81.6 7.48,10.92 16.93,19.27 28.28,25.14 11.35,5.87 22.97,8.86 34.95,8.86 10.63,0 21.8,-2.78 33.6,-8.35 11.71,-5.67 21.62,-12.67 29.55,-21.22l4.41 1.85zm27.02 -45.23c0,-31.42 7.93,-56.77 23.78,-76.04 7.21,-9.07 16.48,-16.38 27.84,-21.64 11.44,-5.36 22.88,-8.04 34.32,-8.04 11.89,0 23.78,2.16 35.67,6.59 11.8,4.43 21.17,11.13 28.1,20.09 15.13,18.44 22.7,41.94 22.7,70.27 0,20.4 -3.42,38.53 -10.36,54.71 -6.94,16.08 -16.94,28.64 -30.18,37.61 -13.24,8.96 -28.73,13.5 -46.57,13.5 -17.21,0 -32.25,-3.92 -45.04,-11.75 -12.88,-7.83 -22.79,-19.07 -29.82,-33.8 -6.93,-14.63 -10.45,-31.73 -10.45,-51.52zm54.14 -31.53c-1.17,9.48 -1.71,19.78 -1.71,31.02 0,53.47 10.99,80.26 32.97,80.26 8.92,0 15.58,-3.71 19.91,-11.13 4.41,-7.31 7.84,-17 10.36,-29.06 2.88,-14.83 4.33,-33.07 4.33,-54.5 0,-4.53 -0.36,-11.23 -1.08,-20.3 -2.7,-35.44 -12.97,-53.16 -30.72,-53.16 -10.9,0 -19.01,5.87 -24.41,17.51 -5.4,11.64 -8.56,24.83 -9.64,39.36zm148.54 -69.24c12.34,0.83 21.17,1.24 26.57,1.24 4.41,0 11.98,-0.41 22.7,-1.24l-1.08 29.06c16.21,-22.25 34.05,-33.38 53.42,-33.38 17.3,0 31.89,7.42 43.87,22.36 5.13,7.21 8.29,15.35 9.55,24.32 1.17,9.07 1.71,20.5 1.71,34.31l0 48.94 0 66.66c-3.06,-0.2 -7.66,-0.51 -13.78,-1.03 -6.22,-0.51 -10.9,-0.82 -14.32,-0.82 -2.61,0 -6.58,0.31 -11.98,0.82 -5.31,0.52 -9.28,0.83 -11.71,1.03 0.18,-1.85 0.27,-3.4 0.36,-4.84 0.09,-1.44 0.27,-3.2 0.45,-5.25 0.18,-2.17 0.27,-3.92 0.36,-5.36 0.09,-1.44 0.18,-3.3 0.36,-5.56 0.36,-5.15 0.72,-12.98 0.99,-23.18 0.27,-10.3 0.45,-18.03 0.63,-23.08 0,-3.4 0.09,-8.04 0.36,-14.11 0.18,-5.87 0.27,-11.33 0.27,-16.28 0,-18.96 -1.62,-34.52 -4.95,-46.67 -3.33,-12.16 -11.44,-18.24 -24.32,-18.24 -12.97,0 -21.26,6.39 -24.86,19.27 -3.51,12.78 -5.31,30.5 -5.31,53.06 0,6.7 0.09,15.97 0.27,27.61 0.18,11.64 0.45,23.39 0.81,35.03 0.27,11.64 0.45,20.92 0.54,27.61 -2.88,-0.2 -7.11,-0.51 -12.7,-1.03 -5.68,-0.51 -9.91,-0.82 -12.7,-0.82 -2.7,0 -6.84,0.31 -12.43,0.82 -5.49,0.52 -9.91,0.83 -13.06,1.03 0,-2.27 0.18,-5.66 0.54,-10.4 0.36,-4.74 0.54,-8.24 0.54,-10.61 0,-5.56 0.18,-13.5 0.63,-23.69 0.36,-10.1 0.54,-18.96 0.54,-26.38l0 -45.75 0 -16.07c0,-7.62 -0.27,-16.49 -0.72,-26.79 -0.45,-10.3 -0.81,-18.55 -0.99,-24.52l-0.54 -8.04zm201.69 141.57c3.33,10.3 8.56,18.44 15.67,24.11 7.02,5.77 15.22,8.65 24.41,8.65 8.02,0 14.32,-1.85 18.92,-5.56 5.31,-5.05 8.02,-10.82 8.02,-17.21 0,-4.13 -1.26,-7.94 -3.78,-11.24 -2.61,-3.4 -5.68,-6.39 -9.37,-8.86 -3.69,-2.58 -7.93,-4.95 -12.52,-7.21 -4.68,-2.37 -8.38,-4.12 -10.99,-5.47 -2.61,-1.44 -4.77,-2.57 -6.4,-3.6 -1.62,-0.93 -3.24,-1.86 -4.95,-2.78 -1.62,-1.03 -3.78,-2.16 -6.49,-3.61 -8.11,-4.02 -14.59,-10.71 -19.37,-20.3 -4.77,-9.48 -7.12,-19.37 -7.12,-29.77 0,-12.26 2.52,-23.29 7.66,-33.08 5.13,-9.79 12.61,-17.1 22.52,-21.84 11.8,-5.47 21.89,-8.14 30.35,-8.14 19.73,0 36.66,6.18 50.81,18.55 -2.97,10.72 -5.76,22.46 -8.2,35.24l-10.27 0c-1.35,-8.86 -5.23,-16.59 -11.71,-23.29 -6.4,-6.69 -13.51,-9.99 -21.17,-9.99 -7.39,0 -13.51,1.85 -18.47,5.56 -5.04,3.81 -7.48,9.48 -7.48,17.21 0,3.91 0.9,7.31 2.79,10.2 1.89,2.99 4.23,5.36 7.03,7.31 2.79,1.96 5.85,3.92 9.27,5.67 3.42,1.85 6.94,3.61 10.54,5.25 18.37,8.24 31.71,16.38 40.08,24.52 8.29,8.24 12.43,21.74 12.43,40.39 0,22.05 -8.11,38.94 -24.41,50.69 -11.44,8.65 -25.76,12.98 -43.15,12.98 -17.75,0 -33.96,-5.56 -48.65,-16.69 1.9,-11.12 3.69,-23.69 5.41,-37.71l8.56 0zm238.88 21.64c-9.19,11.43 -17.56,19.78 -25.04,24.93 -7.39,5.25 -16.75,7.83 -28.01,7.83 -20.99,0 -36.66,-8.24 -47.02,-24.73 -6.22,-10.3 -9.28,-26.37 -9.28,-48.32l0 -14.12c0,-9.99 0.09,-24.63 0.27,-43.89 0.18,-19.37 0.27,-34.01 0.27,-43.89 0,-2.58 -0.09,-6.18 -0.27,-10.72 -0.18,-4.63 -0.27,-8.14 -0.27,-10.3 13.06,0.83 22.52,1.24 28.19,1.24 5.14,0 13.15,-0.41 23.87,-1.24 -2.07,23.9 -3.15,60.07 -3.15,108.29 0,16.48 1.26,27.61 3.69,33.28 4.95,14.01 13.24,21.02 24.86,21.02 13.42,0 21.8,-6.9 25.4,-20.71 3.51,-13.91 5.32,-31.12 5.32,-51.62 0,-10.2 -0.27,-25.34 -0.9,-45.44 -0.63,-19.99 -0.99,-34.93 -1.17,-44.82 11.53,0.83 20,1.24 25.22,1.24 5.32,0 13.78,-0.41 25.4,-1.24 -1.08,14.84 -1.62,29.98 -1.62,45.75 0,7.31 -0.09,18.13 -0.27,32.25 -0.18,14.22 -0.27,24.83 -0.27,32.04l0 20.3c0,17.93 0.54,35.96 1.62,53.89l0.54 8.04c-2.97,-0.2 -7.3,-0.62 -13.06,-1.13 -5.76,-0.52 -10.27,-0.72 -13.42,-0.72 -2.25,0 -5.86,0.21 -10.72,0.72 -4.95,0.51 -8.74,0.93 -11.35,1.13l1.17 -29.05zm143.04 29.05c-2.79,-0.2 -7.21,-0.51 -13.15,-1.03 -5.95,-0.51 -10.36,-0.82 -13.15,-0.82 -2.97,0 -7.39,0.31 -13.51,0.82 -6.03,0.52 -10.36,0.83 -13.06,1.03 1.44,-20.61 2.16,-51.72 2.16,-93.24l0 -27.92 0 -49.35c0,-7.42 -0.09,-18.34 -0.27,-32.97 -0.18,-14.53 -0.27,-25.45 -0.27,-32.77 0,-9.68 -0.36,-25.34 -1.08,-46.88 0,-2.27 -0.18,-5.56 -0.63,-10 -0.45,-4.43 -0.72,-7.93 -0.9,-10.41 8.11,1.65 16.85,2.47 26.3,2.47 10.45,0 19.46,-0.82 27.11,-2.47 0,1.86 -0.18,4.64 -0.54,8.45 -0.36,3.82 -0.54,6.8 -0.54,8.86 0,4.74 -0.09,11.95 -0.27,21.64 -0.18,9.69 -0.27,16.9 -0.27,21.54 0,7.63 -0.09,18.65 -0.27,33.07 -0.18,14.53 -0.27,25.35 -0.27,32.46 0,68.93 0.9,128.07 2.61,177.52zm103.41 -260.98c-2.43,37.5 -3.69,61.2 -3.69,71.2l31.26 0 0 20.4 -31.26 0c-1.44,36.58 -2.25,65.74 -2.25,87.68 0,6.18 0.36,15.86 1.08,29.15 0.81,12.67 2.34,21.74 4.59,27.1 2.34,5.36 7.12,8.14 14.41,8.14 2.97,0 6.94,-0.62 11.89,-1.85 0.54,-0.21 1.08,-0.42 1.8,-0.72 0.63,-0.31 1.44,-0.72 2.52,-1.13l0 15.35c-1.71,0.93 -2.61,1.55 -2.79,1.85 -13.69,5.05 -25.04,7.52 -34.05,7.52 -17.02,0 -29,-5.46 -35.94,-16.48 -6.93,-11.02 -10.45,-26.58 -10.45,-46.57 0,-13.7 0.72,-34.93 2.07,-63.68 0,-5.25 0.09,-12.98 0.27,-23.29 0.18,-10.3 0.27,-17.92 0.27,-23.08l-24.77 0 0 -16.79 0 -3.6 24.77 0c0,-5.46 -0.18,-13.4 -0.63,-24.01 -0.45,-10.51 -0.72,-18.65 -0.9,-24.21 11.98,-5.36 28.11,-13.6 48.1,-24.72l3.69 1.75z"/>
  <path class="fil0" d="M6462.25 2293.17c0,-31.42 7.92,-56.77 23.78,-76.04 7.21,-9.07 16.48,-16.38 27.83,-21.64 11.44,-5.36 22.88,-8.04 34.32,-8.04 11.89,0 23.78,2.16 35.67,6.59 11.8,4.43 21.17,11.13 28.11,20.09 15.13,18.44 22.7,41.94 22.7,70.27 0,20.4 -3.42,38.53 -10.36,54.71 -6.94,16.08 -16.93,28.64 -30.17,37.61 -13.24,8.96 -28.74,13.5 -46.57,13.5 -17.21,0 -32.25,-3.92 -45.04,-11.75 -12.88,-7.83 -22.79,-19.07 -29.82,-33.8 -6.93,-14.63 -10.45,-31.73 -10.45,-51.52zm54.13 -31.53c-1.17,9.48 -1.71,19.78 -1.71,31.02 0,53.47 10.99,80.26 32.97,80.26 8.92,0 15.58,-3.71 19.91,-11.13 4.41,-7.31 7.84,-17 10.36,-29.06 2.88,-14.83 4.32,-33.07 4.32,-54.5 0,-4.53 -0.36,-11.23 -1.08,-20.3 -2.7,-35.44 -12.97,-53.16 -30.72,-53.16 -10.9,0 -19.01,5.87 -24.41,17.51 -5.41,11.64 -8.56,24.83 -9.64,39.36zm254.56 -15.56c-4.32,-3.6 -10.27,-5.46 -17.83,-5.46 -17.11,0 -28.01,8.86 -32.52,26.58 -1.35,7.83 -2.07,23.49 -2.07,46.98 0,26.07 0.72,49.56 2.07,70.47 -2.61,-0.2 -6.85,-0.51 -12.61,-1.03 -5.85,-0.51 -10.09,-0.82 -12.7,-0.82 -2.97,0 -7.2,0.31 -12.7,0.82 -5.41,0.52 -9.55,0.83 -12.25,1.03 1.17,-22.67 1.71,-56.46 1.71,-101.38 0,-28.43 -0.54,-58.72 -1.71,-90.87 10.18,0.83 17.75,1.24 22.7,1.24 5.4,0 13.51,-0.41 24.41,-1.24l-1.17 49.46c12.07,-35.44 31.89,-53.17 59.54,-53.17 -1.35,12.26 -2.07,21.95 -2.07,28.95 0,2.58 0.09,6.7 0.27,12.36 0.18,5.77 0.27,10.1 0.27,12.98l-3.33 3.09zm35.67 112c0.18,-4.33 0.36,-10.72 0.54,-19.16 0.18,-8.45 0.36,-14.84 0.54,-19.17 0.81,-30.6 1.17,-51 1.17,-61.2 0,-9.89 -0.18,-21.53 -0.63,-35.03 -0.54,-13.5 -0.9,-23.91 -1.08,-31.12l2.79 0c5.68,0.83 14.14,1.24 25.31,1.24 5.67,0 13.96,-0.41 24.86,-1.24l-2.16 51.93c-1.08,16.89 -1.62,42.86 -1.62,77.89 0,24.11 0.9,44.92 2.61,62.43 -2.61,-0.2 -7.21,-0.51 -13.78,-1.03 -6.49,-0.51 -11.44,-0.82 -14.77,-0.82 -2.79,0 -7.03,0.31 -12.52,0.82 -5.58,0.52 -9.64,0.83 -12.25,1.03l0.99 -26.58zm26.48 -271.38c7.66,0 14.32,3.09 19.82,9.27 5.49,6.08 8.29,13.6 8.29,22.25 0,8.65 -2.79,16.08 -8.38,22.36 -5.58,6.18 -12.16,9.27 -19.73,9.27 -7.39,0 -13.78,-3.2 -19.1,-9.58 -5.22,-6.39 -7.93,-13.7 -7.93,-22.05 0,-8.45 2.7,-15.76 7.93,-22.05 5.22,-6.28 11.62,-9.47 19.1,-9.47zm105.84 244.8c0,20.61 6.3,30.91 19.01,30.91 17.21,0 25.85,-14.22 25.85,-42.65 0,-16.9 0.36,-29.67 1.08,-38.33 -7.03,3.61 -11.71,5.88 -13.96,6.8 -1.98,0.83 -4.6,1.96 -7.93,3.2 -3.24,1.24 -5.85,2.37 -7.65,3.3 -1.89,1.03 -3.7,2.27 -5.59,4.02 -7.2,6.8 -10.81,17.72 -10.81,32.76zm-33.06 -92.21l-4.23 -24.01c8.01,-8.55 17.92,-15.14 29.63,-19.68 11.8,-4.64 23.51,-6.9 35.22,-6.9 17.12,0 32.16,4.43 44.95,13.19 12.79,8.86 19.46,22.35 20,40.59l0 26.48c0,8.86 -0.18,19.26 -0.54,31.32 -0.45,11.95 -0.63,21.12 -0.63,27.4 0,10.41 0.18,18.03 0.63,22.98 0.81,8.97 3.42,14.63 8.02,17.21 3.96,0.51 7.57,0.72 10.81,0.72 1.08,0 1.62,2.06 1.62,6.08l0 3.71c-2.25,1.55 -8.02,4.23 -17.29,8.14 -6.94,1.65 -11.8,2.47 -14.5,2.47 -7.93,0 -15.05,-2.58 -21.26,-7.63 -6.13,-5.05 -10.63,-12.05 -13.51,-20.92 -4.6,9.07 -10.9,16.18 -19.1,21.33 -8.2,5.25 -16.75,7.83 -25.76,7.83 -14.95,0 -27.11,-4.53 -36.3,-13.7 -9.27,-9.17 -13.87,-22.15 -13.87,-38.85 0,-9.27 1.89,-17.93 5.59,-26.06 3.69,-8.14 8.82,-14.32 15.4,-18.44 8.2,-5.46 22.7,-11.02 43.33,-16.79 11.98,-3.3 20.45,-6.8 25.4,-10.51 2.88,-2.78 4.33,-7.93 4.33,-15.35 0,-9.38 -3.24,-17.31 -9.82,-23.7 -6.57,-6.49 -14.14,-9.68 -22.7,-9.68 -13.96,0 -26.93,6.18 -38.82,18.54 -0.72,0.82 -2.07,2.27 -3.78,4.22l-2.79 0z"/>
  <path class="fil1" d="M2833.67 2566.13c0,0 852.93,-102.87 2166.88,-107.09 788.37,-10.41 1903.29,45.09 2339.69,108.08 0,0 -978.5,-63.29 -2330.81,-56.33 -1018.13,5.21 -2175.76,55.34 -2175.76,55.34z"/>
  <path class="fil1 str0" d="M2833.67 2566.13c0,0 852.93,-102.87 2166.88,-107.09 788.37,-10.41 1903.29,45.09 2339.69,108.08 0,0 -978.5,-63.29 -2330.81,-56.33 -1018.13,5.21 -2175.76,55.34 -2175.76,55.34z"/>
  <path class="fil0" d="M5828.08 1403.53l-491.18 -1142.14 -42.37 -73.99c68.94,5.48 120.64,8.22 154.39,8.22 29.44,0 72.53,-2.74 129.97,-8.22 11.49,28.78 25.85,64.41 41.65,107.56 15.8,43.17 34.47,93.87 56.72,151.42l185.27 460.42 341.09 796.82 17.23 0c15.8,-34.94 40.21,-87.01 73.24,-155.53 32.32,-69.2 55.29,-121.96 68.94,-160.32l292.98 -715.3 164.45 -439.86 16.51 -45.22c27.29,0 65.35,2.74 116.33,8.22 37.34,0 65.34,-2.74 81.86,-8.22 -3.59,10.96 -8.62,22.61 -15.08,35.63 -7.18,13.02 -11.49,23.29 -14.36,30.83l-625.46 1392.91 -133.56 337.09c-20.11,-5.48 -50.27,-8.22 -90.48,-8.22 -40.21,0 -70.37,2.74 -90.48,8.22l-237.69 -580.31z"/>
  <path class="fil0" d="M3496.5 195.13l374.84 695.42c135,244.6 276.46,484.4 422.95,718.04 44.52,-78.11 84.01,-145.26 117.05,-202.12 33.75,-56.18 66.07,-113.05 97.66,-170.61l361.92 -637.18c16.51,-28.78 52.42,-89.07 106.99,-180.19 53.86,-91.12 97.66,-165.81 130.69,-223.36l33.75 0 133.56 1142.82c13.65,112.37 29.44,235.01 48.12,367.93 18.67,132.92 32.31,237.74 42.36,314.48 -50.27,-5.48 -90.48,-8.22 -119.92,-8.22 -63.19,0 -109.15,2.74 -137.87,8.22l-86.17 -957.15c-17.95,-130.86 -35.19,-261.04 -51.7,-390.53l-388.49 676.92 -145.77 272c-22.26,41.11 -50.27,96.6 -84.74,167.18 -35.19,69.88 -70.37,140.45 -106.27,211.71l-29.44 0 -151.52 -295.98c-43.08,-87.7 -94.79,-187.73 -154.39,-298.72 -59.6,-111.68 -122.07,-226.1 -187.42,-344.63 -65.35,-117.85 -136.44,-247.34 -213.27,-388.48l-121.36 1027.72 -12.21 262.41 0 57.55c-11.49,0 -28.72,-0.69 -51.7,-2.05 -22.98,-1.37 -41.65,-2.06 -56.01,-2.06 -38.06,0 -66.78,1.37 -86.17,4.11l0 -25.35 94.79 -541.27 133.56 -954.41c5.75,-34.94 11.49,-78.1 17.96,-130.18 6.46,-52.07 12.93,-109.62 20.82,-174.03l47.4 0z"/>
  <path class="fil0" d="M2279.19 2485.85c152.25,-6.05 252.95,-56.74 302.11,-152.07 49.16,-96.08 73.74,-223.94 73.74,-384.34 6.35,-254.21 9.52,-443.35 9.52,-567.43l0 -339.7 0 -204.27c-6.34,-284.47 -14.27,-497.82 -24.58,-640.82l0 -21.94c31.72,6.05 83.26,9.08 153.83,9.08 62.64,0 109.43,-3.03 141.14,-9.08l-4.76 31.77c-11.89,112.73 -18.24,244.37 -18.24,394.93l0 531.11 14.27 777c0,189.9 -55.51,345.75 -164.93,465.29 -110.22,120.3 -262.46,182.33 -458.32,186.87l-23.79 -76.41z"/>
  <path class="fil1" d="M764.27 2614.65c83.16,-78.35 165.32,-156.18 246.44,-233.21 114.62,-108.9 227.48,-216.1 338.79,-321.7 114.87,-108.81 227.87,-216.37 339.05,-321.66 109.41,-103.62 216.8,-205.93 322.79,-306.49 -32.97,6.97 -65.8,14.11 -98.77,21.05 -107.3,100.96 -215.8,203.9 -326.45,308.06 -112.24,105.65 -226.49,213.77 -342.54,323.19 -112.49,106.2 -226.73,214.1 -342.86,323.5 -82.1,77.53 -165.05,155.78 -248.86,234.74 37.63,-9.04 75.11,-18.3 112.41,-27.48z"/>
  <path class="fil1" d="M1179.89 274.29c72.95,117.28 146.74,235.89 221.45,356.31 82.43,132.77 165.81,266.88 250.43,402.96 85.6,137.68 172.59,277.5 260.8,419.07 32.97,-6.94 65.8,-14.08 98.77,-21.05 3.6,-2.27 7.11,-5.01 10.75,-7.55 -87.54,-139.4 -173.88,-277.07 -259.27,-412.91 -84.15,-133.87 -167.16,-266.01 -249.06,-396.88 -75.2,-119.85 -149.41,-238.17 -222.79,-355.17 -54.31,-83.88 -108.33,-167.29 -161.57,-250.19 -6.85,-2.7 -13.79,-5.84 -20.42,-8.88 -31.68,5.25 -63.17,10.43 -94.99,15.47 55.04,85.7 110.22,171.71 165.91,258.83z"/>
  <path class="fil1" d="M628.75 2631.2c-68.53,-129.31 -136.65,-257.53 -203.63,-383.89 -66.21,-124.92 -131.71,-248.6 -196.47,-371.08 124.59,-107.81 247.15,-214.32 367.85,-318.63 118.6,-102.48 235.53,-203.89 350.36,-303.52 -81.75,-140.63 -162.38,-279.67 -241.92,-416.62 -78.47,-135.1 -156.09,-268.76 -232.47,-400.39 89.12,-69.5 176.98,-138.3 263.71,-206.06 85.94,-67.15 170.66,-133.72 254.45,-199.48 53.28,83.43 107.03,167.26 161.02,251.84 72.91,117.47 146.47,236.36 221.17,356.71 81.36,131.71 164.03,264.62 247.62,399.36 84.71,136.53 170.48,275.1 257.66,415.33 -106.43,100.08 -214.07,202.13 -324.06,305.48 -111.56,104.82 -225.02,211.53 -340.53,319.89 -112.67,106.23 -226.9,214.07 -343.22,323.5 -79.71,75.1 -160.13,151.08 -241.54,227.57z"/>
  <path class="fil0" d="M867.86 1239.34c3.96,-2.34 7.92,-4.67 11.74,-7.2 -90.5,79.34 -182.27,159.68 -275.06,240.71 -94.07,82.14 -189.28,165.54 -285.75,249.97 -9.25,7.17 -18.45,14.05 -27.65,20.96 99.37,-86.77 197.2,-172.84 293.94,-257.19 95.32,-83.1 189.79,-165.88 282.78,-247.26z"/>
  <path class="fil1" d="M764.32 1260.94c34.4,-7.22 68.8,-14.46 103.53,-21.61 3.96,-2.34 7.92,-4.67 11.74,-7.2 -65.59,-110.7 -130.65,-220.46 -194.99,-329.09 -63.54,-107.29 -126.34,-213.44 -188.58,-318.93 -6.83,-2.86 -13.79,-5.92 -20.9,-9.18 -33.69,6.43 -67.51,12.66 -101.32,18.86 63.33,108.32 127.11,217.64 191.92,328.22 65.49,111.75 131.81,224.83 198.59,338.92z"/>
  <path class="fil1" d="M764.32 1260.94c34.4,-7.22 68.8,-14.46 103.53,-21.61 -92.99,81.37 -187.46,164.16 -282.78,247.26 -96.75,84.35 -194.58,170.42 -293.94,257.19 -36.31,7.92 -72.66,16.12 -109.34,24.17 100.34,-87.24 199.37,-173.63 297.2,-258.5 96.38,-83.61 191.36,-166.66 285.33,-248.51z"/>
  <path class="fil1" d="M159.25 1757.95c-53.52,-98.65 -106.68,-196.29 -159.25,-293.26 117.91,-98.8 234.14,-196.31 348.13,-292.31 -73.97,-130.1 -146.64,-258.44 -218.83,-385.48 73.56,-59.03 146.77,-117.19 218.88,-175.17 61.63,105.69 123.99,212.76 187.1,320.68 63.79,109.09 128.23,219.59 193.31,331.01 -91.87,79.99 -184.82,161.03 -279.17,242.68 -95.59,82.73 -192.34,166.75 -290.18,251.85z"/>
 </g>
</svg>
