<?xml version="1.0" encoding="UTF-8"?>
<!DOCTYPE svg PUBLIC "-//W3C//DTD SVG 1.1//EN" "http://www.w3.org/Graphics/SVG/1.1/DTD/svg11.dtd">
<!-- Creator: CorelDRAW -->
<svg xmlns="http://www.w3.org/2000/svg" xml:space="preserve" width="352.745mm" height="129.469mm" version="1.1" style="shape-rendering:geometricPrecision; text-rendering:geometricPrecision; image-rendering:optimizeQuality; fill-rule:evenodd; clip-rule:evenodd"
viewBox="0 0 4475.6 1642.7"
 xmlns:xlink="http://www.w3.org/1999/xlink"
 xmlns:xodm="http://www.corel.com/coreldraw/odm/2003">
 <defs>
  <style type="text/css">
   <![CDATA[
    .fil0 {fill:white}
   ]]>
  </style>
 </defs>
 <g id="Camada_x0020_1">
  <metadata id="CorelCorpID_0Corel-Layer"/>
  <g id="_2643972555872">
   <path class="fil0" d="M111.9 895.2l92.88 -95.11c12.21,-12.14 25.9,-18.18 28.11,-39.03 5.18,-48.87 -0.92,-425.56 -0.35,-515.09 0.49,-75.58 57.95,-125.12 134.49,-125.12l872.82 0c100.5,0 138.76,62.04 138.76,156.66l0 832.54c0,83.25 -32.76,156.66 -125.33,156.66l-805.68 0 0 120.85 814.63 0c66.47,0 138.89,-29.64 176.56,-78.57 50.94,-66.16 60.67,-105.28 60.67,-198.94l0 -837.02c0,-128.29 -41.88,-205.16 -144.65,-253.71 -29.55,-13.96 -72.92,-19.32 -114.96,-19.32l-868.35 0c-45.58,0 -89.33,6.68 -122.29,20.94 -27.32,11.82 -63.87,38.37 -81.79,61.45 -58.07,74.8 -55.53,109.77 -55.53,235.41 0,192.47 0,384.94 0,577.41z"/>
   <path class="fil0" d="M801.21 693.78c-167.36,0 -362.09,61.77 -490.52,162.98 -122.24,96.33 -191.69,211.29 -245.51,354.28 -49.2,130.72 -65.18,265.42 -65.18,431.66l335.7 0c-0.49,-22.16 -4.51,-29.45 -4.48,-80.57 0.12,-201.85 5.75,-342.65 98.47,-528.17 77.44,-154.95 196.96,-268.94 356.42,-332.89l15.09 -7.29z"/>
   <path class="fil0" d="M1700.88 1248.81l102.95 0 0 -326.75c0,-22.5 -4.02,-20.04 -4.48,-40.28 2.74,3.16 2.53,2.27 5.77,7.66l186.7 359.37 125.33 0 0 -501.31 -107.42 0c0,138.84 -2.51,211.39 8.95,349.13l-174.3 -331.49c-5.31,-10.01 -4.83,-17.64 -18.17,-17.64l-125.33 0 0 501.31z"/>
   <path class="fil0" d="M2922.84 1087.67c0,-68.9 1.71,-120.85 85.04,-120.85 64.82,0 53.71,94.11 53.71,134.28 0,90.33 -138.76,84.38 -138.76,-13.43zm138.76 -179.04c-44.97,-30.11 -96.32,-47.92 -155.34,-21.06 -168.57,76.74 -111.72,370.18 38.96,370.18 69.08,0 87.06,-9.01 129.8,-58.19 0,24.82 4.04,29.76 4.48,49.24l102.95 0c0,-31.26 -4.48,-43.68 -4.48,-76.09l0 -452.08 -116.38 0 0 187.99z"/>
   <path class="fil0" d="M799.72 671.4l4.1 10.67 -7.1 1.27 4.48 10.44 2.25 0c0,-6.86 -1.4,-4.48 6.7,-4.48 36.61,-54.67 125.67,-102.35 196.37,-125.9 93.38,-31.11 161.99,-35.24 287.04,-35.24l0 -322.27c-100.49,2.24 -261.3,74.67 -332.36,146.57 -55.34,56 -89.62,98.08 -120.46,174.95l-27.3 93.55c-3.29,17.51 -2.95,37.69 -13.71,50.43z"/>
   <path class="fil0" d="M810.16 689.3c-8.1,0 -6.7,-2.39 -6.7,4.48 39.28,36.81 34.54,21.7 77.44,85.92 78.31,117.26 90.4,247.37 90.4,401.96l322.27 0c-2.27,-102.11 -76.61,-263.24 -151.05,-336.84 -27.84,-27.53 -64.63,-60.71 -99.6,-79.44 -53.13,-28.47 -60.84,-35.14 -129.23,-54.28l-78.74 -15.26c-0.51,-0.09 -11.27,-2.04 -11.37,-2.06l-13.42 -4.48z"/>
   <path class="fil0" d="M796.73 683.35l7.1 -1.27 -4.1 -10.67c7.03,-54.63 -32.11,-147.86 -50.73,-185.01 -35.74,-71.31 -74.12,-115.99 -133.19,-162.23 -73.94,-57.88 -208.7,-116.27 -298.01,-118.26l0 322.27c192.96,0 346.83,20.63 476.92,153.17 0.37,0.38 1.3,1.38 2.02,2z"/>
   <path class="fil0" d="M1830.69 568.45l-35.81 -4.48 0 -161.14c79.57,0 156.66,-1.01 156.66,89.52 0,58.98 -61.06,76.09 -120.85,76.09zm4.48 -232.75l-40.28 0 0 -125.33c0,-19.5 18.97,-13.43 62.66,-13.43 109.78,0 115.3,138.76 -22.38,138.76zm-134.28 295.42c101.99,23.76 349.13,17.07 349.13,-129.8l0 -26.86c0,-49.08 -49.57,-103.73 -94,-107.42l0 -8.95c68.97,-16.07 123.61,-137.13 17.16,-205.15 -55.84,-35.68 -182.01,-29.82 -247.17,-20.39 -20.98,3.04 -21.26,-2.98 -25.15,15.13l0.03 483.44z"/>
   <path class="fil0" d="M3791.18 474.46c0,-67.3 3.02,-138.76 94,-138.76 86.89,0 71.62,104.78 71.62,152.18 0,105.69 -165.61,101.92 -165.61,-13.43zm165.61 -174.56c-16.8,-11.25 -17.62,-16.94 -40.21,-26.93 -171.89,-76.06 -287.79,166.24 -188.2,304.58 49.23,68.38 143.03,80.57 199.1,42.17 32.56,-22.29 23.68,-30.93 42.74,-37.83 0,63.12 -15.79,53.71 85.04,53.71 0,-54.59 -4.48,-92.65 -4.48,-147.71l0 -384.94 -94 0 0 196.94z"/>
   <path class="fil0" d="M2345.43 957.87c100.85,0 87.97,214.85 13.43,214.85 -28.22,0 -51.54,1.35 -70.37,-37.06 -30.1,-61.41 -9.93,-177.79 56.94,-177.79zm-187.99 98.47c0,41.45 -0.74,59.9 16.46,99.91 53.11,123.53 235.45,130.13 313.81,46.84 84.47,-89.78 77.23,-320.28 -134.54,-327.77 -107.07,-3.78 -195.73,72.92 -195.73,181.01z"/>
   <path class="fil0" d="M3392.82 953.39c44.73,0 62.66,26.1 62.66,71.62l-129.8 0c8.9,-18.55 13.95,-71.62 67.14,-71.62zm-174.56 102.95c0,138.25 65.99,201.42 205.9,201.42 71.45,0 79.78,-12.81 120.85,-22.38 -2.27,-27.31 -13.43,-50.78 -13.43,-80.57 -36.67,8.54 -80.7,21.94 -122.26,14.89 -40.19,-6.81 -78.2,-20.79 -79.16,-64.13l232.75 0c0,-70.26 6.95,-131.05 -47.38,-185.38l-11.68 -10.7c-11.06,-9.5 -10.08,-8.68 -24.34,-15.94 -111.5,-56.78 -261.26,25.3 -261.26,162.79z"/>
   <path class="fil0" d="M4288.02 953.39l4.48 0c40.6,0 62.66,30.63 62.66,71.62l-129.8 0c2.78,-33.43 28.12,-71.62 62.66,-71.62zm-174.57 116.38c0,107.8 75.52,187.99 183.52,187.99 28.43,0 143.23,-5.77 143.23,-26.86 0,-23.17 -8.68,-55.74 -13.43,-76.09 -47.06,22.58 -194.29,36.49 -201.42,-49.24l232.75 0c2.03,-24.45 4.48,-12.21 4.48,-53.71 0,-91.35 -57.49,-174.56 -147.71,-174.56 -84.91,0 -155.32,26.97 -185.34,114.55 -6.3,18.39 -16.08,56.55 -16.08,77.92z"/>
   <path class="fil0" d="M4202.98 452.08c0,-161.84 174.56,-162.16 174.56,-4.48 0,171.75 -174.56,162.64 -174.56,4.48zm67.14 187.99c69.74,0 106.05,-3.37 157.88,-56.96 63.91,-66.08 63.01,-201.34 0,-266.53 -74.91,-77.5 -197.59,-72.33 -264.91,-7.33l-4.47 4.48c-0,0 -5.42,6.01 -6.36,7.07l-27.03 40.11c-13.74,27.88 -13.07,40.19 -18.36,75.85 -14.76,99.5 64.12,203.31 163.24,203.31z"/>
   <path class="fil0" d="M3343.58 572.93c-121.74,0 -106.63,-241.7 -13.43,-241.7 31.91,0 62.09,-1.41 83.74,41.59 34.4,68.33 17.87,200.12 -70.31,200.12zm-183.52 -138.76l0 31.33c0,90.94 71.78,174.56 161.14,174.56 61.5,0 114.47,-5.92 157.34,-53.03 10.51,-11.55 26.8,-35.34 33.38,-51.66 20.97,-52.01 21.31,-121.7 -1.29,-174.26 -71.39,-166.05 -350.57,-116.1 -350.57,73.06z"/>
   <path class="fil0" d="M2551.33 322.27c0,-25.7 -4.04,-34.2 -4.48,-53.71l-80.57 0 0 353.61c0,22.07 35.29,13.43 94,13.43l0 -187.99c0,-48.88 8.82,-79.16 39.27,-99.49 35.18,-23.48 80.4,-6.25 94.43,23.98 14.75,31.78 9.69,155.59 9.52,205.32 -0.22,69.06 -17.08,58.18 94,58.18l0 -237.23c0,-118.17 -135.81,-203.08 -246.18,-76.09z"/>
   <path class="fil0" d="M2238.01 572.93c-47.5,0 -58.19,-10.69 -58.19,-58.19 0,-47.56 69.57,-58.19 120.85,-58.19l0 58.19c0,29.8 -34.78,58.19 -62.66,58.19zm-125.33 -277.51c0,21.17 12.83,31.33 13.43,58.19 19.39,-4.52 164.66,-78.75 174.56,40.28 -299.56,0 -235.32,246.18 -116.38,246.18 82.49,0 67.52,-6.05 125.33,-44.76 0,22.5 4.02,20.04 4.48,40.28l85.04 0c-0.45,-19.94 -4.69,-31.43 -4.54,-58.13 0.56,-96.99 14.68,-217.51 -38.44,-274.88 -46.59,-50.32 -120.7,-47.85 -185.11,-33.83 -11.14,2.43 -58.38,17.03 -58.38,26.66z"/>
   <path class="fil0" d="M3589.76 998.15c0,111.35 156.66,94.35 156.66,152.19 0,40.54 -79.12,22.97 -98.61,18.04 -21.31,-5.39 -31.17,-13.87 -49.1,-18.04 -0.66,29.85 -15.49,56.08 -17.9,85.04 72.03,16.78 34.19,22.38 134.28,22.38 75.14,0 143.23,-44.91 143.23,-116.38 0,-129.23 -156.66,-100.76 -156.66,-161.14 0,-48.56 120.83,-4.48 120.85,-4.48 5.15,-22.11 17.39,-57.42 17.9,-80.57 -34.44,-8.02 -25.61,-13.49 -80.3,-18.48 -81.6,-7.45 -170.36,28.14 -170.36,121.43z"/>
   <path class="fil0" d="M3912.03 814.63l0 67.14c-61.36,0 -49.24,-14.87 -49.24,89.52l49.24 0c0,77.88 -12.47,202.1 26.71,250.8 45.28,56.27 129.42,29.74 165.76,26.71l-4.48 -89.52c-97.05,22.61 -76.09,-49.66 -76.09,-187.99l80.57 0c0,-108.97 18.71,-89.52 -80.57,-89.52l0 -94c-27.7,0.62 -82.91,24.44 -111.9,26.86z"/>
   <path class="fil0" d="M2851.22 456.55c0,105.82 72.6,183.52 174.56,183.52 40.92,0 81.07,-0.96 116.38,-17.9 -1.12,-13.43 -9.06,-58.03 -13.43,-67.14 -33.07,2.75 -142.47,43.97 -175.38,-61.86 -22.01,-70.78 16.35,-157.46 90.33,-157.46 33.61,0 51.32,-2.05 80.57,13.43 5.61,-11.7 16.58,-55.7 17.91,-71.62 -98.08,-47.06 -290.94,-8.45 -290.94,179.04z"/>
   <path class="fil0" d="M2676.66 948.91c0,-80.61 0.78,-67.14 -89.52,-67.14 -25.43,0 -8.95,54.57 -8.95,107.42l0 259.61 111.9 0c0,-44.61 -5.97,-197.9 11.59,-230.11 21.32,-39.1 63.27,-33.97 100.31,-33.97l0 -107.42c-66.94,0 -77.73,-1.9 -119.67,63.85 -5.18,8.11 -1.64,3.15 -5.66,7.77z"/>
  </g>
 </g>
</svg>
