<?xml version="1.0" encoding="UTF-8"?>
<!DOCTYPE svg PUBLIC "-//W3C//DTD SVG 1.1//EN" "http://www.w3.org/Graphics/SVG/1.1/DTD/svg11.dtd">
<!-- Creator: CorelDRAW -->
<svg xmlns="http://www.w3.org/2000/svg" xml:space="preserve" width="153.786mm" height="44.1067mm" version="1.1" style="shape-rendering:geometricPrecision; text-rendering:geometricPrecision; image-rendering:optimizeQuality; fill-rule:evenodd; clip-rule:evenodd"
viewBox="0 0 7531.87 2160.19"
 xmlns:xlink="http://www.w3.org/1999/xlink"
 xmlns:xodm="http://www.corel.com/coreldraw/odm/2003">
 <defs>
  <style type="text/css">
   <![CDATA[
    .fil1 {fill:none}
    .fil0 {fill:white}
   ]]>
  </style>
 </defs>
 <g id="Camada_x0020_1">
  <metadata id="CorelCorpID_0Corel-Layer"/>
  <polygon class="fil0" points="-0,1350.18 204.68,288.65 497.1,288.65 548.1,288.65 346.11,1351.48 "/>
  <path class="fil1" d="M497.1 288.65l44.14 -262.24c0,0 654.99,-93.97 936.92,72.62 95.4,75.46 282.41,200.12 304.07,496.81 36.09,487.44 -220.81,991.49 -936.16,1024.53 -146.44,6.76 -301.53,3.2 -606.55,-17.53l52.74 -251.56"/>
  <path class="fil1" d="M346.11 1351.48c573.14,6.92 968.36,6.21 1055.37,-529.24 13.17,-81.09 20.9,-204.59 -19.21,-314.12 -84.94,-231.9 -331.03,-225.64 -546.16,-228.85 -87.19,-1.3 -181.3,2.07 -288.02,9.38"/>
  <path class="fil0" d="M1973.25 447.27l-189.13 1173.72 341.54 -0.15c0,0 47.19,-385.44 137.96,-615.65 63.25,-160.41 191.49,-249.66 367.43,-236.63 62.44,-333.64 62.44,-333.64 62.44,-333.64 0,0 -239.08,-107.04 -438.9,269.41 24.98,-255.13 24.98,-255.13 24.98,-255.13l-306.31 -1.93z"/>
  <polygon class="fil0" points="2749.56,448.03 2927.5,1239.79 3230.64,1237.4 3112.6,447.72 "/>
  <path class="fil0" d="M3605.27 451.75l371.29 0 -361.24 737.35c-131.76,251.68 -236.65,478.97 -433.16,693.08 -121.33,132.2 -274.98,252.32 -442.06,269.58 -84.28,-290.13 -84.28,-290.13 -84.28,-290.13 0,0 288.83,-91.11 443.54,-366.98 154.71,-275.87 270.28,-548.02 270.28,-548.02l235.63 -494.86z"/>
  <polygon class="fil0" points="346.11,1351.48 548.1,288.65 497.1,288.65 204.68,288.65 -0,1350.18 292.26,1351.28 "/>
  <path class="fil0" d="M836.12 279.27c215.12,3.21 461.21,-3.06 546.16,228.85 40.11,109.52 32.38,233.03 19.21,314.12 -87.01,535.45 -482.23,536.16 -1055.37,529.24l-53.85 -0.2 -52.74 251.56c305.03,20.73 460.11,24.3 606.55,17.53 715.35,-33.04 972.25,-537.09 936.16,-1024.53 -21.65,-296.69 -208.66,-421.34 -304.07,-496.81 -281.93,-166.59 -936.92,-72.62 -936.92,-72.62l-44.14 262.24 51 0c106.72,-7.31 200.82,-10.68 288.02,-9.38z"/>
  <path class="fil0" d="M1973.25 447.27l-189.13 1173.72 341.54 -0.15c0,0 47.19,-385.44 137.96,-615.65 63.25,-160.41 191.49,-249.66 367.43,-236.63 62.44,-333.64 62.44,-333.64 62.44,-333.64 0,0 -239.08,-107.04 -438.9,269.41 24.98,-255.13 24.98,-255.13 24.98,-255.13l-306.31 -1.93z"/>
  <polygon class="fil0" points="2749.56,448.03 2927.5,1239.79 3230.64,1237.4 3112.6,447.72 "/>
  <path class="fil0" d="M3605.27 451.75l-235.63 494.86c0,0 -115.57,272.15 -270.28,548.02 -154.71,275.87 -443.54,366.98 -443.54,366.98 0,0 0,0 84.28,290.13 167.08,-17.26 320.73,-137.37 442.06,-269.58 196.5,-214.11 301.4,-441.4 433.16,-693.08l361.24 -737.35 -371.29 0z"/>
  <path class="fil0" d="M4511.23 664.99c0,0 30.27,-7.71 23.74,19.59 -6.53,27.3 -20.18,65.89 -30.86,67.08 -10.69,1.19 -330.64,-0.6 -330.64,-0.6 -171.37,18.02 -184.41,232.26 -117.91,258.86 43.18,17.27 333.65,147.59 333.65,147.59 0,0 69.09,30.62 73.8,137.39 4.71,106.76 -12.71,314.99 -242.74,339.32 -224.53,-3.14 -412.95,3.14 -412.95,3.14 0,0 -14.71,-76.29 14.47,-84.82 29.18,-8.53 385.6,-3.59 385.6,-3.59 0,0 75.41,-4.94 114.02,-57.9 38.61,-52.97 43.09,-136.46 43.09,-136.46 0,0 6.18,-99.29 -49.04,-121.86 -55.22,-22.56 -302.91,-133.24 -302.91,-133.24 -186.61,-75.96 -90.08,-431.25 152.43,-431.25 159.32,0 346.25,-3.24 346.25,-3.24z"/>
  <rect class="fil0" x="3749.1" y="1719.93" width="3707.2" height="56.85"/>
  <path class="fil0" d="M4749.7 664.63l125.16 0c0,0 19.91,-8.97 24.05,-40.83 4.14,-31.85 4.55,-150.59 42.61,-152.25 38.06,-1.66 74.89,3.72 74.89,3.72 0,0 3.72,14.89 0.83,26.48 -2.89,11.59 -31.44,158.05 -24.41,163.42 7.03,5.38 247.82,1.24 247.82,1.24 0,0 11.59,3.72 6.21,27.72 -5.38,24 -13.65,57.51 -13.65,57.51l-250.3 -1.24c0,0 -14.07,1.65 -16.55,27.72 -2.48,26.07 -72.83,436.71 -72.83,436.71l-32.48 181.29c0,0 -41.97,183.1 235.93,151.98 22.43,12.3 0,89.74 0,89.74 0,0 -155.59,5.06 -212.04,-20.99 -56.45,-26.05 -138.99,-91.47 -120,-223.11 18.99,-131.64 102.53,-598.72 102.53,-598.72 0,0 7.45,-40.99 -2.23,-43.1 -9.68,-2.11 -140.19,1.68 -140.19,1.68 0,0 -16.42,-90.09 24.66,-88.98z"/>
  <path class="fil0" d="M7428.37 314.78l15.27 -15.27 73.79 0c0,0 20.36,14 12.72,49.62 -7.64,35.63 -227.94,1271.81 -227.94,1271.81 0,0 -2.36,16.08 -11.22,15.45 -8.85,-0.63 -75.91,0 -75.91,0 0,0 -13.92,0.63 -8.85,-25.94 5.06,-26.57 155.49,-890.31 155.49,-890.31l66.64 -405.36z"/>
  <path class="fil0" d="M7443.64 299.51l-15.27 15.27 -66.64 405.36c0,0 -150.43,863.74 -155.49,890.31 -5.06,26.57 8.85,25.94 8.85,25.94 0,0 67.06,-0.63 75.91,0 8.85,0.63 11.22,-15.45 11.22,-15.45 0,0 220.3,-1236.19 227.94,-1271.81 7.64,-35.63 -12.72,-49.62 -12.72,-49.62l-73.79 0z"/>
  <path class="fil0" d="M5771.56 1972.81c-4.03,-33.34 -38.11,-38.84 -38.11,-38.84l-83.18 -0.37c-61.56,2.2 -64.86,163.8 -64.5,183.22 0.37,19.42 32.98,42.14 61.56,43.24 28.58,1.1 83.18,-4.03 99.67,-29.31 16.49,-25.28 28.58,-124.59 24.55,-157.93zm-100.16 0.37c0,0 49.2,-4.84 59.27,6.71 10.06,11.55 -15.65,120.77 -23.48,130.46 -7.83,9.69 -51.81,5.59 -62.99,2.61 -11.18,-2.98 -6.34,-71.19 0.37,-106.6 6.71,-35.41 26.83,-33.18 26.83,-33.18z"/>
  <path class="fil0" d="M5539.26 1873.55c-45.95,-9.81 -138.38,-27.36 -155.94,69.71 -17.55,97.07 -37.11,139.72 -23.75,181.23 13.36,41.51 93.97,35.11 128.05,24.27 13.66,-4.34 23.41,-9.73 30.67,-16.75 16.06,-15.55 19.98,-39.21 27.16,-77.74l-41.31 0.52c0,0 -4.13,56.28 -41.31,55.25 -37.18,-1.03 -58.86,1.55 -58.86,-22.72 0,-16.64 12.38,-83.04 20.16,-123.14 15.61,-80.57 99.65,-60.43 100.73,-17.55l-1.83 22.98 38.39 1.31c0,0 23.78,-87.55 -22.18,-97.36z"/>
  <path class="fil0" d="M5833.78 1933.26l-34.51 225.17c0,0 44.92,3.28 44.92,-1.1 0,-4.38 29.04,-161.07 29.04,-161.07 0,0 34.52,-60.27 81.63,-8.22 -15.34,135.87 -19.18,167.1 -19.18,167.1l33.42 4.38c0,0 39.45,-185.72 30.14,-203.81 -9.32,-18.08 -65.51,-48.89 -120.53,-2.74 -1.1,-21.37 -1.1,-21.37 -1.1,-21.37l-43.83 1.64z"/>
  <path class="fil0" d="M6069.29 1940.14c-86.01,61.42 52.37,123.45 66.48,143.59 8.9,12.7 -11.86,29.66 -11.86,29.66 0,0 -101.68,2.12 -105.49,3.39 -3.81,1.27 1.27,36.43 1.27,36.43 0,0 91.51,1.69 111.85,0 20.34,-1.69 38.13,-6.36 51.26,-60.16 13.13,-53.8 -63.12,-74.57 -89.81,-92.36 -18.64,-25 10.59,-32.2 10.59,-32.2l90.23 0 0 -34.31c0.09,-0.01 -3.06,-1.72 -13.53,-3.02 -26.54,-3.28 -89.79,-6.16 -110.99,8.97z"/>
  <path class="fil0" d="M6235.44 1932.96l-6.06 34.57 25.8 1.98c0,0 -14.72,58.4 -17.94,108.38 -3.34,51.92 1.23,77.59 58.33,77.92 16.93,0.09 28.13,-3.96 28.13,-3.96l-1.85 -38.79c0,0 -37.87,3.07 -41.09,-7.13 -3.22,-10.2 17.17,-134.16 17.17,-134.16l50.98 -1.61 8.05 -33.81 -50.83 -0.71c1.19,-4.43 5.6,-50.96 5.6,-50.96l-38.41 0 -6.14 48.29 -31.74 0z"/>
  <path class="fil0" d="M6407.26 1932.09l-40.55 223.01 41.1 2.74c0,0 20.27,-184.65 51.5,-185.75 31.24,-1.1 53.7,-1.1 53.7,-1.1l0 -52.6c0,0 -46.03,7.66 -68.49,37.26 -0.55,-22.47 -1.65,-25.75 -1.65,-25.75l-35.62 2.19z"/>
  <path class="fil0" d="M6543.15 1933.73c0,0 -36.16,173.15 -18.63,197.81 17.53,24.66 90.96,36.16 116.16,-1.1 3.83,23.01 3.83,21.92 3.83,21.92l34.52 0 40 -216.98 -38.91 -5.48 -35.07 170.96c0,0 -82.74,41.1 -82.74,1.1 0,-40 27.94,-164.93 27.94,-164.93l-47.12 -3.29z"/>
  <g id="_2643868671296">
   <path class="fil0" d="M7377.8 1972.81c-4.03,-33.34 -38.11,-38.84 -38.11,-38.84l-83.18 -0.37c-61.56,2.2 -64.86,163.8 -64.5,183.22 0.37,19.42 32.98,42.14 61.56,43.24 28.58,1.1 83.18,-4.03 99.67,-29.31 16.49,-25.28 28.58,-124.59 24.55,-157.93zm-100.16 0.37c0,0 49.2,-4.84 59.27,6.71 10.06,11.55 -15.65,120.77 -23.48,130.46 -7.83,9.69 -51.81,5.59 -62.99,2.61 -11.18,-2.98 -6.34,-71.19 0.37,-106.6 6.71,-35.41 26.83,-33.18 26.83,-33.18z"/>
   <path class="fil0" d="M6759.57 1932.96l-6.06 34.57 25.8 1.98c0,0 -14.72,58.4 -17.94,108.38 -3.34,51.92 1.23,77.59 58.33,77.92 16.93,0.09 28.13,-3.96 28.13,-3.96l-1.85 -38.79c0,0 -37.87,3.07 -41.09,-7.13 -3.22,-10.2 17.17,-134.16 17.17,-134.16l50.98 -1.61 8.05 -33.81 -50.83 -0.71c1.19,-4.43 5.6,-50.96 5.6,-50.96l-38.41 0 -6.14 48.29 -31.74 0z"/>
   <polygon class="fil0" points="6925.78,1932.15 6885.93,2154.66 6931.09,2154.66 6968.29,1932.15 "/>
   <polygon class="fil0" points="6932.42,1902.26 6970.29,1906.24 6980.25,1845.8 6939.73,1845.8 "/>
   <polygon class="fil0" points="7010.51,1936.27 7032.81,2151.14 7093.28,2155 7093.28,2136.56 7187.21,1935.85 7146.89,1935.42 7072.26,2106.97 7047.82,1932.85 "/>
  </g>
  <path class="fil0" d="M3947.59 2137.72c46.88,-37.56 56.95,-119.82 -11.74,-142.3 -28.94,-9.46 -68.45,-2.45 -74.42,-37.11 -3.53,-20.4 9.09,-43.91 43.49,-43.45l49.58 0.67c0,0 0,39.49 0,43.44 0,3.95 47.88,0.49 47.88,0.49 0,0 0,0 0.49,-40.97 -3.11,-36.52 -32.04,-46.25 -64.34,-47.16 -36.98,-1.04 -87.23,-1.32 -108.18,32.95 -8.95,14.64 -14.49,33.34 -17.03,51.71 -2.59,18.71 -4.17,38.22 8.73,53.67 11.53,13.82 31.34,18.93 59.46,24.8 31.7,6.6 65.41,3.83 56.7,46.29 -4.66,22.74 -25.62,29.83 -25.62,29.83 -51.28,0 -65.75,9.57 -65.75,-44.5l-52.54 0c-11.6,83.46 21.47,87.4 72.32,91.36 30.13,2.34 58.52,-1.73 80.97,-19.71z"/>
  <polygon class="fil0" points="4061.88,1932.15 4022.03,2154.66 4067.2,2154.66 4104.39,1932.15 "/>
  <polygon class="fil0" points="4068.52,1902.26 4106.39,1906.24 4116.35,1845.8 4075.83,1845.8 "/>
  <path class="fil0" d="M4165.21 1940.14c-86.01,61.42 52.37,123.45 66.48,143.59 8.9,12.7 -11.86,29.66 -11.86,29.66 0,0 -101.68,2.12 -105.49,3.39 -3.81,1.27 1.27,36.43 1.27,36.43 0,0 91.51,1.69 111.85,0 20.34,-1.69 38.13,-6.36 51.26,-60.16 13.13,-53.8 -63.12,-74.57 -89.81,-92.36 -18.64,-25 10.59,-32.2 10.59,-32.2l90.23 0 0 -34.31c0.09,-0.01 -3.06,-1.72 -13.53,-3.02 -26.54,-3.28 -89.79,-6.16 -110.99,8.97z"/>
  <path class="fil0" d="M4333.59 1932.96l-6.06 34.57 25.8 1.98c0,0 -14.72,58.4 -17.94,108.38 -3.34,51.92 1.23,77.59 58.33,77.92 16.93,0.09 28.13,-3.96 28.13,-3.96l-1.85 -38.79c0,0 -37.87,3.07 -41.09,-7.13 -3.22,-10.2 17.17,-134.16 17.17,-134.16l50.98 -1.61 8.05 -33.81 -50.83 -0.71c1.19,-4.43 5.6,-50.96 5.6,-50.96l-38.41 0 -6.14 48.29 -31.74 0z"/>
  <path class="fil0" d="M4634.68 1931.84c-45.24,-12.44 -131.19,-15.83 -145.33,60.51 -14.14,76.34 -32.24,153.26 16.4,159.48 48.63,6.22 128.94,4.53 128.37,0.57 -0.57,-3.96 4.52,-37.33 -0.57,-39.02 -5.09,-1.69 -112.53,-4.52 -112.53,-4.52 0,0 -15.83,-25.45 1.77,-40.42l120.48 0c0,0 36.66,-124.15 -8.58,-136.59zm-108.58 95.57c-5.29,-71.42 68.43,-58.81 80.87,-54.85 12.44,3.96 6.78,54.85 6.78,54.85l-87.65 0z"/>
  <path class="fil0" d="M4716.16 1933.04l-34.67 223.22 32.98 -3.38 27.82 -152.7c0,0 55.62,-59.46 84.39,-11.51 -5.75,53.7 -20.46,163.67 -20.46,163.67 0,0 39.64,3.19 40.28,-0.64 0.64,-3.83 21.1,-152.8 21.1,-152.8 0,0 62.66,-67.77 86.95,1.91 -24.3,151.53 -24.3,151.53 -24.3,151.53l39.64 1.91c0,0 38.36,-177.1 20.46,-199.48 -17.9,-22.38 -85.04,-40.91 -117.64,5.12 -15.98,-7.03 -33.88,-58.83 -113.8,-9.59 -6.4,-18.54 -6.4,-18.54 -6.4,-18.54l-36.36 1.28z"/>
  <path class="fil0" d="M5189.55 1932.67c-165.13,-18.05 -154.09,96.22 -161.16,155.34 -7.06,59.12 34.4,63.81 34.4,63.81 0,0 61.38,-1 67.38,-2 6,-1 9.34,-12.68 10.34,-15.34 1,-2.67 9.01,18.68 9.01,18.68l41.36 -0.67c0,0 0,0 4,-28.36 4,-28.36 35.69,-176.45 37.7,-191.46 2,-15.01 -43.03,0 -43.03,0zm-15.58 54.14c0,13.03 -16.97,116.4 -26.95,120.73 -9.98,4.33 -55.5,12.58 -66.77,3.04 -11.27,-9.54 -5.63,-62.87 -2.6,-82.38 3.03,-19.51 9.97,-72.84 92.95,-56.11 0,0 3.36,1.68 3.36,14.72z"/>
  <path class="fil0" d="M6488.57 853.86c53.37,-85.32 95.66,-92.42 186.34,-103.05 70.1,-8.22 150.13,-1.16 175.31,1.53 36.99,3.96 60.38,17.49 77.32,37.5 51.57,60.9 37.3,130.21 25.63,203.43 -10.54,66.18 -24.93,128.44 -24.93,128.44l-508.91 -3.53c14.13,-127.47 36.79,-212.45 69.23,-264.32zm-78.36 345.14l595.73 0c0,0 71.77,-294.28 52.93,-382.2 -18.84,-87.92 -79.85,-143.55 -204.56,-151.63 -51.22,-3.32 -103.06,-6.48 -151.58,-5.95 -109.09,1.19 -231.46,34.95 -294.33,131.97 -20.97,32.35 -38.31,77.27 -51.14,144.93 -9.6,50.71 -20.15,109.64 -30.21,167.4 -13.77,79.08 -59.43,279.17 -49.35,364.36 7.74,65.48 41.4,143.43 153.06,165.08 206.36,19.61 482.89,5.16 482.89,5.16 0,0 44.37,-83.45 11.13,-86.85 -20.82,-2.13 -188.85,-2.92 -311.5,-3.22 -82.12,-0.2 -146.3,17.24 -208.46,-47.12 -14.37,-14.87 -25.38,-33.5 -26.87,-56.18 -4.75,-71.91 13.57,-170.29 13.57,-170.29l18.68 -75.47z"/>
  <path class="fil0" d="M5552.73 853.86c53.37,-85.32 95.66,-92.42 186.34,-103.05 70.1,-8.22 150.13,-1.16 175.31,1.53 36.99,3.96 60.38,17.49 77.32,37.5 51.57,60.9 37.3,130.21 25.63,203.43 -10.54,66.18 -24.93,128.44 -24.93,128.44l-508.91 -3.53c14.13,-127.47 36.79,-212.45 69.23,-264.32zm-78.36 345.14l595.73 0c0,0 71.77,-294.28 52.93,-382.2 -18.84,-87.92 -79.85,-143.55 -204.56,-151.63 -51.22,-3.32 -103.06,-6.48 -151.58,-5.95 -109.09,1.19 -231.46,34.95 -294.33,131.97 -20.97,32.35 -38.31,77.27 -51.14,144.93 -9.6,50.71 -20.15,109.64 -30.21,167.4 -13.77,79.08 -59.43,279.17 -49.35,364.36 7.74,65.48 41.4,143.43 153.06,165.08 206.36,19.61 482.89,5.16 482.89,5.16 0,0 44.37,-83.45 11.13,-86.85 -20.82,-2.13 -188.85,-2.92 -311.5,-3.22 -82.12,-0.2 -146.3,17.24 -208.46,-47.12 -14.37,-14.87 -25.38,-33.5 -26.87,-56.18 -4.75,-71.91 13.57,-170.29 13.57,-170.29l18.68 -75.47z"/>
 </g>
</svg>
