<?xml version="1.0" encoding="UTF-8"?>
<!DOCTYPE svg PUBLIC "-//W3C//DTD SVG 1.1//EN" "http://www.w3.org/Graphics/SVG/1.1/DTD/svg11.dtd">
<!-- Creator: CorelDRAW -->
<svg xmlns="http://www.w3.org/2000/svg" xml:space="preserve" width="274.998mm" height="63.0833mm" version="1.1" style="shape-rendering:geometricPrecision; text-rendering:geometricPrecision; image-rendering:optimizeQuality; fill-rule:evenodd; clip-rule:evenodd"
viewBox="0 0 2760.47 633.24"
 xmlns:xlink="http://www.w3.org/1999/xlink"
 xmlns:xodm="http://www.corel.com/coreldraw/odm/2003">
 <defs>
  <style type="text/css">
   <![CDATA[
    .fil0 {fill:#FEFEFE}
   ]]>
  </style>
 </defs>
 <g id="Camada_x0020_1">
  <metadata id="CorelCorpID_0Corel-Layer"/>
  <g id="_2643868892720">
   <path class="fil0" d="M185.28 177.69c-39.94,0 -79.89,0.01 -119.84,0 -12.01,-0 -17.15,0.45 -26.25,3.49 -6.95,2.32 -13.85,6.17 -19,10.75 -10.7,9.51 -20.19,24.68 -20.19,40.15l0 130.88 67.14 0c16.11,0 36.77,-14.1 44.49,-29.45 4.21,-8.37 8.32,-15.82 12.45,-24.09 5.78,-11.55 61.2,-120.48 62.04,-124.09l415.6 0c19.75,0 26.08,0.01 39.37,-7.37 16.2,-8.99 22.77,-22.58 30.6,-38.24 2.81,-5.62 5.12,-10.24 7.93,-15.86 10.44,-20.88 20.56,-41.13 30.88,-61.76 5.18,-10.35 10.28,-19.71 15.58,-30.31 2.78,-5.56 14.63,-27.16 15.02,-31.73l-412.2 0c-18.64,0 -27.28,-0.97 -41.3,4.59 -22.57,8.95 -31.17,31.58 -40.85,50.93 -10.37,20.73 -20.31,40.42 -30.59,61.2l-15.59 30.31c-5.06,10.12 -10.02,20.63 -15.3,30.6z"/>
   <path class="fil0" d="M185.28 447.96c-39.94,0 -79.89,0 -119.84,0 -11.64,-0 -17.77,0.07 -26.59,3.16 -21.12,7.4 -38.85,29.21 -38.85,51.24l0 130.88 64.59 0c10.32,0 21.82,-5.21 28.06,-9.33 17.23,-11.38 22.04,-26.28 30.87,-43.93 2.24,-4.49 3.99,-7.98 6.23,-12.46l6.8 -12.74c7.54,-14 44.97,-91.86 50.42,-100.01 79.14,0 163.39,0.91 242.26,0.03 9.15,-0.1 21.36,-4.15 27.01,-7.84 17.6,-11.49 20.67,-19.64 30.18,-38.66l58.08 -115.3c2.64,-5.28 10.24,-18.84 11.33,-23.51l-239.67 0c-14.14,0 -20.14,0.33 -29.76,5.08 -10.82,5.35 -20.7,13.73 -26.61,24.38 -2.12,3.83 -3.81,7.6 -5.67,11.33l-28.9 56.94c-1.9,3.83 -3.63,7.27 -5.67,11.33 -4.47,8.94 -33.28,65.13 -34.28,69.41z"/>
   <path class="fil0" d="M1875.73 75.71l0 300.01c0,4.39 3.54,6.8 7.65,6.8l70.54 0c2.66,0 5.87,-1.66 6.84,-3.36 1.24,-2.18 0.83,-6.76 0.81,-10.24l-0 -128.34c-0,-10.54 -2.11,-17.85 5.95,-17.85 4.32,0 5.97,3.36 9.59,8.26 2.69,3.63 4.93,6.45 7.76,10.08 2.81,3.6 5.02,6.46 7.87,9.97l16.06 20.49c17.26,22.11 40.29,50.67 56.21,72.13l7.78 10.07c2.88,3.6 5.3,6.7 8.25,10.45 4.8,6.11 12.39,18.33 18.22,18.33l63.74 0c5.07,0 8.5,-1.73 8.5,-6.8l0 -301.71c0,-2.05 -3.05,-5.1 -5.1,-5.1l-75.64 0c-6.49,0 -5.11,11.91 -5.1,14.45l0 122.39c0,10.22 1.56,16.15 -5.95,16.15 -4.81,0 -5.33,-3.22 -9.15,-7.85 -15.25,-18.47 -30.7,-40.08 -45.82,-58.71l-23.1 -29.6c-5.04,-6.77 -10.29,-12.83 -15.3,-19.55 -2.56,-3.44 -4.71,-6.04 -7.39,-9.6l-7.82 -10.02c-2.69,-3.25 -4.83,-6.11 -7.49,-9.51 -2.63,-3.37 -4.54,-8.14 -9.71,-8.14l-73.09 0c-2.75,0 -5.1,3.69 -5.1,6.8z"/>
   <path class="fil0" d="M1194.96 75.71l0 299.16c0,4.2 3.45,7.65 7.65,7.65l69.69 0c9.05,0 8.54,-4.72 8.5,-13.6l-0 -157.23 34.24 43.1c19.86,26.78 46.61,59.29 67.74,86.94l25.75 32.89c3,4.06 4.89,7.89 11.66,7.89l62.04 0c3.83,0 8.5,-1.61 8.5,-5.1l0 -303.41c0,-2.05 -3.05,-5.1 -5.1,-5.1l-73.94 0c-7.74,0 -6.82,6.79 -6.8,14.45l0 149.58c-10.03,-11.53 -40.04,-50.48 -48.56,-61.92 -22.27,-29.89 -49.7,-63.16 -72.96,-93.62 -3.39,-4.43 -5.48,-8.49 -10.21,-8.49l-71.39 0c-4.11,0 -6.8,2.69 -6.8,6.8z"/>
   <path class="fil0" d="M2506.35 74.86l0 300.86c0,5.07 3.43,6.8 8.5,6.8l237.97 0c5.27,0 7.65,-3.07 7.65,-8.5l0 -59.49c0,-8 -7.43,-6.81 -15.3,-6.8l-135.98 0c-20.77,0 -17,5.46 -17,-42.49 0,-3.12 1.32,-4.11 2.55,-5.95l136.01 0.02c7.02,0.06 11.88,-0.94 11.88,-7.67l0 -54.39c0,-6.14 -4.52,-7.73 -11.01,-7.68l-136.87 0.04c-1.23,-1.84 -2.55,-2.83 -2.55,-5.95 0,-41.24 -3.76,-40.87 14.45,-40.8l148.74 0c1.23,-1.84 2.55,-2.83 2.55,-5.95l0 -62.04c0,-3.97 -1.98,-5.95 -5.95,-5.95l-239.67 0c-3.97,0 -5.95,1.98 -5.95,5.95z"/>
   <path class="fil0" d="M1709.15 258.43l-51.84 0c-12.19,0 -2.43,-17.3 0.61,-24.89l18.07 -45.68c3.12,-8.08 9.96,-8.81 13.4,0.25 1.26,3.33 2.42,6.04 3.64,9.11l21.24 55.25c0,2.4 -2.7,5.95 -5.1,5.95zm-188.68 124.09l72.24 0c10.02,0 11.69,-11.81 17.85,-27.2 2.13,-5.33 4.06,-10.16 6.31,-15.78 1.2,-3 1.96,-5.1 3.11,-7.94 1.17,-2.89 2.54,-5.17 6.72,-5.17l111.34 0c7.13,0 11,17.32 16.13,28.92 2.3,5.21 4,10.22 6.33,15.77 2.91,6.93 3.33,11.41 11.54,11.41l73.94 0c16.65,0 6.01,-16.64 1.72,-26.37 -19.4,-43.94 -38.35,-92.5 -57.79,-136.84 -5.67,-12.92 -10.76,-25.67 -16.41,-38.84l-45.39 -107.59c-1.45,-3.43 -3.42,-6.53 -7.92,-6.53l-72.24 0c-8.29,0 -8.6,4.62 -13.24,15.66 -3.05,7.26 -5.6,13.14 -8.49,20.41 -10.45,26.31 -24,54.95 -34.36,81.22l-77.32 182.75c-2.33,5.27 -7.46,16.13 5.93,16.13z"/>
   <path class="fil0" d="M2188.49 225.29c0,38.75 15.41,83.77 40.57,109.87l20.51 19.44c40.77,32.6 99.66,41.54 150.38,27.76 14.12,-3.84 24.43,-8.53 36.72,-15.13 18.64,-10.02 41.57,-33.54 52.69,-50.15 -3.52,-1.86 -4.88,-3.18 -8.16,-5.44l-51.53 -36.86c-8.79,-6.42 -10.71,3.31 -22.03,12.43 -16.75,13.49 -26.45,21.37 -55.97,21.37 -11.07,0 -23.49,-3.39 -30.88,-7.36 -14.17,-7.61 -21.96,-15.79 -29.83,-28.81 -5.25,-8.68 -8.71,-18.71 -10.45,-28.65 -4.51,-25.85 -0.11,-49.65 12.51,-68.63 25.45,-38.3 77.87,-43.65 111.56,-13.79 2.98,2.64 5.69,4.96 8.18,7.96 10.68,12.88 10.36,8.04 33.25,-9.47 4.41,-3.37 38.26,-27.73 38.26,-31.44 0,-4.11 0.03,-4.24 -2.31,-7.04 -10.05,-12 -15.92,-18.52 -29.12,-28.67 -20.45,-15.72 -57.34,-29.86 -84.13,-29.76 -13.2,0.05 -5.62,-1.44 -23.02,-0.02 -2.73,0.22 -5.68,-0.13 -8.41,0.09 -4.31,0.34 -9.53,1.25 -14.13,2.02 -77.7,12.91 -134.65,79.66 -134.65,160.27z"/>
   <path class="fil0" d="M821.85 76.56l0 296.62c0,6.37 2.98,9.35 9.35,9.35l69.69 0c11.27,0 8.5,-9.12 8.5,-25.5l0 -67.99c0,-18.39 -2.3,-18.71 16.15,-18.7l118.99 0c2.85,0.02 12.75,1.2 12.75,-5.1l0 -61.19c0,-7.12 -5.59,-6.85 -12.74,-6.81l-121.54 0.01c-17.32,0.05 -13.6,2.17 -13.6,-45.05 0,-8 7.43,-6.81 15.3,-6.8 15.45,0.02 140.46,0.87 144.1,-0.39 2.65,-0.91 4.63,-4 4.63,-7.26l0 -61.19c0,-4.11 -2.41,-7.65 -6.8,-7.65l-237.97 0c-4.39,0 -6.8,3.54 -6.8,7.65z"/>
   <path class="fil0" d="M1090.42 74.01l0 301.71c0,5.07 3.43,6.8 8.5,6.8l71.39 0c3.5,0 7.65,-2.86 7.65,-5.95l0 -300.86c0,-4.11 -2.69,-6.8 -6.8,-6.8l-75.64 0c-2.05,0 -5.1,3.05 -5.1,5.1z"/>
   <path class="fil0" d="M2239.48 531.25l11.9 0 0 -55.24 42.09 52.25c2.98,3.86 1.21,2.99 12.31,2.99l0 -73.94c0,-3.7 -3.6,-2.55 -11.9,-2.55l0 55.24 -22.58 -27.56c-3.97,-5.05 -7.4,-9.3 -11.3,-14.19 -12.51,-15.7 -8.32,-13.49 -20.51,-13.49l0 76.49z"/>
   <path class="fil0" d="M2033.81 531.25l11.9 0 0 -54.39c2.92,1.95 35.96,43.8 41.96,51.53 3.02,3.89 3.03,2.87 12.43,2.87l0 -73.94c0,-3.7 -3.6,-2.55 -11.9,-2.55l0 55.24c-2.25,-1.51 -14.47,-17.53 -17.26,-20.98 -2.08,-2.57 -3.83,-4.53 -5.8,-6.95 -2.17,-2.67 -20.33,-27.32 -23.68,-27.32l-7.65 0 0 76.49z"/>
   <path class="fil0" d="M1488.17 531.25l11.05 0 0 -55.24 22.21 27.08c2.3,2.88 21.03,24.6 21.99,28.16l10.2 0 0 -76.49c-14.16,0 -11.94,-1.47 -11.9,11.05l0 43.35c-2.87,-1.92 -29.18,-35.44 -33.73,-41.06 -12.41,-15.32 -7.64,-13.33 -19.82,-13.33l0 76.49z"/>
   <path class="fil0" d="M874.55 531.25l11.05 0 0 -55.24c7.19,4.81 42.15,55.24 46.74,55.24l7.65 0 0 -76.49 -11.05 0 0 55.24c-7.26,-4.86 -42.23,-55.24 -46.74,-55.24l-7.65 0 0 76.49z"/>
   <path class="fil0" d="M2621.09 498.11l-20.4 0 0 -33.15c13.19,0 39.1,-3.38 39.1,16.15 0,10.73 -7.9,17 -18.7,17zm-31.45 33.15l11.05 0 0 -22.95 23.8 0c0.76,2.87 13.37,20.06 15.3,22.95l12.75 0c-2.3,-4.34 -5.66,-8.62 -8.63,-12.62 -2.09,-2.82 -8.11,-10.59 -8.37,-13.73 7.06,-0.59 15.3,-10.78 15.3,-19.55 0,-10.12 0.47,-17.58 -10.06,-24.79 -11.99,-8.22 -33.76,-5.81 -51.14,-5.81l0 76.49z"/>
   <path class="fil0" d="M2444.31 531.25l56.09 0 0 -10.2 -44.19 0 0 -23.8 38.25 0c0,-7.25 1,-10.2 -2.55,-10.2l-35.7 0 0 -22.1 42.49 0 0 -10.2 -54.39 0 0 76.49z"/>
   <path class="fil0" d="M1064.07 457.31l0 73.94 56.09 0 0 -10.2 -44.19 0 0 -23.8 38.25 0 0 -10.2 -38.25 0 0 -22.1 42.5 0 0 -10.2 -51.84 0c-1.96,0 -2.55,0.59 -2.55,2.55z"/>
   <path class="fil0" d="M1395.53 457.31l0 73.94 56.09 0 0 -10.2 -44.19 0 0 -23.8 38.25 0 0 -10.2 -38.25 0 0 -22.1 42.49 0 0 -10.2 -51.84 0c-1.96,0 -2.55,0.59 -2.55,2.55z"/>
   <path class="fil0" d="M1286.75 493.01c0,22.01 17.19,39.1 39.1,39.1 10.67,0 30.6,-4.49 30.6,-11.05l0 -28.9 -11.05 0 0 25.5c-6.6,1.54 -22.43,10.24 -37.61,-3.18 -14.83,-13.1 -11.88,-41.22 9.84,-48.39 17.32,-5.72 25.08,2.16 32.87,7.38l6.98 -7.47c-1.93,-2.79 -8.11,-6.83 -11.49,-8.42 -22.09,-10.4 -59.23,0.84 -59.23,35.44z"/>
   <path class="fil0" d="M2715.43 467.51c1.95,2.24 3.01,5.74 4.23,8.52l11.92 27.17 -31.45 0 7.77 -17.73c2.15,-5.26 6.19,-12.22 7.53,-17.97zm-39.09 63.74l11.9 0c1.41,-6.07 6.45,-13.53 7.65,-18.7l39.94 0c1.34,2.8 2.42,5.77 3.76,8.99 1.64,3.92 2.87,5.31 3.89,9.71l12.75 0 -30.71 -67.87c-4.06,-10.05 -3.27,-8.62 -13.48,-8.62 -3.12,0 -4.07,5.4 -5.38,8.22 -2.87,6.18 -29.97,64.07 -30.32,68.27z"/>
   <path class="fil0" d="M1774.59 467.51c1.34,5.75 5.38,12.71 7.53,17.97 1.28,3.11 2.33,5.81 3.8,8.95 1.42,3.04 2.56,6.13 3.96,8.78l-31.45 0 11.61 -26.63c1.03,-2.14 1.2,-2.5 2.09,-4.71l2.45 -4.35zm-39.95 63.74l11.9 0 7.65 -18.7 39.94 0c0.68,2.91 2.41,5.73 3.76,8.98 1.34,3.22 3.12,6.45 3.88,9.71l12.75 0 -26.34 -57.8c-9.54,-21.39 -5.75,-18.69 -17.86,-18.69 -3.28,0 -7.08,12.29 -9.91,18.14 -1.64,3.38 -2.61,5.96 -4.25,9.35 -2.65,5.47 -21.23,45.24 -21.54,49z"/>
   <path class="fil0" d="M2169.79 467.51c0.52,2.23 2.56,6.65 3.69,9.06l11.61 26.63 -31.45 0 11.88 -26.36c0.74,-1.64 1.16,-2.93 1.99,-4.81 0.26,-0.58 0.75,-1.66 1.08,-2.32l0.89 -1.66c0.06,-0.12 0.19,-0.37 0.31,-0.54zm-39.94 63.74l11.9 0c1.16,-4.99 6.44,-13.49 7.65,-18.7l39.95 0 8.5 18.7 11.9 0 -25.51 -56.93c-2.04,-4.57 -7.52,-15.42 -8.49,-19.56l-11.9 0c-0.8,1.67 -1.07,2.87 -1.98,4.82l-6.51 13.89c-1.4,3.13 -2.96,6.55 -4.14,9.46 -3.43,8.43 -20,42.47 -21.37,48.32z"/>
   <path class="fil0" d="M2340.62 492.16c0,41.41 45.98,47.3 64.35,32.91 2.05,-1.61 4.08,-2.97 5.34,-4.86l-6.98 -7.47c-3.02,1.97 -4.94,4.16 -8.85,6.09 -26.75,13.22 -54.41,-17.04 -36.38,-43.18 6.79,-9.83 19.46,-12.8 31.33,-10.21 7.04,1.54 9.32,4.83 14.08,8.02l6.6 -7c-15.37,-23.26 -69.49,-14.42 -69.49,25.7z"/>
   <path class="fil0" d="M1627.56 532.1c7.61,0 13.48,-0.33 20.13,-3.66 3.45,-1.73 9.45,-5.31 10.46,-9.08 -2.07,-3.09 -4.29,-3.05 -6.8,-6.8 -3.44,2.3 -4.12,4.07 -8.91,6.39 -29.4,14.2 -55.81,-22.68 -34.37,-45.41 0.12,-0.13 0.3,-0.3 0.42,-0.43 0.12,-0.12 0.31,-0.3 0.43,-0.42 0.13,-0.12 0.31,-0.29 0.44,-0.41 13.07,-12.12 34.42,-8.83 41.13,1.19 2.79,-1.87 5.79,-4.02 7.65,-6.8 -1.07,-3.99 -7.56,-7.73 -11.14,-9.26 -15.24,-6.49 -34.77,-3.96 -46.03,7.33 -7.36,7.39 -11.58,14.39 -12.25,27.61 -0.74,14.73 8.51,30.29 22.17,36.02 4.83,2.03 10.25,3.74 16.66,3.74z"/>
   <polygon class="fil0" points="1892.72,531.25 1904.62,531.25 1904.62,500.66 1942.02,500.66 1942.02,490.46 1904.62,490.46 1904.62,464.96 1947.12,464.96 1947.12,454.76 1892.72,454.76 "/>
   <path class="fil0" d="M970.58 464.96l26.35 0 0 66.29 11.05 0 0 -66.29 26.35 0c0,-7.25 1,-10.2 -2.55,-10.2l-61.19 0 0 10.2z"/>
   <path class="fil0" d="M1156.71 531.25l52.69 0 0 -7.65c0,-1.96 -0.59,-2.55 -2.55,-2.55l-39.09 0 0 -66.29 -11.05 0 0 76.49z"/>
   <polygon class="fil0" points="1240,531.25 1251.9,531.25 1251.9,454.76 1240,454.76 "/>
   <path class="fil0" d="M2536.1 457.31l0 73.94 11.9 0 0 -76.49 -9.35 0c-1.96,0 -2.55,0.59 -2.55,2.55z"/>
   <path class="fil0" d="M821 457.31l0 73.94 11.9 0 0 -76.49 -9.35 0c-1.96,0 -2.55,0.59 -2.55,2.55z"/>
   <polygon class="fil0" points="1693,531.25 1704.05,531.25 1704.05,454.76 1693,454.76 "/>
   <polygon class="fil0" points="1981.11,531.25 1992.16,531.25 1992.16,454.76 1981.11,454.76 "/>
   <path class="fil0" d="M1403.18 449.66c16.58,0 8.59,-0.6 20.4,-8.5l7 6.6c3.35,2.81 6.88,1.9 12.55,1.9 -1.64,-2.45 -13.47,-15.3 -16.15,-15.3l-7.65 0c-2.68,0 -14.51,12.85 -16.15,15.3z"/>
  </g>
 </g>
</svg>
